<svg width="317" height="244" viewBox="0 0 317 244" fill="none" xmlns="http://www.w3.org/2000/svg">
<path d="M46.4275 223.257C108.327 249.92 208.678 249.92 270.578 223.257C332.478 196.594 332.471 153.385 270.578 126.708C208.685 100.03 108.327 100.051 46.4275 126.708C-15.4723 153.364 -15.4793 196.58 46.4275 223.257Z" fill="#FAFAFA"/>
<path d="M91.3064 156.487L45.9663 182.668L42.5635 180.663L87.9036 154.524L91.3064 156.487Z" fill="#EBEBEB"/>
<path d="M72.3782 168.1L90.517 157.626L90.9502 157.878L72.8184 168.351L72.3782 168.1Z" fill="#EBEBEB"/>
<path d="M310.125 184.184C313.276 182.361 313.276 179.412 310.125 177.589L187.527 106.808C184.376 104.991 179.254 104.991 176.096 106.808L121.512 138.306L126.871 141.402L155.009 125.198L278.312 196.377L252.501 211.26L258.217 214.146L310.125 184.184Z" fill="#EBEBEB"/>
<path d="M125.977 169.029L213.443 219.526C213.942 219.777 214.494 219.908 215.053 219.908C215.613 219.908 216.164 219.777 216.664 219.526L243.669 203.93C244.564 203.42 244.564 202.589 243.669 202.072L156.21 151.575C155.709 151.324 155.157 151.193 154.596 151.193C154.036 151.193 153.483 151.324 152.982 151.575L125.977 167.171C125.089 167.681 125.089 168.512 125.977 169.029Z" fill="#EBEBEB"/>
<path d="M44.8346 168.638C43.9122 163.363 43.2904 153.455 37.2464 145.098C32.8654 139.047 25.9621 133.625 20.6867 135.197C15.7956 136.657 16.6481 144.448 22.3566 148.899C28.0652 153.35 35.4367 159.603 38.7906 171.048L43.7376 179.112L44.8346 168.638Z" fill="#137EE0"/>
<g opacity="0.1">
<path opacity="0.1" d="M44.8346 168.638C43.9122 163.363 43.2904 153.455 37.2464 145.098C32.8654 139.047 25.9621 133.625 20.6867 135.197C15.7956 136.657 16.6481 144.448 22.3566 148.899C28.0652 153.35 35.4367 159.603 38.7906 171.048L43.7376 179.112L44.8346 168.638Z" fill="black"/>
</g>
<path d="M43.6749 172.662C43.5843 172.66 43.4976 172.626 43.4298 172.566C43.362 172.506 43.3177 172.424 43.3045 172.334C41.3202 157.221 34.284 145.608 22.9508 138.746C22.9089 138.721 22.8724 138.688 22.8434 138.649C22.8144 138.61 22.7935 138.565 22.7818 138.518C22.7701 138.47 22.7679 138.421 22.7753 138.373C22.7827 138.324 22.7996 138.278 22.825 138.236C22.8783 138.153 22.9619 138.093 23.0582 138.07C23.1546 138.046 23.2563 138.061 23.342 138.111C34.871 145.091 42.0259 156.878 44.0452 172.25C44.0521 172.299 44.0492 172.349 44.0367 172.396C44.0242 172.444 44.0023 172.488 43.9724 172.527C43.9425 172.566 43.9051 172.599 43.8624 172.623C43.8197 172.648 43.7726 172.663 43.7238 172.669L43.6749 172.662Z" fill="white"/>
<path d="M43.2136 179.985C40.9024 182.35 38.0114 184.068 34.8289 184.967C29.302 186.588 26.4442 184.226 26.4442 184.226C26.4442 184.226 27.9674 178.672 30.9649 176.778C27.6267 178.001 24.5182 179.777 21.7698 182.032C21.7698 182.032 18.346 182.535 16.2988 177.477C16.2988 177.477 17.9198 174.06 24.5087 171.475C24.5087 171.475 20.2256 170.972 14.4541 173.27C14.0279 173.508 11.233 166.982 10.2618 163.949C9.29057 160.917 10.5343 160.77 12.889 159.799C15.2437 158.828 23.4677 157.347 25.1655 158.485C26.8634 159.624 28.2329 164.075 28.2329 164.075C28.2329 164.075 29.3579 161.28 28.7011 159.03C30.3372 158.321 32.151 158.128 33.8996 158.478C36.7574 159.072 37.3373 160.931 37.9801 162.831C38.65 164.786 38.8884 166.862 38.6788 168.917C38.6788 168.917 40.1392 165.333 39.161 162.154C41.0239 162.911 42.6535 164.148 43.8843 165.738C45.694 168.309 46.246 175.464 43.2136 179.985Z" fill="#137EE0"/>
<path d="M43.2136 180.362C43.1517 180.361 43.0909 180.346 43.0362 180.316C42.9815 180.287 42.9346 180.246 42.8992 180.195C37.1487 171.377 18.898 162.65 12.7213 162.266C12.6225 162.258 12.5304 162.213 12.465 162.138C12.3996 162.063 12.3662 161.966 12.372 161.867C12.3746 161.818 12.3871 161.77 12.4087 161.725C12.4302 161.681 12.4605 161.641 12.4976 161.609C12.5347 161.576 12.5779 161.551 12.6247 161.536C12.6716 161.52 12.721 161.514 12.7702 161.518C19.0588 161.916 37.6657 170.811 43.514 179.782C43.5499 179.839 43.5702 179.904 43.5729 179.97C43.5755 180.037 43.5605 180.103 43.5292 180.162C43.498 180.221 43.4517 180.271 43.395 180.306C43.3383 180.341 43.2733 180.361 43.2066 180.362H43.2136Z" fill="white"/>
<path d="M129.569 6.76477V139.843L126.872 141.402V8.32292L129.569 6.76477Z" fill="#37474F"/>
<path d="M126.872 8.32294V141.402L121.512 138.306V5.23459L126.872 8.32294Z" fill="#263238"/>
<path d="M258.217 214.153L255.52 215.697V82.6251L258.21 81.0739L258.217 214.153Z" fill="#37474F"/>
<path d="M255.52 82.6251V215.697L250.161 212.608V79.5298L255.52 82.6251Z" fill="#263238"/>
<path d="M256.913 75.6309L256.836 75.589L128.327 1.39858C125.238 -0.460023 116.749 1.81781 106.736 7.60323L92.1258 16.0438C79.5069 23.3385 69.2776 33.4001 69.2776 38.5287V41.624L197.919 115.898L258.226 81.0739V77.9786C258.251 77.5032 258.141 77.0304 257.908 76.615C257.676 76.1995 257.331 75.8584 256.913 75.6309Z" fill="#137EE0"/>
<path opacity="0.4" d="M256.834 75.5901C253.64 73.8783 245.235 76.191 235.355 81.8786L220.766 90.3122C208.14 97.5929 197.903 107.661 197.903 112.79L71.9376 40.074L69.2615 38.5299C69.2615 33.4012 79.4908 23.3396 92.1097 16.045L106.713 7.61837C116.726 1.83295 125.215 -0.444886 128.304 1.41372L256.834 75.5901Z" fill="white"/>
<path opacity="0.1" d="M197.903 112.803V115.891L69.2615 41.6241V38.5287L197.903 112.803Z" fill="black"/>
<path d="M174.133 172.285C174.462 172.287 174.786 172.2 175.069 172.034L195.395 160.302C196.491 159.673 197.404 158.768 198.041 157.677C198.679 156.586 199.019 155.347 199.029 154.083V130.592C199.029 130.092 198.83 129.612 198.476 129.258C198.122 128.905 197.642 128.706 197.142 128.706C196.642 128.706 196.162 128.905 195.808 129.258C195.454 129.612 195.256 130.092 195.256 130.592V154.083C195.255 154.686 195.096 155.277 194.794 155.799C194.492 156.32 194.059 156.752 193.537 157.053L173.176 168.757C172.828 168.97 172.56 169.29 172.409 169.669C172.259 170.048 172.236 170.466 172.343 170.859C172.45 171.253 172.682 171.601 173.003 171.852C173.324 172.102 173.719 172.242 174.126 172.25L174.133 172.285Z" fill="#263238"/>
<path d="M215.624 195.713C215.954 195.712 216.279 195.625 216.567 195.462L236.886 183.723C237.98 183.09 238.889 182.18 239.522 181.085C240.155 179.99 240.489 178.748 240.491 177.484V154.014C240.491 153.513 240.292 153.033 239.939 152.68C239.585 152.326 239.105 152.127 238.605 152.127C238.104 152.127 237.624 152.326 237.271 152.68C236.917 153.033 236.718 153.513 236.718 154.014V177.484C236.717 178.086 236.558 178.677 236.256 179.199C235.955 179.72 235.521 180.153 234.999 180.453L214.68 192.192C214.333 192.405 214.065 192.724 213.914 193.103C213.764 193.481 213.74 193.898 213.846 194.291C213.952 194.684 214.183 195.032 214.503 195.284C214.823 195.535 215.216 195.676 215.624 195.685V195.713Z" fill="#263238"/>
<path d="M134.048 148.689C134.379 148.689 134.705 148.599 134.991 148.431L155.317 136.699C156.41 136.065 157.318 135.155 157.949 134.06C158.58 132.965 158.914 131.724 158.915 130.46V106.99C158.915 106.489 158.716 106.009 158.363 105.656C158.009 105.302 157.529 105.103 157.029 105.103C156.528 105.103 156.048 105.302 155.695 105.656C155.341 106.009 155.142 106.489 155.142 106.99V130.46C155.141 131.061 154.983 131.652 154.683 132.173C154.382 132.694 153.95 133.127 153.43 133.429L133.104 145.168C132.757 145.381 132.489 145.7 132.338 146.079C132.188 146.457 132.164 146.874 132.27 147.267C132.376 147.66 132.607 148.008 132.927 148.26C133.248 148.511 133.641 148.652 134.048 148.661V148.689Z" fill="#263238"/>
<path d="M212.102 193.373V215.096C212.12 215.284 212.188 215.464 212.298 215.618C212.409 215.771 212.558 215.892 212.731 215.969C213.201 216.207 213.72 216.331 214.247 216.331C214.774 216.331 215.293 216.207 215.763 215.969C215.936 215.892 216.085 215.771 216.195 215.618C216.306 215.464 216.374 215.284 216.392 215.096V193.373H212.102Z" fill="#263238"/>
<path d="M230.031 183.164V204.881C230.048 205.07 230.115 205.251 230.226 205.406C230.336 205.561 230.486 205.683 230.66 205.761C231.13 205.999 231.649 206.122 232.176 206.122C232.703 206.122 233.222 205.999 233.692 205.761C233.864 205.682 234.012 205.559 234.121 205.404C234.231 205.25 234.297 205.069 234.314 204.881V183.164H230.031Z" fill="#263238"/>
<path d="M130.617 146.328V168.058C130.633 168.247 130.701 168.427 130.811 168.581C130.922 168.734 131.072 168.856 131.246 168.931C131.713 169.172 132.232 169.298 132.758 169.298C133.285 169.298 133.803 169.172 134.271 168.931C134.445 168.856 134.595 168.734 134.705 168.581C134.816 168.427 134.883 168.247 134.9 168.058V146.328H130.617Z" fill="#263238"/>
<path d="M148.546 136.112V157.836C148.563 158.023 148.629 158.203 148.739 158.357C148.848 158.51 148.996 158.632 149.168 158.709C149.638 158.947 150.157 159.07 150.684 159.07C151.211 159.07 151.73 158.947 152.2 158.709C152.373 158.632 152.522 158.511 152.633 158.357C152.743 158.204 152.811 158.024 152.829 157.836V136.112H148.546Z" fill="#263238"/>
<path d="M244.69 159.338L245.068 159.121C245.386 158.915 245.65 158.637 245.84 158.309C246.029 157.981 246.138 157.613 246.158 157.235V153.853C246.136 153.475 246.027 153.108 245.837 152.78C245.648 152.452 245.384 152.174 245.068 151.966L155.484 100.282C155.147 100.109 154.773 100.02 154.394 100.02C154.016 100.02 153.642 100.109 153.304 100.282L152.927 100.498C152.61 100.705 152.346 100.983 152.156 101.311C151.967 101.639 151.857 102.007 151.837 102.385V105.767C151.859 106.145 151.968 106.512 152.158 106.84C152.347 107.167 152.611 107.446 152.927 107.653L242.517 159.359C242.855 159.528 243.229 159.614 243.606 159.61C243.984 159.607 244.356 159.513 244.69 159.338Z" fill="#455A64"/>
<path d="M241.05 155.544L245.836 152.784C246.036 153.105 246.147 153.474 246.157 153.853V157.235C246.138 157.613 246.029 157.981 245.839 158.309C245.65 158.637 245.385 158.915 245.067 159.121L244.69 159.338C244.354 159.51 243.981 159.6 243.604 159.6C243.226 159.6 242.853 159.51 242.517 159.338L241.05 158.492V155.544Z" fill="#263238"/>
<path d="M242.517 153.441L152.913 101.721C152.312 101.372 151.823 101.651 151.823 102.35V105.732C151.845 106.11 151.954 106.477 152.144 106.805C152.333 107.133 152.597 107.411 152.913 107.618L242.503 159.324C243.104 159.673 243.586 159.394 243.586 158.695V155.313C243.566 154.94 243.459 154.576 243.273 154.251C243.087 153.926 242.829 153.648 242.517 153.441Z" fill="#37474F"/>
<path d="M244.69 169.686L245.068 169.469C245.384 169.262 245.648 168.983 245.837 168.656C246.027 168.328 246.136 167.961 246.158 167.583V164.201C246.138 163.823 246.029 163.455 245.84 163.127C245.65 162.799 245.386 162.52 245.068 162.314L155.484 110.609C155.146 110.44 154.773 110.352 154.394 110.352C154.016 110.352 153.643 110.44 153.304 110.609L152.927 110.826C152.611 111.033 152.347 111.311 152.158 111.639C151.968 111.967 151.859 112.334 151.837 112.712V116.094C151.857 116.472 151.966 116.84 152.155 117.168C152.345 117.496 152.609 117.774 152.927 117.98L242.517 169.686C242.855 169.855 243.227 169.943 243.604 169.943C243.981 169.943 244.353 169.855 244.69 169.686Z" fill="#455A64"/>
<path d="M241.05 165.892L245.836 163.097C246.035 163.421 246.146 163.792 246.157 164.173V167.555C246.136 167.933 246.026 168.3 245.837 168.628C245.648 168.956 245.384 169.234 245.067 169.441L244.69 169.658C244.353 169.827 243.981 169.915 243.604 169.915C243.226 169.915 242.854 169.827 242.517 169.658L241.05 168.813V165.892Z" fill="#263238"/>
<path d="M242.517 163.789L152.913 112.062C152.312 111.72 151.823 111.999 151.823 112.691V116.073C151.843 116.451 151.952 116.819 152.141 117.147C152.331 117.475 152.595 117.754 152.913 117.959L242.503 169.665C243.104 170.007 243.586 169.728 243.586 169.036V165.654C243.566 165.281 243.459 164.918 243.274 164.594C243.088 164.27 242.829 163.995 242.517 163.789Z" fill="#37474F"/>
<path d="M244.69 180.027L245.068 179.81C245.384 179.603 245.648 179.325 245.837 178.997C246.027 178.669 246.136 178.302 246.158 177.924V174.542C246.137 174.164 246.028 173.796 245.839 173.468C245.649 173.14 245.385 172.862 245.068 172.655L155.484 120.95C155.147 120.778 154.773 120.688 154.394 120.688C154.016 120.688 153.642 120.778 153.304 120.95L152.927 121.167C152.609 121.373 152.345 121.651 152.155 121.979C151.966 122.307 151.857 122.675 151.837 123.053V126.435C151.859 126.813 151.968 127.18 152.158 127.508C152.347 127.836 152.611 128.114 152.927 128.322L242.517 180.027C242.854 180.199 243.226 180.289 243.604 180.289C243.982 180.289 244.354 180.199 244.69 180.027Z" fill="#455A64"/>
<path d="M241.05 176.233L245.836 173.438C246.035 173.763 246.146 174.134 246.157 174.514V177.896C246.136 178.274 246.026 178.641 245.837 178.969C245.648 179.297 245.384 179.575 245.067 179.782L244.69 179.999C244.354 180.171 243.981 180.261 243.604 180.261C243.226 180.261 242.853 180.171 242.517 179.999L241.05 179.154V176.233Z" fill="#263238"/>
<path d="M242.517 174.13L152.913 122.41C152.312 122.061 151.823 122.34 151.823 123.039V126.421C151.845 126.799 151.954 127.166 152.144 127.494C152.333 127.822 152.597 128.1 152.913 128.308L242.503 180.013C243.104 180.362 243.586 180.076 243.586 179.384V176.002C243.567 175.628 243.46 175.264 243.274 174.939C243.089 174.614 242.83 174.337 242.517 174.13Z" fill="#37474F"/>
<path d="M241.05 186.288V186.721C241.03 187.099 240.921 187.467 240.732 187.795C240.542 188.123 240.278 188.401 239.96 188.607L237.032 190.298C236.695 190.471 236.321 190.56 235.942 190.56C235.563 190.56 235.19 190.471 234.852 190.298L145.269 138.593C144.952 138.386 144.687 138.108 144.498 137.78C144.309 137.452 144.199 137.084 144.179 136.706V136.273C144.2 135.895 144.31 135.528 144.499 135.2C144.689 134.872 144.952 134.594 145.269 134.386L148.197 132.696C148.534 132.523 148.908 132.433 149.287 132.433C149.666 132.433 150.039 132.523 150.377 132.696L239.96 184.401C240.277 184.608 240.54 184.887 240.729 185.215C240.919 185.542 241.029 185.91 241.05 186.288Z" fill="#37474F"/>
<path d="M235.942 185.03V190.564C236.322 190.57 236.697 190.478 237.032 190.298L239.96 188.607C240.278 188.401 240.542 188.123 240.732 187.795C240.921 187.467 241.03 187.099 241.05 186.721V186.288C241.028 185.91 240.919 185.542 240.729 185.215C240.54 184.887 240.276 184.608 239.96 184.401L238.492 183.556L235.942 185.03Z" fill="#263238"/>
<path d="M234.852 187.35L145.269 135.644C145.151 135.587 145.051 135.498 144.982 135.386C144.912 135.275 144.875 135.147 144.875 135.015C144.875 134.884 144.912 134.755 144.982 134.644C145.051 134.533 145.151 134.444 145.269 134.386L148.197 132.696C148.534 132.523 148.908 132.433 149.287 132.433C149.666 132.433 150.039 132.523 150.377 132.696L239.96 184.401C240.078 184.458 240.178 184.548 240.248 184.659C240.317 184.77 240.354 184.899 240.354 185.03C240.354 185.161 240.317 185.29 240.248 185.401C240.178 185.512 240.078 185.602 239.96 185.659L237.032 187.35C236.695 187.522 236.321 187.612 235.942 187.612C235.563 187.612 235.19 187.522 234.852 187.35Z" fill="#455A64"/>
<path d="M232.113 191.451V191.884C232.092 192.262 231.982 192.63 231.793 192.957C231.604 193.285 231.34 193.564 231.023 193.771L228.096 195.462C227.758 195.634 227.385 195.724 227.006 195.724C226.627 195.724 226.253 195.634 225.916 195.462L136.325 143.756C136.01 143.549 135.747 143.27 135.559 142.942C135.371 142.614 135.262 142.247 135.242 141.87V141.437C135.261 141.059 135.369 140.691 135.557 140.363C135.745 140.035 136.009 139.756 136.325 139.55L139.26 137.859C139.596 137.687 139.969 137.597 140.347 137.597C140.724 137.597 141.097 137.687 141.433 137.859L231.023 189.565C231.341 189.771 231.605 190.049 231.794 190.377C231.984 190.705 232.093 191.073 232.113 191.451Z" fill="#37474F"/>
<path d="M226.978 190.193V195.72C227.357 195.729 227.732 195.64 228.068 195.462L230.995 193.771C231.312 193.564 231.576 193.285 231.765 192.957C231.954 192.63 232.064 192.262 232.085 191.884V191.451C232.065 191.073 231.956 190.705 231.766 190.377C231.577 190.049 231.313 189.771 230.995 189.565L229.528 188.719L226.978 190.193Z" fill="#263238"/>
<path d="M225.916 192.513L136.325 140.808C136.207 140.75 136.108 140.661 136.038 140.55C135.968 140.439 135.931 140.31 135.931 140.179C135.931 140.048 135.968 139.919 136.038 139.808C136.108 139.697 136.207 139.607 136.325 139.55L139.26 137.859C139.596 137.687 139.969 137.597 140.346 137.597C140.724 137.597 141.097 137.687 141.433 137.859L231.023 189.565C231.141 189.622 231.241 189.711 231.311 189.822C231.38 189.934 231.417 190.062 231.417 190.193C231.417 190.325 231.38 190.453 231.311 190.565C231.241 190.676 231.141 190.765 231.023 190.822L228.096 192.513C227.758 192.686 227.385 192.775 227.006 192.775C226.627 192.775 226.253 192.686 225.916 192.513Z" fill="#455A64"/>
<path d="M223.169 196.608V197.048C223.15 197.424 223.042 197.791 222.854 198.118C222.665 198.444 222.402 198.722 222.086 198.927L219.152 200.625C218.815 200.794 218.443 200.882 218.065 200.882C217.688 200.882 217.316 200.794 216.979 200.625L127.389 148.92C127.071 148.714 126.807 148.435 126.618 148.107C126.428 147.779 126.319 147.411 126.299 147.033V146.6C126.32 146.222 126.43 145.855 126.619 145.527C126.808 145.199 127.072 144.921 127.389 144.714L130.323 143.023C130.659 142.85 131.032 142.761 131.41 142.761C131.788 142.761 132.16 142.85 132.496 143.023L222.086 194.728C222.401 194.935 222.663 195.213 222.851 195.539C223.039 195.866 223.148 196.232 223.169 196.608Z" fill="#37474F"/>
<path d="M218.062 195.35V200.898C218.441 200.903 218.816 200.815 219.152 200.639L222.087 198.941C222.403 198.736 222.666 198.458 222.854 198.132C223.042 197.805 223.15 197.438 223.17 197.062V196.622C223.15 196.244 223.041 195.877 222.853 195.549C222.665 195.222 222.402 194.943 222.087 194.735L220.619 193.911L218.062 195.35Z" fill="#263238"/>
<path d="M216.979 197.677L127.389 145.971C127.27 145.914 127.171 145.825 127.101 145.714C127.031 145.602 126.994 145.474 126.994 145.342C126.994 145.211 127.031 145.083 127.101 144.971C127.171 144.86 127.27 144.771 127.389 144.714L130.323 143.023C130.659 142.85 131.032 142.761 131.41 142.761C131.788 142.761 132.16 142.85 132.496 143.023L222.086 194.728C222.205 194.785 222.304 194.875 222.374 194.986C222.444 195.097 222.481 195.226 222.481 195.357C222.481 195.488 222.444 195.617 222.374 195.728C222.304 195.839 222.205 195.929 222.086 195.986L219.152 197.684C218.814 197.852 218.442 197.939 218.064 197.937C217.687 197.936 217.315 197.847 216.979 197.677Z" fill="#455A64"/>
<path d="M238.604 153.203C238.808 153.337 238.977 153.517 239.098 153.728C239.22 153.939 239.29 154.176 239.303 154.419C239.303 154.866 238.989 155.048 238.604 154.824C238.401 154.69 238.232 154.51 238.111 154.299C237.989 154.088 237.919 153.851 237.906 153.608C237.906 153.161 238.22 152.979 238.604 153.203Z" fill="#263238"/>
<path d="M238.604 163.53C238.808 163.663 238.977 163.841 239.098 164.051C239.22 164.261 239.29 164.497 239.303 164.739C239.303 165.186 238.989 165.368 238.604 165.144C238.401 165.01 238.232 164.831 238.111 164.619C237.989 164.408 237.919 164.172 237.906 163.928C237.906 163.481 238.22 163.307 238.604 163.53Z" fill="#263238"/>
<path d="M238.604 173.85C238.808 173.984 238.977 174.164 239.098 174.375C239.22 174.586 239.29 174.823 239.303 175.066C239.303 175.506 238.989 175.688 238.604 175.464C238.401 175.332 238.232 175.153 238.111 174.943C237.989 174.733 237.919 174.498 237.906 174.256C237.906 173.808 238.22 173.648 238.604 173.85Z" fill="#263238"/>
<path d="M157.042 106.207C157.246 106.339 157.416 106.517 157.537 106.727C157.659 106.937 157.729 107.173 157.741 107.416C157.741 107.863 157.427 108.045 157.042 107.821C156.839 107.689 156.67 107.51 156.548 107.3C156.427 107.09 156.357 106.854 156.344 106.612C156.344 106.165 156.658 105.983 157.042 106.207Z" fill="#263238"/>
<path d="M157.042 116.527C157.246 116.66 157.416 116.84 157.538 117.051C157.659 117.262 157.729 117.499 157.741 117.743C157.741 118.19 157.427 118.372 157.042 118.148C156.839 118.014 156.67 117.834 156.548 117.623C156.427 117.412 156.357 117.176 156.344 116.932C156.344 116.485 156.658 116.304 157.042 116.527Z" fill="#263238"/>
<path d="M157.042 126.833C157.246 126.966 157.416 127.146 157.538 127.357C157.659 127.569 157.729 127.806 157.741 128.049C157.741 128.496 157.427 128.678 157.042 128.454C156.839 128.32 156.67 128.141 156.548 127.929C156.427 127.718 156.357 127.482 156.344 127.239C156.344 126.833 156.658 126.624 157.042 126.833Z" fill="#263238"/>
<path d="M232.791 182.361C233.126 182.563 233.133 182.878 232.791 183.06C232.599 183.153 232.389 183.202 232.176 183.202C231.963 183.202 231.752 183.153 231.561 183.06C231.219 182.864 231.219 182.549 231.561 182.361C231.752 182.267 231.963 182.218 232.176 182.218C232.389 182.218 232.599 182.267 232.791 182.361Z" fill="#263238"/>
<path d="M223.826 187.566C223.896 187.595 223.955 187.643 223.997 187.705C224.039 187.767 224.061 187.841 224.061 187.916C224.061 187.991 224.039 188.064 223.997 188.126C223.955 188.188 223.896 188.237 223.826 188.265C223.635 188.359 223.425 188.408 223.211 188.408C222.998 188.408 222.788 188.359 222.597 188.265C222.527 188.237 222.468 188.188 222.426 188.126C222.384 188.064 222.362 187.991 222.362 187.916C222.362 187.841 222.384 187.767 222.426 187.705C222.468 187.643 222.527 187.595 222.597 187.566C222.788 187.472 222.998 187.424 223.211 187.424C223.425 187.424 223.635 187.472 223.826 187.566Z" fill="#263238"/>
<path d="M214.862 192.772C215.204 192.967 215.204 193.282 214.862 193.47C214.672 193.57 214.461 193.622 214.247 193.622C214.033 193.622 213.822 193.57 213.632 193.47C213.29 193.275 213.29 192.96 213.632 192.772C213.824 192.678 214.034 192.629 214.247 192.629C214.46 192.629 214.671 192.678 214.862 192.772Z" fill="#263238"/>
<path d="M151.299 135.344C151.368 135.372 151.428 135.42 151.47 135.483C151.511 135.545 151.534 135.618 151.534 135.693C151.534 135.768 151.511 135.841 151.47 135.904C151.428 135.966 151.368 136.014 151.299 136.042C151.108 136.136 150.897 136.185 150.684 136.185C150.471 136.185 150.261 136.136 150.069 136.042C150 136.014 149.94 135.966 149.899 135.904C149.857 135.841 149.834 135.768 149.834 135.693C149.834 135.618 149.857 135.545 149.899 135.483C149.94 135.42 150 135.372 150.069 135.344C150.261 135.25 150.471 135.201 150.684 135.201C150.897 135.201 151.108 135.25 151.299 135.344Z" fill="#263238"/>
<path d="M142.334 140.542C142.677 140.745 142.677 141.059 142.334 141.241C142.142 141.336 141.93 141.385 141.716 141.385C141.502 141.385 141.29 141.336 141.098 141.241C140.755 141.045 140.755 140.731 141.098 140.542C141.29 140.447 141.502 140.398 141.716 140.398C141.93 140.398 142.142 140.447 142.334 140.542Z" fill="#263238"/>
<path d="M133.349 145.748C133.418 145.776 133.478 145.824 133.519 145.887C133.561 145.949 133.584 146.022 133.584 146.097C133.584 146.172 133.561 146.245 133.519 146.308C133.478 146.37 133.418 146.418 133.349 146.446C133.156 146.541 132.945 146.591 132.73 146.591C132.516 146.591 132.304 146.541 132.112 146.446C132.043 146.418 131.983 146.37 131.941 146.308C131.9 146.245 131.877 146.172 131.877 146.097C131.877 146.022 131.9 145.949 131.941 145.887C131.983 145.824 132.043 145.776 132.112 145.748C132.304 145.653 132.516 145.603 132.73 145.603C132.945 145.603 133.156 145.653 133.349 145.748Z" fill="#263238"/>
<path d="M197.114 129.81C197.318 129.942 197.487 130.121 197.608 130.331C197.73 130.541 197.8 130.776 197.813 131.019C197.813 131.466 197.499 131.647 197.114 131.424C196.91 131.291 196.74 131.111 196.619 130.9C196.498 130.689 196.428 130.452 196.416 130.208C196.409 129.761 196.723 129.586 197.114 129.81Z" fill="#263238"/>
<path d="M197.114 140.109C197.317 140.242 197.485 140.421 197.607 140.631C197.728 140.841 197.799 141.076 197.813 141.318C197.813 141.765 197.499 141.947 197.114 141.723C196.91 141.591 196.741 141.413 196.619 141.203C196.498 140.993 196.428 140.757 196.416 140.514C196.409 140.109 196.723 139.906 197.114 140.109Z" fill="#263238"/>
<path d="M197.114 150.45C197.318 150.584 197.487 150.764 197.608 150.975C197.73 151.186 197.8 151.423 197.813 151.666C197.813 152.113 197.499 152.295 197.114 152.071C196.91 151.938 196.74 151.758 196.619 151.547C196.498 151.336 196.428 151.099 196.416 150.855C196.409 150.408 196.723 150.226 197.114 150.45Z" fill="#263238"/>
<path d="M191.343 158.975C191.415 159 191.478 159.047 191.522 159.11C191.567 159.172 191.59 159.247 191.59 159.324C191.59 159.401 191.567 159.475 191.522 159.538C191.478 159.601 191.415 159.648 191.343 159.673C191.153 159.773 190.942 159.825 190.728 159.825C190.514 159.825 190.303 159.773 190.113 159.673C189.771 159.478 189.771 159.163 190.113 158.975C190.305 158.881 190.515 158.832 190.728 158.832C190.941 158.832 191.152 158.881 191.343 158.975Z" fill="#263238"/>
<path d="M182.406 164.145C182.476 164.173 182.535 164.222 182.577 164.284C182.619 164.346 182.641 164.419 182.641 164.494C182.641 164.569 182.619 164.643 182.577 164.705C182.535 164.767 182.476 164.815 182.406 164.844C182.215 164.938 182.004 164.986 181.791 164.986C181.578 164.986 181.368 164.938 181.176 164.844C181.107 164.815 181.048 164.767 181.006 164.705C180.964 164.643 180.942 164.569 180.942 164.494C180.942 164.419 180.964 164.346 181.006 164.284C181.048 164.222 181.107 164.173 181.176 164.145C181.368 164.051 181.578 164.003 181.791 164.003C182.004 164.003 182.215 164.051 182.406 164.145Z" fill="#263238"/>
<path d="M173.441 169.351C173.511 169.379 173.57 169.427 173.612 169.489C173.654 169.552 173.676 169.625 173.676 169.7C173.676 169.775 173.654 169.848 173.612 169.91C173.57 169.973 173.511 170.021 173.441 170.049C173.25 170.143 173.04 170.192 172.826 170.192C172.613 170.192 172.403 170.143 172.212 170.049C172.142 170.021 172.083 169.973 172.041 169.91C171.999 169.848 171.977 169.775 171.977 169.7C171.977 169.625 171.999 169.552 172.041 169.489C172.083 169.427 172.142 169.379 172.212 169.351C172.403 169.257 172.613 169.208 172.826 169.208C173.04 169.208 173.25 169.257 173.441 169.351Z" fill="#263238"/>
<path d="M45.8335 49.0375V182.025L43.1365 180.467V47.4514L45.8335 49.0375Z" fill="#263238"/>
<path d="M50.1449 46.5221V179.538L45.8337 182.025V49.0375L50.1449 46.5221Z" fill="#37474F"/>
<path d="M50.1447 46.5221L45.8335 49.0375L43.1365 47.4514L47.4476 44.964L50.1447 46.5221Z" fill="#455A64"/>
<path d="M35.2899 62.453L59.2841 48.5764C60.1714 48.0663 60.8911 48.4786 60.8911 49.5057V84.2112C60.8623 84.7708 60.7017 85.3156 60.4225 85.8012C60.1432 86.2869 59.7531 86.6998 59.2841 87.0061L35.2899 100.848C34.4025 101.365 33.6829 100.946 33.6829 99.9185V65.2409C33.7133 64.6827 33.8746 64.1395 34.1538 63.6552C34.433 63.1709 34.8222 62.7591 35.2899 62.453Z" fill="#137EE0"/>
<path d="M57.2785 64.9614L56.1885 65.5902C56.144 65.6195 56.1069 65.6587 56.0802 65.7048C56.0535 65.7509 56.038 65.8026 56.0348 65.8558V68.3851V69.538L55.5596 69.8035V61.6774C55.5596 60.245 54.5535 59.6651 53.3167 60.3778L41.2498 67.365C40.6026 67.7922 40.0641 68.3646 39.6772 69.0367C39.2902 69.7087 39.0655 70.4617 39.0209 71.2359V79.3201L38.5457 79.5996V78.4747V75.9453C38.5457 75.8475 38.4828 75.8056 38.399 75.8545L37.309 76.4833C37.2645 76.5126 37.2274 76.5518 37.2007 76.5979C37.174 76.644 37.1585 76.6957 37.1553 76.7488V79.0686C37.1553 79.425 37.4068 79.5717 37.7142 79.39L38.0077 79.2223V79.921C38.0077 80.2634 38.2453 80.3962 38.5387 80.2285L39.0209 79.949V85.6645H38.958C38.7814 85.7808 38.6344 85.9368 38.5289 86.12C38.4233 86.3032 38.3621 86.5085 38.3501 86.7196V86.9222C38.3501 87.8516 38.9999 88.2289 39.8034 87.7607L40.1109 87.586V89.1023C40.1109 89.3538 40.2856 89.4516 40.5022 89.3259L42.3887 88.2358C42.5066 88.1602 42.6045 88.0572 42.6738 87.9355C42.7432 87.8138 42.782 87.6771 42.787 87.5371V86.0558L51.8145 80.8434V82.3247C51.8145 82.5762 51.9892 82.674 52.2058 82.5482L54.0923 81.4582C54.2102 81.3826 54.3081 81.2796 54.3774 81.1579C54.4468 81.0362 54.4856 80.8995 54.4906 80.7595V79.3201L54.791 79.1455C55.2147 78.869 55.5671 78.4965 55.8196 78.0582C56.0722 77.6199 56.2177 77.1282 56.2444 76.6231V76.4204C56.2444 76.0362 55.9789 75.8754 55.6435 76.0711L55.5736 76.106V70.3905L56.0557 70.111C56.2101 70.0111 56.3387 69.876 56.431 69.717C56.5232 69.5579 56.5766 69.3793 56.5867 69.1956V68.4969L56.8802 68.3292C57.0426 68.2205 57.1777 68.0755 57.2747 67.9058C57.3716 67.7361 57.428 67.5462 57.4392 67.351V65.0313C57.4252 64.9544 57.3623 64.9125 57.2785 64.9614ZM54.9168 72.4377C54.897 72.762 54.8022 73.0772 54.6397 73.3586C54.4772 73.6399 54.2515 73.8796 53.9805 74.0588C53.4635 74.3592 53.0442 74.1147 53.0442 73.5207C53.0629 73.1953 53.1573 72.8786 53.3198 72.596C53.4824 72.3134 53.7086 72.0726 53.9805 71.8927C54.4976 71.5923 54.9168 71.8368 54.9168 72.4377ZM53.6312 61.4818C53.9526 61.2931 54.2181 61.4468 54.2181 61.8171C54.2058 62.02 54.1463 62.2173 54.0445 62.3931C53.9426 62.569 53.8011 62.7187 53.6312 62.8303C53.3097 63.0189 53.0442 62.8303 53.0442 62.4949C53.0549 62.2916 53.1136 62.0938 53.2157 61.9176C53.3177 61.7415 53.4601 61.5921 53.6312 61.4818ZM54.2181 65.5902V69.538C54.2125 69.6329 54.1849 69.7252 54.1377 69.8076C54.0904 69.89 54.0246 69.9604 53.9456 70.0132L47.5662 73.7304V67.372L52.4573 64.5771C53.4215 63.9902 54.2181 64.4513 54.2181 65.5902ZM52.2966 76.1899L42.228 82.0032V81.5351L52.2966 75.7217V76.1899ZM52.2966 73.4579V74.0029L42.228 79.8162V79.2712L52.2966 73.4579ZM52.2966 75.1278L42.228 80.9412V80.473L52.2966 74.6317V75.1278ZM42.773 67.8541C42.7748 67.8078 42.7879 67.7626 42.811 67.7225C42.8341 67.6823 42.8666 67.6484 42.9058 67.6235L51.6608 62.5508C51.7376 62.5089 51.8005 62.5508 51.8005 62.6277V63.7736C51.7973 63.8204 51.783 63.8657 51.7587 63.9059C51.7344 63.946 51.7008 63.9797 51.6608 64.0041L42.9058 69.0629C42.8289 69.1048 42.773 69.0629 42.773 68.986V67.8541ZM40.9354 68.8393C41.2568 68.6506 41.5223 68.8044 41.5223 69.1747C41.5111 69.3778 41.4521 69.5755 41.3501 69.7515C41.2481 69.9276 41.106 70.0771 40.9354 70.1878C40.6139 70.3765 40.3484 70.2228 40.3484 69.8524C40.3596 69.6493 40.4186 69.4517 40.5206 69.2756C40.6226 69.0996 40.7647 68.9501 40.9354 68.8393ZM40.3484 73.6256C40.3823 73.0071 40.5613 72.4053 40.8708 71.8688C41.1803 71.3323 41.6117 70.8761 42.1302 70.5372L47.0212 67.7423V74.0797L40.6489 77.762C40.4952 77.8458 40.3694 77.762 40.3694 77.6013L40.3484 73.6256ZM40.586 79.6555C41.1031 79.3551 41.5293 79.5996 41.5293 80.1935C41.5098 80.5196 41.4143 80.8367 41.2506 81.1193C41.0868 81.402 40.8592 81.6425 40.586 81.8216C40.0689 82.122 39.6497 81.8775 39.6497 81.2766C39.6652 80.9475 39.7581 80.6266 39.9207 80.3401C40.0834 80.0536 40.3113 79.8095 40.586 79.6276V79.6555ZM43.0874 82.7159C42.759 82.9046 42.4726 82.8417 42.3398 82.6041L52.2337 76.8886C52.1016 77.2914 51.8352 77.6367 51.4791 77.8668L43.0874 82.7159Z" fill="white"/>
<path d="M189.107 169.763C190.162 169.49 195.787 166.269 196.359 165.899C196.932 165.529 198.064 164.704 198.064 163.321C198.064 162.084 197.939 150.499 196.932 144.902C196.6 143.16 195.915 141.505 194.92 140.036C193.926 138.568 192.642 137.319 191.147 136.364C187.653 134.198 184.16 132.626 181.162 133.855C178.165 135.085 175.496 137.349 174.329 140.088C173.162 142.827 172.358 148.305 172.281 150.422C172.205 152.539 172.281 159.806 172.281 160.449C172.281 161.092 172.393 161.937 175.873 164.089C179.353 166.241 184.146 168.827 185.655 169.49C186.749 169.939 187.956 170.034 189.107 169.763Z" fill="#137EE0"/>
<path d="M189.945 137.873C190.266 138.055 191.196 137.601 191.342 137.37C191.531 136.237 191.35 135.073 190.825 134.051C190.127 132.954 185.809 130.935 184.74 131.082C184.339 131.147 183.957 131.293 183.616 131.512C183.275 131.731 182.982 132.017 182.755 132.353C182.622 132.633 182.476 134.484 182.755 134.862C183.035 135.239 184.02 134.659 184.104 134.498C184.188 134.338 183.782 132.982 184.481 132.703C185.18 132.423 188.121 133.723 189.372 134.757C189.903 135.204 189.875 136.315 189.854 136.853C189.833 137.391 189.812 137.775 189.945 137.873Z" fill="#137EE0"/>
<path opacity="0.1" d="M189.945 137.873C190.266 138.055 191.196 137.601 191.342 137.37C191.531 136.237 191.35 135.073 190.825 134.051C190.127 132.954 185.809 130.935 184.74 131.082C184.339 131.147 183.957 131.293 183.616 131.512C183.275 131.731 182.982 132.017 182.755 132.353C182.622 132.633 182.476 134.484 182.755 134.862C183.035 135.239 184.02 134.659 184.104 134.498C184.188 134.338 183.782 132.982 184.481 132.703C185.18 132.423 188.121 133.723 189.372 134.757C189.903 135.204 189.875 136.315 189.854 136.853C189.833 137.391 189.812 137.775 189.945 137.873Z" fill="black"/>
<path opacity="0.1" d="M190.847 150.925C190.225 144.902 189.107 141.388 183.216 138.761C177.326 136.133 175.041 138.376 174.21 140.382C173.106 143.176 172.358 148.375 172.281 150.422C172.205 152.469 172.281 159.806 172.281 160.449C172.281 161.092 172.393 161.937 175.873 164.089C179.353 166.241 184.146 168.827 185.655 169.49C186.762 169.948 187.985 170.043 189.149 169.763C189.388 169.69 189.622 169.599 189.847 169.49C191.622 167.15 191.413 156.417 190.847 150.925Z" fill="black"/>
<path opacity="0.1" d="M177.117 136.413C178.654 135.511 181.176 134.918 184.879 136.567C191.503 139.515 193.187 143.211 193.851 149.682C193.977 150.869 194.152 152.281 194.228 153.804L194.773 153.476C194.697 151.834 194.543 150.429 194.403 149.158C193.704 142.624 191.713 139.019 185.383 136.196C181.889 134.638 179.576 134.848 178.053 135.609C177.727 135.861 177.415 136.129 177.117 136.413Z" fill="black"/>
<path d="M176.886 136.615C178.423 135.714 180.945 135.12 184.649 136.769C191.272 139.718 192.956 143.414 193.62 149.884C193.746 151.072 193.921 152.483 193.997 154.007L194.542 153.678C194.466 152.036 194.312 150.632 194.172 149.36C193.473 142.827 191.482 139.222 185.152 136.399C181.658 134.841 179.282 135.099 177.766 135.868C177.458 136.099 177.164 136.348 176.886 136.615Z" fill="white"/>
<path d="M179.031 142.303L181.03 141.157C181.129 141.103 181.246 141.09 181.355 141.12C181.465 141.15 181.558 141.221 181.617 141.318L183.671 144.888C183.699 144.937 183.718 144.991 183.725 145.048C183.733 145.104 183.729 145.161 183.714 145.216C183.699 145.27 183.673 145.321 183.638 145.366C183.603 145.41 183.56 145.448 183.51 145.475L181.561 146.628C181.462 146.684 181.346 146.7 181.236 146.671C181.126 146.642 181.032 146.572 180.974 146.474L178.878 142.883C178.849 142.835 178.83 142.782 178.822 142.726C178.815 142.671 178.818 142.615 178.832 142.561C178.847 142.507 178.872 142.456 178.906 142.412C178.94 142.367 178.983 142.331 179.031 142.303Z" fill="#37474F"/>
<path d="M181.176 146.223L179.206 142.82C179.191 142.796 179.181 142.769 179.177 142.741C179.172 142.713 179.174 142.684 179.181 142.657C179.188 142.629 179.201 142.604 179.218 142.581C179.236 142.559 179.258 142.54 179.282 142.527L181.099 141.493C181.149 141.466 181.206 141.459 181.261 141.474C181.315 141.488 181.362 141.522 181.393 141.569L183.335 144.958C183.35 144.982 183.36 145.009 183.364 145.037C183.368 145.065 183.367 145.094 183.359 145.121C183.352 145.149 183.34 145.174 183.322 145.197C183.305 145.219 183.283 145.238 183.258 145.252L181.469 146.3C181.42 146.326 181.362 146.333 181.308 146.319C181.253 146.304 181.206 146.27 181.176 146.223Z" fill="#455A64"/>
<path d="M180.75 144.595C180.698 144.563 180.653 144.519 180.621 144.467C180.588 144.415 180.568 144.356 180.562 144.294V142.666C180.562 142.562 180.645 142.527 180.75 142.583C180.804 142.614 180.849 142.658 180.883 142.71C180.917 142.762 180.938 142.821 180.946 142.883V144.511C180.946 144.616 180.862 144.651 180.75 144.595Z" fill="#37474F"/>
<path d="M181.812 145.203C181.759 145.171 181.714 145.128 181.681 145.076C181.648 145.023 181.628 144.964 181.623 144.902V143.274C181.623 143.169 181.707 143.135 181.812 143.197C181.864 143.229 181.909 143.273 181.942 143.325C181.974 143.378 181.995 143.437 182.001 143.498V145.126C182.001 145.231 181.917 145.266 181.812 145.203Z" fill="#37474F"/>
<path d="M193.872 152.686C193.702 153.312 193.592 153.953 193.544 154.601C193.544 154.733 193.718 154.803 193.774 154.803C194.192 154.714 194.578 154.513 194.892 154.223C194.834 153.671 194.733 153.125 194.592 152.588L193.872 152.686Z" fill="#263238"/>
<path d="M194.194 152.854C194.579 152.854 194.892 152.541 194.892 152.155C194.892 151.769 194.579 151.456 194.194 151.456C193.808 151.456 193.495 151.769 193.495 152.155C193.495 152.541 193.808 152.854 194.194 152.854Z" fill="#263238"/>
<path opacity="0.1" d="M184.761 132.668C183.999 132.598 183.279 132.668 183.098 133.429C182.93 133.935 182.93 134.482 183.098 134.987C183.484 134.94 183.844 134.768 184.125 134.498C184.216 134.331 183.803 132.982 184.502 132.703C184.588 132.686 184.675 132.686 184.761 132.703V132.668Z" fill="black"/>
<path d="M192.544 157.577L196.611 155.208C196.72 155.148 196.843 155.121 196.968 155.129C197.092 155.138 197.21 155.182 197.31 155.257C198.141 156.001 198.693 157.007 198.875 158.108C199.469 160.686 199.308 164.096 198.644 164.487L194.242 167.052C193.585 167.443 192.649 166.626 192.412 166.353C191.964 165.773 192.083 159.673 192.544 157.577Z" fill="#137EE0"/>
<path opacity="0.1" d="M192.544 157.577C192.544 157.577 193.376 158.276 193.942 160.84C194.508 163.404 194.906 166.667 194.242 167.052C193.578 167.436 192.649 166.626 192.412 166.353C191.964 165.773 192.083 159.673 192.544 157.577Z" fill="black"/>
<path opacity="0.1" d="M197.121 155.642C197.61 155.886 198.427 156.536 198.791 158.283C198.853 158.521 198.848 158.771 198.775 159.006C198.702 159.24 198.565 159.45 198.379 159.61C198.043 159.848 196.52 160.575 195.584 161.141C194.759 161.637 194.333 160.98 194.151 160.575C193.851 159.876 193.585 159.282 193.355 158.849C193.183 158.375 192.914 157.941 192.565 157.577L196.485 155.677C196.581 155.621 196.688 155.589 196.799 155.582C196.909 155.576 197.02 155.597 197.121 155.642Z" fill="black"/>
<path d="M196.667 155.173C196.768 155.12 196.881 155.091 196.995 155.091C197.11 155.091 197.222 155.12 197.323 155.173C197.806 155.411 198.63 156.068 198.993 157.815C199.057 158.051 199.052 158.301 198.979 158.535C198.906 158.769 198.768 158.977 198.581 159.135C198.246 159.373 196.723 160.099 195.786 160.672C194.962 161.162 194.536 160.512 194.354 160.099C193.355 158.003 192.565 157.598 192.565 157.598L196.667 155.173Z" fill="#137EE0"/>
<path opacity="0.4" d="M196.667 155.173C196.768 155.12 196.881 155.091 196.995 155.091C197.11 155.091 197.222 155.12 197.323 155.173C197.806 155.411 198.63 156.068 198.993 157.815C199.057 158.051 199.052 158.301 198.979 158.535C198.906 158.769 198.768 158.977 198.581 159.135C198.246 159.373 196.723 160.099 195.786 160.672C194.962 161.162 194.536 160.512 194.354 160.099C193.355 158.003 192.565 157.598 192.565 157.598L196.667 155.173Z" fill="white"/>
<path d="M174.874 151.903L186.961 158.891V159.603L174.874 152.616V151.903Z" fill="white"/>
<path opacity="0.1" d="M174.874 153.035L186.961 160.016V159.603L174.874 152.616V153.035Z" fill="black"/>
<path d="M187.36 159.904C187.526 160.531 187.634 161.172 187.681 161.818C187.681 161.951 187.506 162.021 187.458 162.021C187.04 161.931 186.653 161.731 186.34 161.441C186.398 160.889 186.498 160.343 186.64 159.806L187.36 159.904Z" fill="#263238"/>
<path d="M187.038 160.092C187.424 160.092 187.737 159.78 187.737 159.394C187.737 159.008 187.424 158.695 187.038 158.695C186.652 158.695 186.34 159.008 186.34 159.394C186.34 159.78 186.652 160.092 187.038 160.092Z" fill="#263238"/>
<path d="M199.937 222.488L195.046 221.985L196.059 214.509L201.355 215.005L199.937 222.488Z" fill="#FFA8A7"/>
<path d="M195.458 218.953L195.549 218.289C195.067 218.471 192.362 223.397 190.707 225.437C189.051 227.477 186.263 229.329 185.655 230.873C185.047 232.417 189.148 233.5 190.595 233.312C192.286 233.088 195.241 232.047 196.017 230.985C196.792 229.923 197.212 228.337 197.84 227.561C198.469 226.786 200.901 225.165 201.278 223.83C201.383 222.637 201.321 221.436 201.097 220.259C200.915 219.386 200.992 218.429 200.691 218.499L200.559 219.197C200.188 219.575 199.014 219.735 197.903 219.721C197.191 219.763 195.423 219.498 195.458 218.953Z" fill="#263238"/>
<path d="M183.377 212.811L178.207 212.287L180.876 204.238L186.361 204.091L183.377 212.811Z" fill="#FFA8A7"/>
<path d="M178.765 210.561C178.521 210.561 178.144 210.834 177.494 211.393C175.739 212.623 173.91 213.744 172.016 214.747C170.262 215.627 166.859 216.975 165.322 217.667C164.358 218.1 164.4 219.26 165.399 219.924C166.309 220.566 167.339 221.021 168.427 221.261C169.515 221.501 170.64 221.521 171.736 221.322C173.308 220.972 178.269 218.275 179.569 218.359C180.869 218.443 183.279 218.415 184.236 217.758C185.194 217.101 184.754 214.768 184.481 213.566C184.188 212.245 184.439 210.841 183.999 210.932L183.691 211.833C183.132 212.685 178.465 212.022 178.535 211.253L178.765 210.561Z" fill="#263238"/>
<path d="M226.279 168.945C227.306 176.163 225.922 177.554 219.061 184.471C215.365 188.195 207.56 193.373 207.56 193.373C207.95 196.422 207.681 199.52 206.77 202.456C205.1 207.92 200.957 217.541 200.957 217.541C200.076 217.879 199.136 218.034 198.193 217.998C197.25 217.962 196.325 217.735 195.472 217.332C195.472 217.332 196.723 209.304 197.303 203.56C198.211 194.477 199.001 191.43 199.399 189.753C199.748 188.279 207.644 180.041 209.251 177.568L193.292 185.526C193.292 185.526 193.215 190.417 192.251 193.1C189.756 199.948 184.481 210.359 184.481 210.359C184.481 210.359 180.463 210.764 178.78 209.45C178.78 209.45 183.894 184.366 184.53 182.242C185.648 178.539 199.168 168.82 201.935 166.479C203.514 165.137 205.282 163.684 205.282 163.684L226.279 168.945Z" fill="#37474F"/>
<path d="M226.279 168.945L222.051 167.897L222.177 169.204C222.126 174.282 220.087 179.139 216.496 182.731C210.494 188.649 205.38 192.108 205.079 193.387C204.779 194.665 204.429 205.712 199.028 217.961C199.684 217.906 200.328 217.761 200.943 217.527C200.943 217.527 205.086 207.906 206.756 202.442C207.667 199.506 207.936 196.408 207.546 193.359C207.546 193.359 215.35 188.181 219.047 184.457C225.908 177.554 227.292 176.163 226.279 168.945Z" fill="#263238"/>
<path d="M209.237 177.54C207.674 176.276 206.5 174.598 205.848 172.697C205.929 173.936 206.104 175.167 206.372 176.38C206.777 177.987 193.292 185.554 193.292 185.554L209.237 177.54Z" fill="#263238"/>
<path d="M206.162 150.143C206.162 150.143 196.639 140.752 194.899 139.194C192.64 137.453 189.796 136.654 186.961 136.965C184.502 137.384 184.634 139.271 186.766 140.172C190.259 141.653 191.335 143.016 191.244 143.169C191.154 143.323 188.722 142.163 187.688 142.743C186.654 143.323 187.192 144.064 187.688 144.204C188.184 144.343 190.308 145.342 191.447 145.692C192.586 146.041 194.242 146.069 195.793 147.152C197.344 148.235 203.43 157.577 206.015 159.072C208.601 160.568 208.95 150.352 208.95 150.352L206.162 150.143Z" fill="#FFA8A7"/>
<path d="M212.367 135.595C210.005 135.281 208.258 135.784 206.875 137.915C205.491 140.046 204.681 148.689 204.681 148.689C204.681 148.689 205.177 150.785 206.777 151.484C208.377 152.183 212.367 135.595 212.367 135.595Z" fill="#E0E0E0"/>
<path d="M224.979 139.613C224.979 139.613 226.614 140.954 226.614 145.203V154.363L226.383 169.735C223.106 173.298 208.363 171.95 204.723 164.145C204.723 164.145 205.254 147.69 205.743 144.085C206.442 139.194 207.644 135.651 212.367 135.546L219.578 137.223L224.979 139.613Z" fill="#F0F0F0"/>
<path d="M229.262 184.129C228.716 184.839 228.019 185.418 227.222 185.826C226.176 186.276 225.039 186.47 223.903 186.392C223.403 186.397 222.907 186.305 222.443 186.12C222.237 186.038 222.05 185.913 221.897 185.752C221.744 185.592 221.627 185.4 221.555 185.191C221.485 184.771 221.919 184.415 222.212 184.177C222.704 183.75 223.16 183.283 223.575 182.78C223.784 182.542 223.994 182.298 224.183 182.039C224.371 181.781 224.602 181.341 224.811 181.054C224.93 180.879 225.231 180.355 224.937 180.23C224.818 180.184 224.686 180.184 224.567 180.23C224.19 180.321 223.826 180.453 223.442 180.537C223.063 180.631 222.664 180.611 222.296 180.481C222.211 180.453 222.133 180.408 222.067 180.348C222 180.287 221.948 180.214 221.912 180.132C221.886 180.046 221.881 179.956 221.898 179.868C221.915 179.78 221.953 179.698 222.01 179.629C222.119 179.487 222.251 179.364 222.401 179.265L223.707 178.301C224.567 177.658 225.587 177.274 226.223 176.352C226.609 175.651 226.847 174.878 226.922 174.081C227.425 171.503 227.963 161.322 227.963 161.322L224.637 149.479C224.637 149.479 221.562 143.127 224.972 139.648C226.544 140.347 228.389 140.207 230.408 147.187C231.855 152.197 234.384 158.947 234.384 161.162C234.381 162.1 234.289 163.035 234.111 163.956C233.182 168.847 232.246 173.096 231.414 178.022C231.344 178.448 231.358 178.874 231.282 179.286C230.765 182.214 229.814 183.43 229.262 184.129Z" fill="#FFA8A7"/>
<path d="M224.979 139.613C226.17 139.811 227.268 140.381 228.116 141.241C229.51 143.16 230.529 145.324 231.121 147.62C231.938 150.646 233.217 154.517 233.217 154.517C232.31 155.426 231.213 156.124 230.006 156.562C228.798 156.999 227.509 157.164 226.23 157.046L223.728 148.899C223.728 148.899 221.339 141.73 224.979 139.613Z" fill="#E0E0E0"/>
<path d="M218.165 124.136C219.007 120.568 216.797 116.993 213.229 116.151C209.661 115.309 206.086 117.519 205.244 121.087C204.402 124.655 206.611 128.23 210.179 129.072C213.747 129.914 217.322 127.704 218.165 124.136Z" fill="#263238"/>
<path d="M222.568 126.582C222.568 126.582 221.555 131.361 221.171 132.172C220.899 132.655 220.451 133.015 219.92 133.178L219.99 129.817L222.568 126.582Z" fill="#263238"/>
<path d="M221.297 119.727C221.653 119.688 222.014 119.731 222.352 119.852C222.69 119.973 222.995 120.169 223.246 120.426C224.085 121.278 223.617 123.962 222.548 126.589L220.689 126.833L221.297 119.727Z" fill="#263238"/>
<path d="M220.081 126.833C220.465 127.064 221.01 126.323 221.478 125.827C221.665 125.614 221.903 125.452 222.169 125.357C222.436 125.261 222.722 125.235 223.002 125.28C223.281 125.325 223.544 125.441 223.767 125.616C223.989 125.791 224.164 126.02 224.273 126.281C225.063 127.937 223.575 130.124 222.373 130.509C220.277 131.172 219.955 129.81 219.955 129.81L219.794 137.384C217.985 139.403 211.801 138.921 212.968 137.181V134.876C212.03 135.028 211.079 135.077 210.131 135.022C208.587 134.785 207.616 133.562 207.148 131.892C206.4 129.209 206.113 127.043 206.749 121.761C207.448 115.975 214.184 115.912 217.817 118.197C221.45 120.482 220.081 126.833 220.081 126.833Z" fill="#FFA8A7"/>
<path d="M220.081 127.448C220.27 127.448 221.01 126.232 221.478 125.799C222.142 125.191 221.29 119.727 221.29 119.727C221.463 119.255 221.494 118.742 221.38 118.251C221.266 117.761 221.011 117.315 220.647 116.967C219.739 115.968 218.222 115.856 215.63 115.451C214.268 115.234 212.206 114.857 210.851 114.599C209.23 114.298 207.881 113.984 206.742 114.976C206.293 115.364 205.974 115.883 205.832 116.46C205.689 117.037 205.729 117.644 205.946 118.197C206.059 118.454 206.215 118.69 206.407 118.896C206.715 119.267 207.119 119.547 207.574 119.706C207.574 119.706 208.273 120.328 210.739 120.629C213.009 120.799 215.29 120.757 217.552 120.503C218.25 120.405 218.418 121.097 218.802 122.983C219.152 124.625 219.431 127.434 220.081 127.448Z" fill="#263238"/>
<path d="M221.29 120.153L223.617 118.91C223.543 118.752 223.438 118.612 223.309 118.496C223.179 118.381 223.027 118.293 222.862 118.238C222.698 118.183 222.523 118.162 222.35 118.177C222.177 118.191 222.009 118.241 221.856 118.323C221.546 118.498 221.315 118.786 221.21 119.126C221.104 119.466 221.133 119.834 221.29 120.153Z" fill="#263238"/>
<path d="M213.003 134.862C213.003 134.862 216.447 134.163 217.649 133.527C218.36 133.159 218.942 132.584 219.319 131.878C219.139 132.584 218.816 133.245 218.369 133.82C217.488 134.952 213.003 135.784 213.003 135.784V134.862Z" fill="#F28F8F"/>
<path d="M213.806 125.939C213.806 126.077 213.847 126.212 213.924 126.327C214.001 126.442 214.11 126.532 214.238 126.584C214.365 126.637 214.506 126.651 214.641 126.624C214.777 126.597 214.901 126.531 214.999 126.433C215.097 126.335 215.163 126.211 215.19 126.075C215.217 125.94 215.204 125.799 215.151 125.672C215.098 125.544 215.008 125.435 214.893 125.358C214.778 125.281 214.643 125.24 214.505 125.24C214.32 125.24 214.142 125.314 214.011 125.445C213.88 125.576 213.806 125.754 213.806 125.939Z" fill="#263238"/>
<path d="M214.917 123.081L216.392 123.899C216.498 123.696 216.522 123.459 216.458 123.239C216.394 123.019 216.248 122.832 216.049 122.718C215.951 122.665 215.844 122.633 215.734 122.623C215.623 122.612 215.512 122.625 215.406 122.658C215.3 122.692 215.202 122.747 215.118 122.82C215.034 122.893 214.966 122.981 214.917 123.081Z" fill="#263238"/>
<path d="M213.29 130.711L211.71 131.305C211.745 131.411 211.801 131.51 211.874 131.594C211.947 131.678 212.037 131.747 212.137 131.796C212.238 131.845 212.347 131.873 212.458 131.879C212.57 131.884 212.682 131.867 212.786 131.829C212.999 131.745 213.171 131.581 213.265 131.372C213.358 131.163 213.367 130.926 213.29 130.711Z" fill="#F28F8F"/>
<path d="M207.469 123.689L208.811 122.641C208.747 122.55 208.665 122.473 208.571 122.415C208.476 122.356 208.371 122.318 208.261 122.301C208.151 122.285 208.039 122.291 207.932 122.319C207.825 122.348 207.724 122.398 207.637 122.466C207.457 122.609 207.339 122.816 207.308 123.044C207.277 123.272 207.334 123.503 207.469 123.689Z" fill="#263238"/>
<path d="M208.063 125.743C208.063 125.929 208.137 126.106 208.268 126.237C208.399 126.368 208.576 126.442 208.762 126.442C208.947 126.442 209.125 126.368 209.256 126.237C209.387 126.106 209.46 125.929 209.46 125.743C209.46 125.558 209.387 125.38 209.256 125.249C209.125 125.118 208.947 125.045 208.762 125.045C208.576 125.045 208.399 125.118 208.268 125.249C208.137 125.38 208.063 125.558 208.063 125.743Z" fill="#263238"/>
<path d="M211.473 125.191L211.396 129.377L208.916 128.832L211.473 125.191Z" fill="#F28F8F"/>
<path d="M257.721 33.5888L262.829 36.5374C262.801 36.3056 262.787 36.0722 262.787 35.8387V34.3574C262.787 31.7232 264.632 30.6541 266.916 31.9747C267.898 32.5776 268.737 33.3856 269.376 34.3434C269.746 31.0314 272.346 29.7947 275.504 31.6184C278.914 33.5888 281.68 38.375 281.68 42.3158V44.5308C281.703 45.4143 281.524 46.2913 281.156 47.0951L285.398 49.5406C286.064 49.9759 286.619 50.5619 287.017 51.2514C287.415 51.9409 287.646 52.7144 287.689 53.5094C287.689 54.9697 286.662 55.5636 285.398 54.8299L257.721 38.8711C257.054 38.4378 256.499 37.8531 256.101 37.1647C255.703 36.4762 255.473 35.7035 255.429 34.9094C255.436 33.449 256.464 32.8551 257.721 33.5888Z" fill="#EBEBEB"/>
</svg>
