<svg width="1493" height="1142" viewBox="0 0 1493 1142" fill="none" xmlns="http://www.w3.org/2000/svg">
<path d="M218.562 1047.86C509.962 1173.38 982.373 1173.38 1273.77 1047.86C1565.17 922.34 1565.14 718.929 1273.77 593.343C982.406 467.757 509.962 467.856 218.562 593.343C-72.8377 718.83 -72.8706 922.274 218.562 1047.86Z" fill="#FAFAFA"/>
<path d="M429.834 733.533L216.391 856.784L200.372 847.344L413.815 724.291L429.834 733.533Z" fill="#EBEBEB"/>
<path d="M340.727 788.202L426.117 738.895L428.156 740.079L342.799 789.386L340.727 788.202Z" fill="#EBEBEB"/>
<path d="M1459.94 863.922C1474.78 855.337 1474.78 841.456 1459.94 832.871L882.802 499.663C867.968 491.111 843.857 491.111 828.989 499.663L572.028 647.946L597.257 662.517L729.718 586.238L1310.18 921.32L1188.68 991.382L1215.58 1004.97L1459.94 863.922Z" fill="#EBEBEB"/>
<path d="M593.048 792.577L1004.8 1030.3C1007.16 1031.48 1009.75 1032.09 1012.39 1032.09C1015.02 1032.09 1017.61 1031.48 1019.97 1030.3L1147.1 956.878C1151.31 954.476 1151.31 950.562 1147.1 948.128L735.376 710.41C733.018 709.226 730.416 708.61 727.778 708.61C725.139 708.61 722.538 709.226 720.179 710.41L593.048 783.827C588.87 786.228 588.87 790.143 593.048 792.577Z" fill="#EBEBEB"/>
<path d="M211.063 790.735C206.721 765.9 203.794 719.258 175.341 679.918C154.717 651.432 122.219 625.907 97.3847 633.308C74.3596 640.183 78.3725 676.859 105.246 697.812C132.12 718.764 166.822 748.204 182.611 802.083L205.899 840.041L211.063 790.735Z" fill="#137EE0"/>
<g opacity="0.1">
<path opacity="0.1" d="M211.063 790.735C206.721 765.9 203.794 719.258 175.341 679.918C154.717 651.432 122.219 625.907 97.3847 633.308C74.3596 640.183 78.3725 676.859 105.246 697.812C132.12 718.764 166.822 748.204 182.611 802.083L205.899 840.041L211.063 790.735Z" fill="black"/>
</g>
<path d="M205.604 809.681C205.178 809.67 204.769 809.509 204.45 809.226C204.131 808.943 203.922 808.557 203.861 808.135C194.519 736.987 161.396 682.319 108.043 650.018C107.846 649.899 107.674 649.743 107.538 649.558C107.401 649.374 107.302 649.163 107.247 648.94C107.192 648.717 107.182 648.485 107.217 648.258C107.252 648.031 107.331 647.813 107.451 647.617C107.702 647.223 108.095 646.941 108.549 646.831C109.003 646.721 109.481 646.79 109.885 647.025C164.159 679.885 197.841 735.375 207.347 807.74C207.38 807.969 207.366 808.203 207.307 808.427C207.248 808.651 207.145 808.861 207.005 809.044C206.864 809.228 206.688 809.382 206.487 809.497C206.286 809.612 206.064 809.685 205.834 809.714L205.604 809.681Z" fill="white"/>
<path d="M203.432 844.153C192.553 855.288 178.943 863.375 163.961 867.606C137.942 875.237 124.489 864.119 124.489 864.119C124.489 864.119 131.66 837.969 145.771 829.055C130.056 834.812 115.422 843.174 102.484 853.791C102.484 853.791 86.3659 856.159 76.7282 832.344C76.7282 832.344 84.3594 816.26 115.378 804.089C115.378 804.089 95.2141 801.721 68.0444 812.543C66.0379 813.661 52.8807 782.939 48.3086 768.663C43.7364 754.388 49.5914 753.697 60.6764 749.125C71.7613 744.553 110.477 737.579 118.47 742.941C126.463 748.302 132.91 769.255 132.91 769.255C132.91 769.255 138.205 756.098 135.113 745.507C142.815 742.166 151.354 741.26 159.586 742.908C173.039 745.704 175.769 754.453 178.796 763.4C181.949 772.6 183.071 782.375 182.085 792.05C182.085 792.05 188.959 775.176 184.354 760.21C193.125 763.775 200.796 769.597 206.59 777.084C215.109 789.189 217.708 822.871 203.432 844.153Z" fill="#137EE0"/>
<path d="M203.431 845.929C203.139 845.924 202.853 845.85 202.596 845.713C202.338 845.575 202.117 845.379 201.951 845.14C174.88 803.629 88.963 762.545 59.8855 760.736C59.42 760.702 58.9865 760.487 58.6787 760.136C58.371 759.785 58.2137 759.327 58.2408 758.861C58.2533 758.629 58.312 758.402 58.4135 758.193C58.515 757.984 58.6573 757.797 58.832 757.644C59.0067 757.491 59.2102 757.374 59.4307 757.301C59.6511 757.227 59.884 757.199 60.1157 757.216C89.7195 759.091 177.314 800.964 204.845 843.199C205.014 843.464 205.11 843.769 205.122 844.083C205.135 844.397 205.064 844.708 204.917 844.986C204.77 845.263 204.552 845.497 204.285 845.662C204.018 845.828 203.712 845.92 203.398 845.929H203.431Z" fill="white"/>
<path d="M609.957 28.7V655.182L597.261 662.517V36.0351L609.957 28.7Z" fill="#37474F"/>
<path d="M597.263 36.0351V662.517L572.034 647.946V21.4963L597.263 36.0351Z" fill="#263238"/>
<path d="M1215.59 1005L1202.89 1012.27V385.82L1215.55 378.518L1215.59 1005Z" fill="#37474F"/>
<path d="M1202.89 385.82V1012.27L1177.66 997.731V371.249L1202.89 385.82Z" fill="#263238"/>
<path d="M1209.44 352.894L1209.08 352.697L604.111 3.43802C589.572 -5.31154 549.607 5.4116 502.471 32.6471L433.691 72.382C374.286 106.722 326.131 154.088 326.131 178.232V192.804L931.726 542.457L1215.63 378.518V363.946C1215.74 361.708 1215.23 359.483 1214.13 357.527C1213.04 355.571 1211.41 353.965 1209.44 352.894V352.894Z" fill="#137EE0"/>
<path opacity="0.4" d="M1209.07 352.701C1194.04 344.642 1154.47 355.529 1107.96 382.304L1039.28 422.006C979.84 456.281 931.651 503.68 931.651 527.824L338.654 185.505L326.056 178.236C326.056 154.092 374.212 106.726 433.617 72.3856L502.363 32.7165C549.499 5.481 589.464 -5.24215 604.003 3.50742L1209.07 352.701Z" fill="white"/>
<path opacity="0.1" d="M931.651 527.886V542.425L326.056 192.804V178.232L931.651 527.886Z" fill="black"/>
<path d="M819.752 807.905C821.301 807.913 822.823 807.504 824.159 806.721L919.845 751.493C925.006 748.533 929.3 744.273 932.301 739.136C935.302 734 936.905 728.167 936.95 722.218V611.632C936.95 609.276 936.014 607.017 934.349 605.352C932.683 603.686 930.424 602.75 928.069 602.75C925.713 602.75 923.454 603.686 921.789 605.352C920.123 607.017 919.188 609.276 919.188 611.632V722.218C919.185 725.054 918.435 727.838 917.015 730.292C915.595 732.746 913.553 734.783 911.096 736.198L815.245 791.294C813.61 792.298 812.344 793.806 811.637 795.59C810.931 797.375 810.821 799.34 811.325 801.192C811.828 803.044 812.918 804.683 814.432 805.863C815.945 807.044 817.8 807.702 819.719 807.74L819.752 807.905Z" fill="#263238"/>
<path d="M1015.07 918.195C1016.63 918.188 1018.16 917.78 1019.51 917.011L1115.16 861.751C1120.32 858.768 1124.6 854.486 1127.57 849.331C1130.55 844.177 1132.13 838.331 1132.14 832.377V721.889C1132.14 719.534 1131.2 717.275 1129.54 715.609C1127.87 713.944 1125.61 713.008 1123.26 713.008C1120.9 713.008 1118.64 713.944 1116.98 715.609C1115.31 717.275 1114.37 719.534 1114.37 721.889V832.377C1114.37 835.213 1113.62 837.997 1112.2 840.451C1110.78 842.905 1108.74 844.942 1106.28 846.357L1010.63 901.617C1009 902.62 1007.73 904.125 1007.02 905.906C1006.32 907.687 1006.2 909.65 1006.7 911.5C1007.2 913.35 1008.29 914.99 1009.8 916.173C1011.3 917.356 1013.15 918.019 1015.07 918.064V918.195Z" fill="#263238"/>
<path d="M631.044 696.825C632.606 696.821 634.139 696.401 635.485 695.608L731.171 640.38C736.317 637.394 740.59 633.109 743.562 627.955C746.535 622.801 748.103 616.957 748.111 611.007V500.519C748.111 498.163 747.175 495.904 745.509 494.239C743.844 492.573 741.585 491.637 739.229 491.637C736.874 491.637 734.615 492.573 732.949 494.239C731.284 495.904 730.348 498.163 730.348 500.519V611.007C730.345 613.838 729.6 616.619 728.185 619.072C726.771 621.525 724.738 623.565 722.289 624.986L626.603 680.247C624.97 681.25 623.705 682.754 622.998 684.535C622.29 686.317 622.178 688.279 622.677 690.129C623.177 691.98 624.262 693.619 625.77 694.802C627.278 695.985 629.128 696.648 631.044 696.693V696.825Z" fill="#263238"/>
<path d="M998.492 907.176V1009.44C998.578 1010.33 998.897 1011.17 999.417 1011.9C999.937 1012.62 1000.64 1013.19 1001.45 1013.55C1003.67 1014.67 1006.11 1015.25 1008.59 1015.25C1011.07 1015.25 1013.52 1014.67 1015.73 1013.55C1016.54 1013.19 1017.24 1012.62 1017.76 1011.9C1018.28 1011.17 1018.6 1010.33 1018.69 1009.44V907.176H998.492Z" fill="#263238"/>
<path d="M1082.9 859.119V961.351C1082.98 962.243 1083.29 963.097 1083.81 963.826C1084.33 964.554 1085.04 965.131 1085.86 965.496C1088.07 966.614 1090.51 967.197 1092.99 967.197C1095.47 967.197 1097.92 966.614 1100.13 965.496C1100.94 965.123 1101.64 964.544 1102.15 963.816C1102.67 963.089 1102.98 962.238 1103.06 961.351V859.119H1082.9Z" fill="#263238"/>
<path d="M614.893 685.707V788.004C614.972 788.892 615.288 789.743 615.809 790.466C616.33 791.19 617.036 791.759 617.853 792.116C620.056 793.25 622.497 793.842 624.974 793.842C627.452 793.842 629.893 793.25 632.096 792.116C632.913 791.759 633.619 791.19 634.14 790.466C634.66 789.743 634.977 788.892 635.056 788.004V685.707H614.893Z" fill="#263238"/>
<path d="M699.297 637.617V739.882C699.376 740.765 699.689 741.611 700.204 742.334C700.718 743.057 701.416 743.629 702.224 743.993C704.437 745.112 706.882 745.695 709.362 745.695C711.842 745.695 714.287 745.112 716.5 743.993C717.313 743.631 718.015 743.06 718.535 742.337C719.055 741.615 719.375 740.768 719.46 739.882V637.617H699.297Z" fill="#263238"/>
<path d="M1151.91 746.954L1153.68 745.934C1155.18 744.964 1156.42 743.654 1157.32 742.11C1158.21 740.567 1158.72 738.833 1158.81 737.053V721.133C1158.71 719.354 1158.2 717.624 1157.3 716.081C1156.41 714.539 1155.17 713.227 1153.68 712.252L731.959 468.941C730.37 468.13 728.612 467.707 726.828 467.707C725.044 467.707 723.285 468.13 721.697 468.941L719.92 469.961C718.426 470.932 717.182 472.243 716.291 473.787C715.399 475.33 714.884 477.062 714.789 478.842V494.762C714.89 496.541 715.406 498.271 716.297 499.814C717.189 501.356 718.43 502.668 719.92 503.643L1141.68 747.052C1143.27 747.848 1145.02 748.254 1146.8 748.237C1148.58 748.22 1150.33 747.78 1151.91 746.954V746.954Z" fill="#455A64"/>
<path d="M1134.77 729.093L1157.3 716.1C1158.24 717.613 1158.76 719.351 1158.81 721.133V737.053C1158.72 738.834 1158.21 740.567 1157.31 742.11C1156.42 743.654 1155.18 744.964 1153.68 745.934L1151.9 746.954C1150.32 747.765 1148.57 748.188 1146.79 748.188C1145.01 748.188 1143.26 747.765 1141.67 746.954L1134.77 742.974V729.093Z" fill="#263238"/>
<path d="M1141.67 719.192L719.853 475.717C717.025 474.073 714.722 475.388 714.722 478.678V494.598C714.823 496.377 715.339 498.107 716.231 499.649C717.122 501.192 718.363 502.504 719.853 503.479L1141.61 746.888C1144.44 748.533 1146.71 747.217 1146.71 743.928V728.007C1146.61 726.248 1146.11 724.536 1145.23 723.006C1144.36 721.475 1143.14 720.17 1141.67 719.192V719.192Z" fill="#37474F"/>
<path d="M1151.91 795.668L1153.68 794.649C1155.17 793.673 1156.41 792.362 1157.3 790.819C1158.2 789.277 1158.71 787.546 1158.81 785.768V769.847C1158.72 768.067 1158.21 766.334 1157.32 764.79C1156.42 763.246 1155.18 761.936 1153.68 760.966L731.959 517.557C730.366 516.761 728.609 516.347 726.828 516.347C725.047 516.347 723.29 516.761 721.697 517.557L719.92 518.577C718.43 519.552 717.189 520.864 716.297 522.407C715.406 523.949 714.89 525.679 714.789 527.458V543.378C714.882 545.159 715.395 546.892 716.287 548.436C717.179 549.979 718.424 551.29 719.92 552.259L1141.68 795.668C1143.26 796.464 1145.01 796.879 1146.79 796.879C1148.57 796.879 1150.32 796.464 1151.91 795.668V795.668Z" fill="#455A64"/>
<path d="M1134.77 777.807L1157.3 764.65C1158.24 766.178 1158.76 767.924 1158.81 769.716V785.636C1158.71 787.415 1158.19 789.145 1157.3 790.687C1156.41 792.23 1155.17 793.542 1153.68 794.517L1151.9 795.537C1150.32 796.333 1148.56 796.747 1146.79 796.747C1145.01 796.747 1143.26 796.333 1141.67 795.537L1134.77 791.557V777.807Z" fill="#263238"/>
<path d="M1141.67 767.907L719.853 524.399C717.025 522.787 714.722 524.103 714.722 527.359V543.28C714.815 545.06 715.328 546.793 716.22 548.337C717.112 549.881 718.357 551.191 719.853 552.161L1141.61 795.57C1144.44 797.182 1146.71 795.866 1146.71 792.609V776.689C1146.61 774.934 1146.11 773.225 1145.23 771.7C1144.36 770.175 1143.14 768.876 1141.67 767.907V767.907Z" fill="#37474F"/>
<path d="M1151.91 844.35L1153.68 843.331C1155.17 842.355 1156.41 841.043 1157.3 839.501C1158.2 837.958 1158.71 836.228 1158.81 834.45V818.529C1158.72 816.749 1158.2 815.017 1157.31 813.474C1156.42 811.93 1155.18 810.62 1153.68 809.648L731.959 566.239C730.37 565.428 728.612 565.005 726.828 565.005C725.044 565.005 723.285 565.428 721.697 566.239L719.92 567.259C718.424 568.228 717.179 569.539 716.287 571.083C715.395 572.626 714.882 574.359 714.789 576.14V592.06C714.89 593.839 715.406 595.569 716.297 597.112C717.189 598.654 718.43 599.966 719.92 600.941L1141.68 844.35C1143.26 845.161 1145.01 845.584 1146.79 845.584C1148.57 845.584 1150.32 845.161 1151.91 844.35V844.35Z" fill="#455A64"/>
<path d="M1134.77 826.489L1157.3 813.332C1158.24 814.86 1158.76 816.606 1158.81 818.398V834.318C1158.71 836.097 1158.19 837.827 1157.3 839.369C1156.41 840.912 1155.17 842.224 1153.68 843.199L1151.9 844.219C1150.32 845.03 1148.57 845.453 1146.79 845.453C1145.01 845.453 1143.26 845.03 1141.67 844.219L1134.77 840.239V826.489Z" fill="#263238"/>
<path d="M1141.67 816.588L719.853 573.114C717.025 571.469 714.722 572.785 714.722 576.074V591.994C714.823 593.773 715.339 595.503 716.231 597.046C717.122 598.588 718.363 599.9 719.853 600.875L1141.61 844.284C1144.44 845.929 1146.71 844.58 1146.71 841.324V825.404C1146.62 823.643 1146.11 821.929 1145.24 820.398C1144.36 818.867 1143.14 817.563 1141.67 816.588V816.588Z" fill="#37474F"/>
<path d="M1134.77 873.823V875.862C1134.68 877.642 1134.16 879.376 1133.27 880.919C1132.38 882.463 1131.13 883.773 1129.64 884.743L1115.85 892.703C1114.27 893.515 1112.51 893.938 1110.72 893.938C1108.94 893.938 1107.18 893.515 1105.59 892.703L683.87 649.294C682.375 648.323 681.132 647.012 680.24 645.468C679.348 643.925 678.834 642.193 678.738 640.413V638.374C678.839 636.595 679.355 634.865 680.247 633.322C681.138 631.78 682.379 630.468 683.87 629.493L697.652 621.532C699.241 620.721 700.999 620.298 702.783 620.298C704.567 620.298 706.326 620.721 707.914 621.532L1129.64 864.941C1131.13 865.917 1132.37 867.229 1133.26 868.771C1134.15 870.314 1134.67 872.044 1134.77 873.823V873.823Z" fill="#37474F"/>
<path d="M1110.72 867.902V893.953C1112.51 893.981 1114.28 893.551 1115.85 892.703L1129.64 884.743C1131.13 883.774 1132.38 882.463 1133.27 880.919C1134.16 879.376 1134.67 877.642 1134.77 875.862V873.823C1134.67 872.044 1134.15 870.314 1133.26 868.771C1132.37 867.229 1131.13 865.917 1129.64 864.942L1122.73 860.961L1110.72 867.902Z" fill="#263238"/>
<path d="M1105.59 878.822L683.868 635.413C683.312 635.144 682.843 634.723 682.515 634.2C682.187 633.676 682.013 633.071 682.013 632.453C682.013 631.835 682.187 631.23 682.515 630.706C682.843 630.182 683.312 629.762 683.868 629.493L697.65 621.532C699.239 620.721 700.998 620.298 702.782 620.298C704.566 620.298 706.324 620.721 707.913 621.532L1129.64 864.941C1130.19 865.211 1130.66 865.631 1130.99 866.155C1131.32 866.678 1131.49 867.284 1131.49 867.902C1131.49 868.52 1131.32 869.125 1130.99 869.649C1130.66 870.172 1130.19 870.593 1129.64 870.862L1115.85 878.822C1114.26 879.634 1112.51 880.057 1110.72 880.057C1108.94 880.057 1107.18 879.634 1105.59 878.822V878.822Z" fill="#455A64"/>
<path d="M1092.7 898.13V900.17C1092.6 901.948 1092.08 903.679 1091.19 905.221C1090.3 906.764 1089.06 908.075 1087.57 909.051L1073.78 917.011C1072.2 917.822 1070.44 918.245 1068.65 918.245C1066.87 918.245 1065.11 917.822 1063.52 917.011L641.767 673.602C640.28 672.625 639.045 671.312 638.159 669.769C637.273 668.227 636.763 666.497 636.668 664.721V662.682C636.755 660.903 637.262 659.171 638.148 657.627C639.035 656.083 640.275 654.772 641.767 653.8L655.582 645.84C657.165 645.029 658.918 644.606 660.697 644.606C662.476 644.606 664.229 645.029 665.812 645.84L1087.57 889.249C1089.06 890.221 1090.31 891.532 1091.2 893.075C1092.09 894.618 1092.6 896.351 1092.7 898.13V898.13Z" fill="#37474F"/>
<path d="M1068.52 892.21V918.228C1070.31 918.268 1072.07 917.849 1073.65 917.011L1087.44 909.051C1088.93 908.076 1090.17 906.764 1091.06 905.221C1091.95 903.679 1092.47 901.949 1092.57 900.17V898.131C1092.47 896.351 1091.96 894.619 1091.07 893.075C1090.17 891.532 1088.93 890.221 1087.44 889.25L1080.53 885.269L1068.52 892.21Z" fill="#263238"/>
<path d="M1063.52 903.13L641.767 659.721C641.211 659.452 640.742 659.031 640.414 658.508C640.086 657.984 639.912 657.379 639.912 656.761C639.912 656.143 640.086 655.537 640.414 655.014C640.742 654.49 641.211 654.07 641.767 653.8L655.582 645.84C657.165 645.029 658.918 644.606 660.697 644.606C662.476 644.606 664.229 645.029 665.812 645.84L1087.57 889.249C1088.12 889.519 1088.59 889.939 1088.92 890.463C1089.25 890.986 1089.42 891.592 1089.42 892.21C1089.42 892.828 1089.25 893.433 1088.92 893.957C1088.59 894.48 1088.12 894.901 1087.57 895.17L1073.79 903.13C1072.2 903.942 1070.44 904.365 1068.65 904.365C1066.87 904.365 1065.11 903.942 1063.52 903.13V903.13Z" fill="#455A64"/>
<path d="M1050.59 922.406V924.478C1050.5 926.25 1049.99 927.976 1049.11 929.514C1048.22 931.052 1046.98 932.358 1045.5 933.326L1031.68 941.319C1030.09 942.115 1028.34 942.53 1026.57 942.53C1024.79 942.53 1023.04 942.115 1021.45 941.319L599.695 697.91C598.201 696.939 596.957 695.628 596.066 694.084C595.174 692.541 594.659 690.809 594.564 689.029V686.99C594.665 685.211 595.181 683.481 596.072 681.938C596.964 680.396 598.205 679.084 599.695 678.109L613.51 670.149C615.093 669.337 616.847 668.914 618.625 668.914C620.404 668.914 622.157 669.337 623.74 670.149L1045.5 913.558C1046.98 914.531 1048.21 915.839 1049.1 917.376C1049.98 918.912 1050.49 920.635 1050.59 922.406V922.406Z" fill="#37474F"/>
<path d="M1026.55 916.485V942.602C1028.34 942.628 1030.1 942.21 1031.68 941.385L1045.5 933.392C1046.99 932.424 1048.22 931.117 1049.11 929.58C1049.99 928.042 1050.5 926.316 1050.6 924.544V922.471C1050.5 920.695 1049.99 918.966 1049.11 917.423C1048.22 915.88 1046.98 914.567 1045.5 913.59L1038.59 909.709L1026.55 916.485Z" fill="#263238"/>
<path d="M1021.45 927.438L599.695 684.029C599.139 683.76 598.67 683.339 598.342 682.816C598.014 682.292 597.84 681.687 597.84 681.069C597.84 680.451 598.014 679.846 598.342 679.322C598.67 678.799 599.139 678.378 599.695 678.109L613.51 670.149C615.093 669.337 616.847 668.914 618.625 668.914C620.404 668.914 622.157 669.337 623.74 670.149L1045.5 913.558C1046.05 913.827 1046.52 914.247 1046.85 914.771C1047.18 915.295 1047.35 915.9 1047.35 916.518C1047.35 917.136 1047.18 917.741 1046.85 918.265C1046.52 918.788 1046.05 919.209 1045.5 919.478L1031.68 927.471C1030.09 928.262 1028.34 928.671 1026.56 928.665C1024.79 928.659 1023.04 928.239 1021.45 927.438V927.438Z" fill="#455A64"/>
<path d="M1123.26 718.074C1124.21 718.704 1125.01 719.551 1125.58 720.544C1126.15 721.538 1126.48 722.652 1126.55 723.797C1126.55 725.902 1125.07 726.757 1123.26 725.705C1122.3 725.074 1121.5 724.228 1120.93 723.234C1120.36 722.24 1120.03 721.126 1119.97 719.982C1119.97 717.876 1121.45 717.021 1123.26 718.074Z" fill="#263238"/>
<path d="M1123.26 766.69C1124.21 767.313 1125.01 768.153 1125.58 769.142C1126.15 770.131 1126.48 771.24 1126.55 772.38C1126.55 774.485 1125.07 775.341 1123.26 774.288C1122.3 773.657 1121.5 772.811 1120.93 771.817C1120.36 770.823 1120.03 769.709 1119.97 768.565C1119.97 766.459 1121.45 765.637 1123.26 766.69Z" fill="#263238"/>
<path d="M1123.26 815.273C1124.21 815.904 1125.01 816.75 1125.58 817.744C1126.15 818.738 1126.48 819.852 1126.55 820.996C1126.55 823.069 1125.07 823.924 1123.26 822.871C1122.3 822.248 1121.5 821.408 1120.93 820.419C1120.36 819.43 1120.03 818.321 1119.97 817.181C1119.97 815.076 1121.45 814.319 1123.26 815.273Z" fill="#263238"/>
<path d="M739.293 496.835C740.254 497.454 741.053 498.293 741.625 499.283C742.197 500.272 742.525 501.384 742.583 502.525C742.583 504.63 741.102 505.485 739.293 504.433C738.337 503.809 737.54 502.969 736.969 501.981C736.397 500.992 736.067 499.883 736.004 498.742C736.004 496.637 737.484 495.782 739.293 496.835Z" fill="#263238"/>
<path d="M739.293 545.418C740.254 546.044 741.053 546.89 741.625 547.885C742.197 548.879 742.525 549.995 742.583 551.141C742.583 553.246 741.102 554.102 739.293 553.049C738.336 552.418 737.54 551.572 736.968 550.578C736.397 549.584 736.067 548.47 736.004 547.326C736.004 545.22 737.484 544.365 739.293 545.418Z" fill="#263238"/>
<path d="M739.293 593.935C740.254 594.562 741.053 595.407 741.625 596.402C742.197 597.397 742.525 598.512 742.583 599.658C742.583 601.764 741.102 602.619 739.293 601.566C738.336 600.936 737.54 600.089 736.968 599.095C736.397 598.101 736.067 596.987 736.004 595.843C736.004 593.935 737.484 592.948 739.293 593.935Z" fill="#263238"/>
<path d="M1095.89 855.337C1097.47 856.29 1097.5 857.771 1095.89 858.626C1094.99 859.067 1094 859.297 1092.99 859.297C1091.99 859.297 1091 859.067 1090.1 858.626C1088.49 857.705 1088.49 856.225 1090.1 855.337C1091 854.895 1091.99 854.666 1092.99 854.666C1094 854.666 1094.99 854.895 1095.89 855.337Z" fill="#263238"/>
<path d="M1053.69 879.842C1054.01 879.975 1054.29 880.203 1054.49 880.496C1054.69 880.789 1054.79 881.134 1054.79 881.487C1054.79 881.84 1054.69 882.185 1054.49 882.477C1054.29 882.77 1054.01 882.998 1053.69 883.131C1052.78 883.573 1051.79 883.802 1050.79 883.802C1049.79 883.802 1048.8 883.573 1047.9 883.131C1047.57 882.998 1047.29 882.77 1047.09 882.477C1046.9 882.185 1046.79 881.84 1046.79 881.487C1046.79 881.134 1046.9 880.789 1047.09 880.496C1047.29 880.203 1047.57 879.975 1047.9 879.842C1048.8 879.401 1049.79 879.171 1050.79 879.171C1051.79 879.171 1052.78 879.401 1053.69 879.842Z" fill="#263238"/>
<path d="M1011.49 904.347C1013.1 905.268 1013.1 906.748 1011.49 907.637C1010.59 908.106 1009.6 908.352 1008.59 908.352C1007.58 908.352 1006.59 908.106 1005.7 907.637C1004.09 906.716 1004.09 905.235 1005.7 904.347C1006.6 903.906 1007.59 903.676 1008.59 903.676C1009.6 903.676 1010.59 903.906 1011.49 904.347Z" fill="#263238"/>
<path d="M712.257 633.999C712.584 634.132 712.864 634.36 713.061 634.653C713.257 634.946 713.363 635.291 713.363 635.643C713.363 635.996 713.257 636.341 713.061 636.634C712.864 636.927 712.584 637.155 712.257 637.288C711.356 637.73 710.366 637.959 709.363 637.959C708.359 637.959 707.369 637.73 706.468 637.288C706.141 637.155 705.862 636.927 705.665 636.634C705.468 636.341 705.363 635.996 705.363 635.643C705.363 635.291 705.468 634.946 705.665 634.653C705.862 634.36 706.141 634.132 706.468 633.999C707.369 633.557 708.359 633.328 709.363 633.328C710.366 633.328 711.356 633.557 712.257 633.999Z" fill="#263238"/>
<path d="M670.055 658.471C671.667 659.425 671.667 660.905 670.055 661.761C669.15 662.207 668.154 662.44 667.144 662.44C666.135 662.44 665.139 662.207 664.233 661.761C662.621 660.84 662.621 659.359 664.233 658.471C665.139 658.025 666.135 657.792 667.144 657.792C668.154 657.792 669.15 658.025 670.055 658.471Z" fill="#263238"/>
<path d="M627.753 682.977C628.079 683.11 628.359 683.338 628.556 683.631C628.753 683.924 628.858 684.269 628.858 684.621C628.858 684.974 628.753 685.319 628.556 685.612C628.359 685.905 628.079 686.133 627.753 686.266C626.847 686.713 625.851 686.945 624.842 686.945C623.832 686.945 622.836 686.713 621.93 686.266C621.604 686.133 621.324 685.905 621.127 685.612C620.93 685.319 620.825 684.974 620.825 684.621C620.825 684.269 620.93 683.924 621.127 683.631C621.324 683.338 621.604 683.11 621.93 682.977C622.836 682.53 623.832 682.298 624.842 682.298C625.851 682.298 626.847 682.53 627.753 682.977Z" fill="#263238"/>
<path d="M927.937 607.947C928.894 608.571 929.69 609.411 930.262 610.4C930.833 611.388 931.164 612.498 931.227 613.638C931.227 615.743 929.746 616.598 927.937 615.546C926.976 614.919 926.177 614.074 925.606 613.079C925.034 612.084 924.706 610.968 924.648 609.822C924.615 607.717 926.095 606.895 927.937 607.947Z" fill="#263238"/>
<path d="M927.937 656.432C928.89 657.059 929.684 657.9 930.255 658.888C930.826 659.876 931.159 660.984 931.227 662.123C931.227 664.228 929.746 665.083 927.937 664.03C926.977 663.411 926.178 662.572 925.606 661.582C925.034 660.593 924.706 659.481 924.648 658.34C924.615 656.432 926.095 655.478 927.937 656.432Z" fill="#263238"/>
<path d="M927.937 705.114C928.895 705.744 929.691 706.591 930.262 707.585C930.833 708.579 931.164 709.693 931.227 710.837C931.227 712.942 929.746 713.798 927.937 712.745C926.976 712.118 926.177 711.273 925.606 710.278C925.034 709.283 924.706 708.168 924.648 707.022C924.615 704.916 926.095 704.061 927.937 705.114Z" fill="#263238"/>
<path d="M900.768 745.243C901.109 745.363 901.404 745.586 901.612 745.88C901.821 746.175 901.933 746.527 901.933 746.888C901.933 747.249 901.821 747.601 901.612 747.896C901.404 748.19 901.109 748.413 900.768 748.533C899.875 749.002 898.882 749.248 897.873 749.248C896.865 749.248 895.871 749.002 894.979 748.533C893.367 747.612 893.367 746.131 894.979 745.243C895.88 744.802 896.87 744.572 897.873 744.572C898.877 744.572 899.867 744.802 900.768 745.243Z" fill="#263238"/>
<path d="M858.697 769.584C859.024 769.718 859.304 769.945 859.501 770.238C859.697 770.531 859.803 770.876 859.803 771.229C859.803 771.582 859.697 771.927 859.501 772.22C859.304 772.513 859.024 772.74 858.697 772.874C857.796 773.315 856.806 773.545 855.803 773.545C854.799 773.545 853.809 773.315 852.908 772.874C852.581 772.74 852.302 772.513 852.105 772.22C851.908 771.927 851.803 771.582 851.803 771.229C851.803 770.876 851.908 770.531 852.105 770.238C852.302 769.945 852.581 769.718 852.908 769.584C853.809 769.143 854.799 768.913 855.803 768.913C856.806 768.913 857.796 769.143 858.697 769.584Z" fill="#263238"/>
<path d="M816.494 794.09C816.82 794.223 817.1 794.451 817.297 794.744C817.494 795.037 817.599 795.381 817.599 795.734C817.599 796.087 817.494 796.432 817.297 796.725C817.1 797.018 816.82 797.246 816.494 797.379C815.593 797.821 814.602 798.05 813.599 798.05C812.596 798.05 811.605 797.821 810.704 797.379C810.378 797.246 810.098 797.018 809.901 796.725C809.704 796.432 809.599 796.087 809.599 795.734C809.599 795.381 809.704 795.037 809.901 794.744C810.098 794.451 810.378 794.223 810.704 794.09C811.605 793.648 812.596 793.419 813.599 793.419C814.602 793.419 815.593 793.648 816.494 794.09Z" fill="#263238"/>
<path d="M215.766 227.703V853.758L203.069 846.423V220.237L215.766 227.703Z" fill="#263238"/>
<path d="M236.062 215.862V842.048L215.767 853.758V227.703L236.062 215.862Z" fill="#37474F"/>
<path d="M236.061 215.862L215.766 227.703L203.069 220.237L223.364 208.527L236.061 215.862Z" fill="#455A64"/>
<path d="M166.13 290.858L279.085 225.532C283.262 223.131 286.65 225.072 286.65 229.907V393.287C286.515 395.921 285.759 398.486 284.444 400.772C283.129 403.059 281.293 405.002 279.085 406.444L166.13 471.606C161.952 474.04 158.564 472.066 158.564 467.231V303.982C158.708 301.355 159.467 298.798 160.781 296.518C162.096 294.238 163.928 292.299 166.13 290.858V290.858Z" fill="#137EE0"/>
<path d="M269.643 302.667L264.511 305.627C264.302 305.765 264.127 305.949 264.002 306.166C263.876 306.383 263.803 306.627 263.788 306.877V318.784V324.212L261.551 325.462V287.207C261.551 280.464 256.814 277.734 250.992 281.089L194.186 313.982C191.139 315.993 188.604 318.688 186.783 321.851C184.961 325.015 183.903 328.56 183.693 332.205V370.262L181.456 371.578V366.282V354.375C181.456 353.914 181.16 353.717 180.766 353.947L175.634 356.907C175.425 357.045 175.25 357.23 175.125 357.447C174.999 357.664 174.926 357.907 174.911 358.157V369.078C174.911 370.755 176.095 371.446 177.542 370.591L178.924 369.802V373.091C178.924 374.703 180.042 375.328 181.423 374.538L183.693 373.222V400.129H183.397C182.566 400.676 181.874 401.411 181.377 402.273C180.88 403.135 180.592 404.102 180.535 405.096V406.05C180.535 410.425 183.594 412.201 187.377 409.997L188.824 409.175V416.312C188.824 417.497 189.647 417.957 190.666 417.365L199.548 412.234C200.103 411.878 200.563 411.393 200.89 410.82C201.216 410.247 201.399 409.603 201.422 408.944V401.971L243.92 377.433V384.406C243.92 385.59 244.743 386.051 245.762 385.459L254.644 380.327C255.199 379.971 255.659 379.486 255.986 378.913C256.312 378.34 256.495 377.697 256.518 377.038V370.262L257.933 369.44C259.927 368.138 261.586 366.385 262.775 364.321C263.964 362.258 264.649 359.943 264.775 357.565V356.611C264.775 354.802 263.525 354.046 261.946 354.967L261.617 355.131V328.225L263.886 326.909C264.613 326.438 265.219 325.803 265.653 325.054C266.087 324.305 266.339 323.464 266.386 322.6V319.311L267.768 318.521C268.533 318.009 269.168 317.327 269.625 316.528C270.081 315.729 270.346 314.835 270.399 313.916V302.996C270.334 302.634 270.037 302.436 269.643 302.667ZM258.525 337.862C258.432 339.389 257.985 340.873 257.22 342.197C256.455 343.522 255.393 344.65 254.117 345.493C251.683 346.908 249.71 345.757 249.71 342.961C249.798 341.428 250.242 339.938 251.007 338.607C251.772 337.277 252.837 336.143 254.117 335.297C256.551 333.882 258.525 335.033 258.525 337.862V337.862ZM252.473 286.286C253.986 285.398 255.236 286.121 255.236 287.865C255.178 288.82 254.898 289.748 254.418 290.576C253.939 291.404 253.272 292.109 252.473 292.634C250.96 293.522 249.71 292.634 249.71 291.055C249.76 290.098 250.036 289.167 250.517 288.338C250.997 287.509 251.667 286.805 252.473 286.286V286.286ZM255.236 305.627V324.212C255.209 324.658 255.08 325.093 254.857 325.481C254.634 325.869 254.325 326.2 253.953 326.448L223.921 343.948V314.015L246.947 300.858C251.486 298.094 255.236 300.265 255.236 305.627V305.627ZM246.19 355.526L198.791 382.893V380.689L246.19 353.322V355.526ZM246.19 342.665V345.23L198.791 372.597V370.032L246.19 342.665ZM246.19 350.526L198.791 377.893V375.689L246.19 348.191V350.526ZM201.357 316.284C201.365 316.066 201.427 315.854 201.536 315.665C201.644 315.476 201.797 315.316 201.982 315.199L243.197 291.319C243.559 291.121 243.855 291.319 243.855 291.68V297.075C243.84 297.295 243.772 297.509 243.658 297.698C243.543 297.886 243.385 298.045 243.197 298.16L201.982 321.975C201.62 322.172 201.357 321.975 201.357 321.613V316.284ZM192.706 320.922C194.219 320.034 195.469 320.758 195.469 322.501C195.416 323.458 195.138 324.388 194.658 325.217C194.178 326.045 193.509 326.749 192.706 327.271C191.193 328.159 189.943 327.435 189.943 325.692C189.995 324.735 190.273 323.805 190.753 322.976C191.233 322.148 191.902 321.444 192.706 320.922V320.922ZM189.943 343.454C190.102 340.543 190.945 337.71 192.402 335.184C193.859 332.658 195.89 330.511 198.331 328.915L221.356 315.758V345.592L191.357 362.927C190.634 363.322 190.041 362.927 190.041 362.17L189.943 343.454ZM191.061 371.841C193.495 370.426 195.502 371.578 195.502 374.374C195.41 375.909 194.961 377.401 194.19 378.732C193.419 380.063 192.347 381.195 191.061 382.038C188.627 383.452 186.653 382.301 186.653 379.472C186.726 377.923 187.164 376.413 187.929 375.064C188.695 373.715 189.768 372.566 191.061 371.709V371.841ZM202.837 386.248C201.291 387.136 199.942 386.84 199.317 385.722L245.894 358.815C245.272 360.712 244.018 362.337 242.342 363.42L202.837 386.248Z" fill="white"/>
<path d="M890.239 796.03C895.206 794.748 921.685 779.584 924.382 777.841C927.079 776.097 932.408 772.216 932.408 765.703C932.408 759.881 931.816 705.344 927.079 678.997C925.514 670.796 922.291 663.001 917.607 656.09C912.924 649.178 906.88 643.295 899.844 638.801C883.397 628.605 866.951 621.204 852.84 626.993C838.728 632.782 826.163 643.439 820.67 656.333C815.177 669.228 811.394 695.016 811.032 704.982C810.671 714.949 811.032 749.158 811.032 752.184C811.032 755.21 811.559 759.19 827.939 769.321C844.32 779.452 866.885 791.623 873.99 794.748C879.14 796.858 884.821 797.306 890.239 796.03V796.03Z" fill="#137EE0"/>
<path d="M894.185 645.906C895.698 646.761 900.073 644.623 900.764 643.538C901.652 638.204 900.799 632.725 898.33 627.914C895.04 622.749 874.712 613.243 869.68 613.934C867.796 614.242 865.996 614.931 864.389 615.961C862.783 616.991 861.404 618.338 860.338 619.921C859.713 621.236 859.022 629.953 860.338 631.729C861.654 633.506 866.292 630.775 866.686 630.019C867.081 629.262 865.173 622.881 868.463 621.565C871.752 620.25 885.6 626.368 891.488 631.236C893.988 633.341 893.856 638.571 893.757 641.104C893.659 643.637 893.56 645.446 894.185 645.906Z" fill="#137EE0"/>
<path opacity="0.1" d="M894.185 645.906C895.698 646.761 900.073 644.623 900.764 643.538C901.652 638.204 900.799 632.725 898.33 627.914C895.04 622.749 874.712 613.243 869.68 613.934C867.796 614.242 865.996 614.931 864.389 615.961C862.783 616.991 861.404 618.338 860.338 619.921C859.713 621.236 859.022 629.953 860.338 631.729C861.654 633.506 866.292 630.775 866.686 630.019C867.081 629.262 865.173 622.881 868.463 621.565C871.752 620.25 885.6 626.368 891.488 631.236C893.988 633.341 893.856 638.571 893.757 641.104C893.659 643.637 893.56 645.446 894.185 645.906Z" fill="black"/>
<path opacity="0.1" d="M898.429 707.351C895.502 678.997 890.239 662.452 862.51 650.084C834.781 637.716 824.025 648.275 820.111 657.715C814.914 670.872 811.394 695.345 811.032 704.982C810.671 714.62 811.032 749.158 811.032 752.184C811.032 755.21 811.559 759.19 827.939 769.321C844.32 779.452 866.885 791.623 873.99 794.748C879.199 796.9 884.956 797.349 890.436 796.03C891.565 795.689 892.664 795.26 893.726 794.748C902.08 783.728 901.094 733.205 898.429 707.351Z" fill="black"/>
<path opacity="0.1" d="M833.793 639.032C841.029 634.789 852.904 631.993 870.337 639.755C901.52 653.636 909.447 671.037 912.572 701.496C913.164 707.088 913.986 713.732 914.348 720.903L916.914 719.357C916.552 711.627 915.828 705.015 915.171 699.029C911.881 668.274 902.507 651.301 872.705 638.012C856.259 630.677 845.371 631.664 838.201 635.249C836.668 636.434 835.197 637.697 833.793 639.032V639.032Z" fill="black"/>
<path d="M832.708 639.985C839.944 635.742 851.819 632.946 869.252 640.709C900.435 654.59 908.362 671.99 911.487 702.449C912.079 708.041 912.901 714.686 913.263 721.856L915.829 720.31C915.467 712.581 914.743 705.969 914.086 699.982C910.796 669.227 901.422 652.255 871.621 638.966C855.174 631.631 843.99 632.848 836.853 636.466C835.4 637.553 834.016 638.728 832.708 639.985Z" fill="white"/>
<path d="M842.807 666.761L852.215 661.366C852.684 661.112 853.233 661.049 853.748 661.19C854.263 661.331 854.703 661.665 854.978 662.123L864.648 678.931C864.783 679.161 864.87 679.416 864.904 679.681C864.939 679.945 864.921 680.214 864.85 680.471C864.78 680.729 864.659 680.969 864.494 681.179C864.33 681.389 864.125 681.564 863.892 681.694L854.715 687.121C854.251 687.387 853.702 687.459 853.185 687.324C852.669 687.189 852.226 686.856 851.952 686.398L842.084 669.491C841.949 669.265 841.861 669.014 841.824 668.753C841.787 668.493 841.803 668.228 841.871 667.973C841.938 667.719 842.056 667.48 842.216 667.272C842.377 667.064 842.578 666.89 842.807 666.761V666.761Z" fill="#37474F"/>
<path d="M852.904 685.214L843.628 669.195C843.558 669.081 843.512 668.954 843.492 668.822C843.473 668.69 843.48 668.556 843.514 668.426C843.547 668.297 843.607 668.176 843.689 668.071C843.771 667.965 843.873 667.878 843.99 667.813L852.543 662.945C852.776 662.821 853.048 662.789 853.304 662.856C853.56 662.923 853.781 663.084 853.924 663.307L863.068 679.26C863.138 679.374 863.185 679.5 863.204 679.632C863.224 679.764 863.217 679.899 863.183 680.028C863.149 680.157 863.09 680.278 863.008 680.384C862.926 680.489 862.823 680.577 862.706 680.641L854.286 685.575C854.052 685.7 853.78 685.732 853.524 685.665C853.268 685.598 853.047 685.436 852.904 685.214V685.214Z" fill="#455A64"/>
<path d="M850.898 677.55C850.651 677.398 850.442 677.192 850.288 676.947C850.134 676.701 850.039 676.423 850.01 676.135V668.471C850.01 667.978 850.405 667.813 850.898 668.076C851.15 668.226 851.364 668.431 851.524 668.676C851.684 668.921 851.785 669.2 851.819 669.491V677.155C851.819 677.648 851.425 677.813 850.898 677.55Z" fill="#37474F"/>
<path d="M855.898 680.411C855.647 680.264 855.435 680.059 855.281 679.813C855.126 679.566 855.033 679.286 855.01 678.997V671.333C855.01 670.839 855.404 670.675 855.898 670.971C856.145 671.122 856.354 671.328 856.508 671.574C856.662 671.819 856.757 672.097 856.786 672.385V680.049C856.786 680.543 856.391 680.707 855.898 680.411Z" fill="#37474F"/>
<path d="M912.672 715.64C911.872 718.588 911.355 721.606 911.126 724.652C911.126 725.277 911.949 725.606 912.212 725.606C914.179 725.185 915.997 724.242 917.475 722.876C917.2 720.278 916.728 717.705 916.06 715.179L912.672 715.64Z" fill="#263238"/>
<path d="M914.186 716.429C916.003 716.429 917.476 714.956 917.476 713.14C917.476 711.323 916.003 709.85 914.186 709.85C912.37 709.85 910.897 711.323 910.897 713.14C910.897 714.956 912.37 716.429 914.186 716.429Z" fill="#263238"/>
<path opacity="0.1" d="M869.778 621.401C866.192 621.072 862.805 621.401 861.949 624.986C861.161 627.368 861.161 629.94 861.949 632.322C863.767 632.096 865.464 631.288 866.785 630.019C867.212 629.23 865.271 622.881 868.561 621.565C868.963 621.49 869.376 621.49 869.778 621.565V621.401Z" fill="black"/>
<path d="M906.42 738.665L925.564 727.514C926.076 727.23 926.659 727.101 927.243 727.142C927.826 727.183 928.386 727.392 928.853 727.744C932.768 731.246 935.368 735.982 936.221 741.165C939.017 753.302 938.261 769.354 935.136 771.196L914.413 783.268C911.321 785.11 906.913 781.261 905.795 779.978C903.69 777.248 904.249 748.533 906.42 738.665Z" fill="#137EE0"/>
<path opacity="0.1" d="M906.42 738.665C906.42 738.665 910.334 741.954 912.999 754.026C915.663 766.098 917.538 781.459 914.413 783.268C911.288 785.077 906.913 781.261 905.795 779.979C903.69 777.248 904.249 748.533 906.42 738.665Z" fill="black"/>
<path opacity="0.1" d="M927.966 729.554C930.269 730.705 934.117 733.764 935.828 741.987C936.121 743.106 936.095 744.285 935.752 745.39C935.409 746.494 934.763 747.481 933.887 748.237C932.308 749.355 925.138 752.776 920.73 755.44C916.848 757.776 914.842 754.684 913.987 752.776C912.572 749.487 911.322 746.691 910.237 744.651C909.429 742.419 908.163 740.38 906.52 738.665L924.973 729.718C925.423 729.455 925.929 729.303 926.45 729.275C926.97 729.246 927.49 729.342 927.966 729.554V729.554Z" fill="black"/>
<path d="M925.828 727.35C926.304 727.096 926.835 726.964 927.374 726.964C927.913 726.964 928.444 727.096 928.92 727.35C931.19 728.468 935.071 731.56 936.782 739.783C937.08 740.897 937.057 742.072 936.713 743.173C936.369 744.274 935.72 745.254 934.841 746C933.262 747.118 926.091 750.539 921.684 753.237C917.802 755.539 915.796 752.48 914.941 750.539C910.237 740.671 906.52 738.764 906.52 738.764L925.828 727.35Z" fill="#137EE0"/>
<path opacity="0.4" d="M925.828 727.35C926.304 727.096 926.835 726.964 927.374 726.964C927.913 726.964 928.444 727.096 928.92 727.35C931.19 728.468 935.071 731.56 936.782 739.783C937.08 740.897 937.057 742.072 936.713 743.173C936.369 744.274 935.72 745.254 934.841 746C933.262 747.118 926.091 750.539 921.684 753.237C917.802 755.539 915.796 752.48 914.941 750.539C910.237 740.671 906.52 738.764 906.52 738.764L925.828 727.35Z" fill="white"/>
<path d="M823.235 711.956L880.14 744.849V748.204L823.235 715.311V711.956Z" fill="white"/>
<path opacity="0.1" d="M823.235 717.284L880.14 750.145V748.204L823.235 715.311V717.284Z" fill="black"/>
<path d="M882.015 749.618C882.799 752.569 883.306 755.586 883.528 758.631C883.528 759.256 882.706 759.585 882.475 759.585C880.508 759.163 878.69 758.22 877.212 756.855C877.487 754.257 877.96 751.684 878.627 749.158L882.015 749.618Z" fill="#263238"/>
<path d="M880.502 750.506C882.318 750.506 883.791 749.034 883.791 747.217C883.791 745.4 882.318 743.928 880.502 743.928C878.685 743.928 877.212 745.4 877.212 747.217C877.212 749.034 878.685 750.506 880.502 750.506Z" fill="#263238"/>
<path d="M941.222 1044.24L918.197 1041.87L922.967 1006.68L947.9 1009.01L941.222 1044.24Z" fill="#FFA8A7"/>
<path d="M920.138 1027.6L920.566 1024.47C918.296 1025.33 905.567 1048.52 897.771 1058.12C889.975 1067.73 876.851 1076.44 873.989 1083.71C871.128 1090.98 890.436 1096.08 897.245 1095.19C905.205 1094.14 919.119 1089.24 922.77 1084.24C926.421 1079.24 928.395 1071.77 931.355 1068.12C934.315 1064.47 945.762 1056.84 947.538 1050.56C948.03 1044.94 947.742 1039.29 946.683 1033.75C945.828 1029.64 946.19 1025.13 944.775 1025.46L944.15 1028.75C942.407 1030.53 936.881 1031.28 931.651 1031.22C928.296 1031.41 919.974 1030.16 920.138 1027.6Z" fill="#263238"/>
<path d="M863.267 998.685L838.926 996.218L851.491 958.325L877.312 957.634L863.267 998.685Z" fill="#FFA8A7"/>
<path d="M841.557 988.093C840.406 988.093 838.63 989.376 835.571 992.007C827.311 997.801 818.698 1003.07 809.782 1007.8C801.526 1011.94 785.507 1018.29 778.271 1021.55C773.732 1023.58 773.929 1029.05 778.633 1032.17C782.919 1035.19 787.765 1037.33 792.887 1038.46C798.01 1039.59 803.306 1039.69 808.467 1038.75C815.868 1037.1 839.222 1024.41 845.34 1024.8C851.458 1025.2 862.806 1025.07 867.312 1021.97C871.819 1018.88 869.746 1007.89 868.464 1002.24C867.082 996.02 868.266 989.409 866.194 989.836L864.747 994.08C862.115 998.093 840.143 994.968 840.472 991.35L841.557 988.093Z" fill="#263238"/>
<path d="M1065.23 792.182C1070.07 826.16 1063.55 832.706 1031.25 865.27C1013.85 882.802 977.111 907.176 977.111 907.176C978.949 921.532 977.681 936.114 973.394 949.937C965.533 975.66 946.027 1020.95 946.027 1020.95C941.88 1022.54 937.454 1023.27 933.016 1023.1C928.578 1022.93 924.221 1021.87 920.206 1019.97C920.206 1019.97 926.094 982.172 928.824 955.134C933.1 912.373 936.817 898.032 938.692 890.138C940.337 883.197 977.506 844.416 985.071 832.772L909.944 870.237C909.944 870.237 909.582 893.262 905.042 905.893C893.3 938.129 868.465 987.139 868.465 987.139C868.465 987.139 849.552 989.047 841.625 982.863C841.625 982.863 865.702 864.777 868.696 854.777C873.958 837.344 937.607 791.59 950.632 780.571C958.066 774.255 966.388 767.413 966.388 767.413L1065.23 792.182Z" fill="#37474F"/>
<path d="M1065.23 792.182L1045.33 787.248L1045.92 793.399C1045.68 817.307 1036.08 840.169 1019.18 857.08C990.924 884.94 966.847 901.222 965.432 907.242C964.018 913.261 962.373 965.265 936.947 1022.93C940.032 1022.67 943.065 1021.99 945.959 1020.89C945.959 1020.89 965.465 975.594 973.327 949.871C977.613 936.048 978.881 921.466 977.043 907.11C977.043 907.11 1013.79 882.737 1031.19 865.204C1063.49 832.706 1070 826.16 1065.23 792.182Z" fill="#263238"/>
<path d="M985.004 832.64C977.648 826.694 972.119 818.793 969.051 809.846C969.432 815.678 970.257 821.473 971.518 827.18C973.426 834.746 909.942 870.369 909.942 870.369L985.004 832.64Z" fill="#263238"/>
<path d="M970.532 703.666C970.532 703.666 925.698 659.458 917.508 652.123C906.877 643.928 893.485 640.168 880.142 641.63C868.563 643.604 869.188 652.485 879.221 656.728C895.667 663.701 900.733 670.115 900.305 670.839C899.877 671.563 888.431 666.102 883.562 668.833C878.694 671.563 881.227 675.049 883.562 675.707C885.898 676.365 895.897 681.069 901.259 682.713C906.62 684.358 914.416 684.49 921.718 689.588C929.021 694.687 957.671 738.665 969.841 745.704C982.012 752.743 983.656 704.653 983.656 704.653L970.532 703.666Z" fill="#FFA8A7"/>
<path d="M999.74 635.183C988.622 633.703 980.399 636.071 973.886 646.103C967.373 656.136 963.558 696.825 963.558 696.825C963.558 696.825 965.893 706.693 973.426 709.982C980.958 713.271 999.74 635.183 999.74 635.183Z" fill="#E0E0E0"/>
<path d="M1059.11 654.097C1059.11 654.097 1066.81 660.412 1066.81 680.411V723.534L1065.72 795.899C1050.3 812.674 980.894 806.326 963.756 769.584C963.756 769.584 966.256 692.121 968.559 675.148C971.848 652.123 977.506 635.446 999.741 634.953L1033.69 642.847L1059.11 654.097Z" fill="#F0F0F0"/>
<path d="M1079.28 863.659C1076.71 867.001 1073.43 869.731 1069.67 871.652C1064.75 873.77 1059.39 874.683 1054.05 874.316C1051.69 874.339 1049.36 873.904 1047.17 873.033C1046.2 872.648 1045.33 872.058 1044.61 871.303C1043.88 870.548 1043.34 869.646 1043 868.658C1042.67 866.685 1044.71 865.007 1046.09 863.889C1048.41 861.878 1050.55 859.678 1052.5 857.31C1053.49 856.192 1054.48 855.041 1055.36 853.824C1056.25 852.606 1057.34 850.534 1058.32 849.186C1058.88 848.363 1060.3 845.896 1058.92 845.304C1058.35 845.089 1057.73 845.089 1057.17 845.304C1055.4 845.732 1053.69 846.357 1051.88 846.751C1050.09 847.193 1048.22 847.101 1046.48 846.488C1046.08 846.357 1045.71 846.143 1045.4 845.859C1045.09 845.576 1044.84 845.23 1044.67 844.844C1044.55 844.441 1044.53 844.015 1044.61 843.602C1044.69 843.189 1044.87 842.802 1045.13 842.475C1045.65 841.807 1046.27 841.229 1046.98 840.765L1053.13 836.226C1057.17 833.2 1061.98 831.39 1064.97 827.048C1066.79 823.749 1067.91 820.11 1068.26 816.358C1070.63 804.221 1073.16 756.295 1073.16 756.295L1057.5 700.542C1057.5 700.542 1043.03 670.642 1059.08 654.261C1066.48 657.55 1075.17 656.892 1084.67 689.753C1091.48 713.337 1103.39 745.112 1103.39 755.539C1103.37 759.955 1102.94 764.36 1102.1 768.696C1097.73 791.721 1093.32 811.72 1089.41 834.91C1089.08 836.916 1089.14 838.923 1088.78 840.864C1086.35 854.646 1081.88 860.369 1079.28 863.659Z" fill="#FFA8A7"/>
<path d="M1059.11 654.097C1064.72 655.029 1069.89 657.711 1073.88 661.761C1080.44 670.793 1085.24 680.982 1088.02 691.792C1091.87 706.035 1097.89 724.258 1097.89 724.258C1093.62 728.539 1088.46 731.826 1082.77 733.884C1077.09 735.942 1071.02 736.721 1065 736.165L1053.22 697.811C1053.22 697.811 1041.97 664.063 1059.11 654.097Z" fill="#E0E0E0"/>
<path d="M1027.03 581.239C1030.99 564.443 1020.59 547.613 1003.8 543.648C986.999 539.684 970.169 550.087 966.205 566.883C962.241 583.68 972.643 600.51 989.44 604.474C1006.24 608.438 1023.07 598.036 1027.03 581.239Z" fill="#263238"/>
<path d="M1047.76 592.751C1047.76 592.751 1042.99 615.25 1041.18 619.065C1039.9 621.342 1037.8 623.038 1035.3 623.802L1035.63 607.98L1047.76 592.751Z" fill="#263238"/>
<path d="M1041.78 560.483C1043.46 560.3 1045.16 560.502 1046.74 561.071C1048.33 561.641 1049.77 562.565 1050.95 563.772C1054.9 567.785 1052.7 580.416 1047.67 592.784L1038.92 593.935L1041.78 560.483Z" fill="#263238"/>
<path d="M1036.06 593.935C1037.86 595.021 1040.43 591.534 1042.63 589.198C1043.51 588.196 1044.63 587.434 1045.89 586.984C1047.14 586.533 1048.49 586.409 1049.81 586.623C1051.12 586.837 1052.36 587.381 1053.41 588.206C1054.45 589.03 1055.28 590.108 1055.79 591.336C1059.51 599.132 1052.5 609.428 1046.84 611.237C1036.98 614.362 1035.46 607.948 1035.46 607.948L1034.71 643.604C1026.19 653.11 997.077 650.84 1002.57 642.65V631.795C998.157 632.51 993.679 632.742 989.216 632.486C981.947 631.367 977.374 625.611 975.171 617.75C971.651 605.119 970.302 594.922 973.296 570.055C976.585 542.819 1008.29 542.523 1025.4 553.279C1042.5 564.035 1036.06 593.935 1036.06 593.935Z" fill="#FFA8A7"/>
<path d="M1036.05 596.83C1036.94 596.83 1040.43 591.106 1042.63 589.067C1045.76 586.205 1041.75 560.483 1041.75 560.483C1042.56 558.258 1042.71 555.843 1042.17 553.535C1041.63 551.227 1040.43 549.126 1038.72 547.49C1034.44 542.786 1027.31 542.26 1015.1 540.352C1008.69 539.333 998.984 537.556 992.603 536.339C984.972 534.925 978.624 533.445 973.262 538.115C971.145 539.944 969.647 542.385 968.975 545.101C968.304 547.817 968.491 550.674 969.512 553.279C970.046 554.49 970.78 555.601 971.683 556.569C973.135 558.315 975.033 559.633 977.176 560.384C977.176 560.384 980.466 563.312 992.077 564.726C1002.76 565.529 1013.5 565.331 1024.15 564.134C1027.44 563.673 1028.23 566.93 1030.04 575.811C1031.68 583.541 1033 596.764 1036.05 596.83Z" fill="#263238"/>
<path d="M1041.75 562.489L1052.7 556.634C1052.35 555.893 1051.86 555.231 1051.25 554.687C1050.64 554.143 1049.93 553.729 1049.15 553.471C1048.37 553.212 1047.55 553.114 1046.74 553.183C1045.92 553.252 1045.13 553.486 1044.41 553.871C1042.95 554.698 1041.86 556.05 1041.37 557.652C1040.87 559.253 1041.01 560.984 1041.75 562.489Z" fill="#263238"/>
<path d="M1002.73 631.729C1002.73 631.729 1018.95 628.44 1024.61 625.447C1027.95 623.714 1030.69 621.007 1032.47 617.684C1031.62 621.006 1030.1 624.119 1028 626.828C1023.85 632.157 1002.73 636.071 1002.73 636.071V631.729Z" fill="#F28F8F"/>
<path d="M1006.52 589.725C1006.52 590.375 1006.71 591.011 1007.07 591.552C1007.43 592.093 1007.95 592.515 1008.55 592.764C1009.15 593.013 1009.81 593.078 1010.45 592.951C1011.08 592.824 1011.67 592.511 1012.13 592.051C1012.59 591.59 1012.9 591.004 1013.03 590.366C1013.16 589.728 1013.09 589.067 1012.84 588.466C1012.59 587.865 1012.17 587.351 1011.63 586.99C1011.09 586.628 1010.46 586.435 1009.8 586.435C1008.93 586.435 1008.1 586.782 1007.48 587.399C1006.86 588.016 1006.52 588.852 1006.52 589.725Z" fill="#263238"/>
<path d="M1011.75 576.272L1018.69 580.12C1019.19 579.165 1019.3 578.052 1019 577.016C1018.7 575.98 1018.01 575.1 1017.07 574.561C1016.61 574.313 1016.11 574.16 1015.59 574.112C1015.07 574.064 1014.54 574.122 1014.05 574.282C1013.55 574.441 1013.09 574.7 1012.69 575.042C1012.3 575.384 1011.97 575.802 1011.75 576.272V576.272Z" fill="#263238"/>
<path d="M1004.08 612.191L996.649 614.987C996.811 615.487 997.073 615.949 997.418 616.346C997.763 616.743 998.185 617.066 998.658 617.296C999.131 617.526 999.645 617.659 1000.17 617.686C1000.7 617.713 1001.22 617.634 1001.71 617.454C1002.72 617.056 1003.52 616.285 1003.97 615.302C1004.41 614.32 1004.45 613.204 1004.08 612.191V612.191Z" fill="#F28F8F"/>
<path d="M976.682 579.133L982.997 574.199C982.697 573.771 982.313 573.408 981.869 573.133C981.424 572.858 980.928 572.677 980.411 572.6C979.894 572.523 979.366 572.552 978.861 572.686C978.356 572.819 977.883 573.054 977.471 573.377C976.625 574.051 976.071 575.025 975.924 576.097C975.777 577.169 976.048 578.256 976.682 579.133V579.133Z" fill="#263238"/>
<path d="M979.478 588.804C979.478 589.676 979.825 590.513 980.441 591.13C981.058 591.746 981.895 592.093 982.767 592.093C983.64 592.093 984.476 591.746 985.093 591.13C985.71 590.513 986.057 589.676 986.057 588.804C986.057 587.931 985.71 587.095 985.093 586.478C984.476 585.861 983.64 585.514 982.767 585.514C981.895 585.514 981.058 585.861 980.441 586.478C979.825 587.095 979.478 587.931 979.478 588.804Z" fill="#263238"/>
<path d="M995.531 586.205L995.169 605.908L983.492 603.342L995.531 586.205Z" fill="#F28F8F"/>
<path d="M1213.25 154.977L1237.29 168.857C1237.16 167.766 1237.09 166.668 1237.1 165.568V158.595C1237.1 146.194 1245.78 141.162 1256.54 147.378C1261.15 150.216 1265.1 154.02 1268.11 158.529C1269.86 142.938 1282.09 137.116 1296.96 145.701C1313.01 154.977 1326.04 177.508 1326.04 196.06V206.487C1326.14 210.646 1325.3 214.775 1323.57 218.559L1343.54 230.072C1346.68 232.121 1349.29 234.88 1351.16 238.125C1353.04 241.371 1354.12 245.012 1354.33 248.755C1354.33 255.629 1349.49 258.425 1343.54 254.972L1213.25 179.844C1210.11 177.804 1207.5 175.051 1205.62 171.811C1203.75 168.57 1202.66 164.932 1202.46 161.193C1202.49 154.319 1207.33 151.523 1213.25 154.977Z" fill="#EBEBEB"/>
</svg>
