<svg width="1121" height="835" viewBox="0 0 1121 835" fill="none" xmlns="http://www.w3.org/2000/svg">
<path d="M1120.62 733.785H0V734.346H1120.62V733.785Z" fill="#EBEBEB"/>
<path d="M972.232 757.632H898.002V758.193H972.232V757.632Z" fill="#EBEBEB"/>
<path d="M701.668 757.363H682.191V757.924H701.668V757.363Z" fill="#EBEBEB"/>
<path d="M1008.34 769.847H965.33V770.407H1008.34V769.847Z" fill="#EBEBEB"/>
<path d="M256.848 777.288H160.048V777.848H256.848V777.288Z" fill="#EBEBEB"/>
<path d="M248.531 752.813H234.344V753.374H248.531V752.813Z" fill="#EBEBEB"/>
<path d="M556.839 755.212H420.346V755.772H556.839V755.212Z" fill="#EBEBEB"/>
<path d="M531.177 633.825H98.414C95.0238 633.82 91.7745 632.469 89.3793 630.069C86.9841 627.67 85.6389 624.418 85.6389 621.028V12.6855C85.6684 9.31469 87.0267 6.09167 89.4187 3.71648C91.8106 1.34129 95.0431 0.00577433 98.414 0H531.177C534.571 0 537.826 1.34831 540.226 3.74831C542.626 6.14832 543.975 9.40342 543.975 12.7975V621.028C543.975 624.422 542.626 627.677 540.226 630.077C537.826 632.477 534.571 633.825 531.177 633.825V633.825ZM98.414 0.448252C95.1724 0.454189 92.0656 1.74608 89.7755 4.04036C87.4854 6.33464 86.1992 9.44384 86.1992 12.6855V621.028C86.1992 624.27 87.4854 627.379 89.7755 629.673C92.0656 631.967 95.1724 633.259 98.414 633.265H531.177C534.421 633.259 537.53 631.968 539.824 629.674C542.117 627.381 543.408 624.272 543.414 621.028V12.6855C543.408 9.44178 542.117 6.33264 539.824 4.03899C537.53 1.74535 534.421 0.454176 531.177 0.448252H98.414Z" fill="#EBEBEB"/>
<path d="M1015.98 633.825H583.195C579.803 633.82 576.552 632.469 574.153 630.071C571.754 627.672 570.404 624.42 570.398 621.028V12.6855C570.433 9.31265 571.797 6.08965 574.192 3.71508C576.588 1.34051 579.822 0.00571135 583.195 0H1015.98C1019.35 0.0116646 1022.57 1.34979 1024.96 3.72435C1027.35 6.0989 1028.7 9.31856 1028.73 12.6855V621.028C1028.73 624.414 1027.39 627.663 1025 630.061C1022.61 632.46 1019.37 633.814 1015.98 633.825V633.825ZM583.195 0.448252C579.952 0.454176 576.843 1.74535 574.549 4.03899C572.255 6.33264 570.964 9.44178 570.958 12.6855V621.028C570.964 624.272 572.255 627.381 574.549 629.674C576.843 631.968 579.952 633.259 583.195 633.265H1015.98C1019.22 633.259 1022.33 631.968 1024.63 629.674C1026.92 627.381 1028.21 624.272 1028.22 621.028V12.6855C1028.21 9.44178 1026.92 6.33264 1024.63 4.03899C1022.33 1.74535 1019.22 0.454176 1015.98 0.448252H583.195Z" fill="#EBEBEB"/>
<path d="M961.25 92.6309H159.375V426.331H961.25V92.6309Z" fill="#F0F0F0"/>
<path d="M945.563 410.664V108.342L175.066 108.342V410.664L945.563 410.664Z" fill="#FAFAFA"/>
<path d="M276.502 410.642L355.529 108.32H413.801L334.775 410.642H276.502Z" fill="white"/>
<path d="M348.225 410.642L427.251 108.32H453.317L374.29 410.642H348.225Z" fill="white"/>
<path d="M475.751 410.642L554.8 108.32H613.073L534.024 410.642H475.751Z" fill="white"/>
<path d="M622.686 410.642L701.712 108.32H727.8L648.752 410.642H622.686Z" fill="white"/>
<path d="M381.482 410.664V108.342H377.493V410.664H381.482Z" fill="#E0E0E0"/>
<path d="M179.054 410.664L179.054 108.342H175.065L175.065 410.664H179.054Z" fill="#E0E0E0"/>
<path d="M377.492 410.664V108.342H361.803V410.664H377.492Z" fill="#F0F0F0"/>
<path d="M576.001 410.664V108.342H572.012V410.664H576.001Z" fill="#E0E0E0"/>
<path d="M572.01 410.664V108.342H556.321V410.664H572.01Z" fill="#F0F0F0"/>
<path d="M770.609 410.642V108.32H766.62V410.642H770.609Z" fill="#E0E0E0"/>
<path d="M766.619 410.642V108.32H750.931V410.642H766.619Z" fill="#F0F0F0"/>
<path d="M965.238 426.331V92.6309H961.248V426.331H965.238Z" fill="#E0E0E0"/>
<path d="M974.204 69.7254H146.421C145.501 69.7195 144.621 69.3516 143.971 68.7014C143.321 68.0512 142.953 67.1709 142.947 66.2514V66.2514C142.947 65.328 143.312 64.4421 143.963 63.787C144.614 63.132 145.497 62.761 146.421 62.7551H974.204C975.127 62.761 976.011 63.132 976.662 63.787C977.313 64.4421 977.678 65.328 977.678 66.2514V66.2514C977.672 67.1709 977.304 68.0512 976.654 68.7014C976.004 69.3516 975.123 69.7195 974.204 69.7254V69.7254Z" fill="#E0E0E0"/>
<g opacity="0.6">
<path opacity="0.6" d="M319.019 56.0315H149.67V664.912H319.019V56.0315Z" fill="#F5F5F5"/>
<path opacity="0.6" d="M241.428 669.888H227.241L231.231 61.0071H237.573L241.428 669.888Z" fill="#E6E6E6"/>
<path opacity="0.6" d="M194.429 669.888H187.571L189.498 61.0071H192.569L194.429 669.888Z" fill="#E6E6E6"/>
<path opacity="0.6" d="M288.56 669.888H281.702L283.63 61.0071H286.7L288.56 669.888Z" fill="#E6E6E6"/>
</g>
<g opacity="0.6">
<path opacity="0.6" d="M968.939 56.0315H799.59V664.912H968.939V56.0315Z" fill="#F5F5F5"/>
<path opacity="0.6" d="M865.952 669.888H851.765L855.754 61.0071H862.097L865.952 669.888Z" fill="#E6E6E6"/>
<path opacity="0.6" d="M834.642 669.888H827.806L829.711 61.0071H832.782L834.642 669.888Z" fill="#E6E6E6"/>
<path opacity="0.6" d="M907.1 669.888H900.264L902.192 61.0071H905.24L907.1 669.888Z" fill="#E6E6E6"/>
<path opacity="0.6" d="M941.974 669.888H935.138L937.043 61.0071H940.113L941.974 669.888Z" fill="#E6E6E6"/>
</g>
<path d="M728.875 729.975H760.701V547.582H728.875V729.975Z" fill="#E6E6E6"/>
<path d="M359.921 729.975H741.135V547.582H359.921V729.975Z" fill="#F0F0F0"/>
<path d="M732.575 729.975H721.1H376.373V733.785H721.1H732.575H744.252V729.975H732.575Z" fill="#E0E0E0"/>
<path opacity="0.5" d="M370.793 632.593H730.268V558.99H370.793V632.593Z" fill="#FAFAFA"/>
<path opacity="0.5" d="M370.793 718.074H730.268V644.471H370.793V718.074Z" fill="#FAFAFA"/>
<path d="M425.278 595.791C425.278 597.392 424.803 598.956 423.914 600.287C423.025 601.617 421.762 602.654 420.283 603.266C418.805 603.879 417.178 604.039 415.609 603.727C414.039 603.415 412.597 602.644 411.466 601.513C410.334 600.381 409.564 598.939 409.252 597.37C408.939 595.8 409.1 594.174 409.712 592.695C410.324 591.217 411.361 589.953 412.692 589.064C414.023 588.175 415.587 587.701 417.187 587.701C418.25 587.701 419.302 587.91 420.283 588.316C421.265 588.723 422.157 589.319 422.908 590.07C423.66 590.822 424.256 591.714 424.662 592.695C425.069 593.677 425.278 594.729 425.278 595.791V595.791Z" fill="#E0E0E0"/>
<path d="M691.942 595.791C691.942 597.392 691.468 598.956 690.579 600.287C689.69 601.617 688.426 602.654 686.948 603.266C685.469 603.879 683.842 604.039 682.273 603.727C680.703 603.415 679.262 602.644 678.13 601.513C676.999 600.381 676.228 598.939 675.916 597.37C675.604 595.8 675.764 594.174 676.376 592.695C676.989 591.217 678.026 589.953 679.356 589.064C680.687 588.175 682.251 587.701 683.851 587.701C684.914 587.701 685.966 587.91 686.948 588.316C687.929 588.723 688.821 589.319 689.573 590.07C690.324 590.822 690.92 591.714 691.326 592.695C691.733 593.677 691.942 594.729 691.942 595.791V595.791Z" fill="#E0E0E0"/>
<path d="M417.187 689.364C421.656 689.364 425.278 685.741 425.278 681.273C425.278 676.804 421.656 673.182 417.187 673.182C412.719 673.182 409.096 676.804 409.096 681.273C409.096 685.741 412.719 689.364 417.187 689.364Z" fill="#E0E0E0"/>
<path d="M691.942 681.34C691.942 682.94 691.468 684.505 690.579 685.835C689.69 687.166 688.426 688.203 686.948 688.815C685.469 689.427 683.842 689.588 682.273 689.276C680.703 688.963 679.262 688.193 678.13 687.061C676.999 685.93 676.228 684.488 675.916 682.919C675.604 681.349 675.764 679.722 676.376 678.244C676.989 676.765 678.026 675.502 679.356 674.613C680.687 673.724 682.251 673.249 683.851 673.249C685.997 673.249 688.055 674.102 689.573 675.619C691.09 677.136 691.942 679.194 691.942 681.34V681.34Z" fill="#E0E0E0"/>
<path d="M558.61 595.791C558.61 597.392 558.136 598.956 557.246 600.287C556.357 601.617 555.094 602.654 553.615 603.266C552.137 603.879 550.51 604.039 548.941 603.727C547.371 603.415 545.93 602.644 544.798 601.513C543.666 600.381 542.896 598.939 542.584 597.37C542.272 595.8 542.432 594.174 543.044 592.695C543.656 591.217 544.694 589.953 546.024 589.064C547.355 588.175 548.919 587.701 550.519 587.701C551.582 587.701 552.634 587.91 553.615 588.316C554.597 588.723 555.489 589.319 556.24 590.07C556.992 590.822 557.588 591.714 557.994 592.695C558.401 593.677 558.61 594.729 558.61 595.791V595.791Z" fill="#E0E0E0"/>
<path d="M550.519 689.364C554.988 689.364 558.61 685.741 558.61 681.273C558.61 676.804 554.988 673.182 550.519 673.182C546.051 673.182 542.428 676.804 542.428 681.273C542.428 685.741 546.051 689.364 550.519 689.364Z" fill="#E0E0E0"/>
<path d="M717.559 516.608C717.559 524.823 714.295 532.701 708.486 538.51C702.678 544.319 694.799 547.582 686.584 547.582C678.37 547.582 670.491 544.319 664.682 538.51C658.874 532.701 655.61 524.823 655.61 516.608H717.559Z" fill="#F0F0F0"/>
<path d="M472.658 511.005C472.658 520.688 468.811 529.975 461.964 536.821C455.117 543.668 445.831 547.515 436.148 547.515C426.465 547.515 417.178 543.668 410.331 536.821C403.484 529.975 399.638 520.688 399.638 511.005H472.658Z" fill="#F0F0F0"/>
<path d="M629.613 526.089C629.613 531.789 627.348 537.256 623.318 541.287C619.287 545.318 613.82 547.582 608.119 547.582C602.419 547.582 596.952 545.318 592.921 541.287C588.89 537.256 586.626 531.789 586.626 526.089H629.613Z" fill="#F0F0F0"/>
<path d="M560.312 835C800.31 835 994.868 823.641 994.868 809.629C994.868 795.617 800.31 784.258 560.312 784.258C320.313 784.258 125.756 795.617 125.756 809.629C125.756 823.641 320.313 835 560.312 835Z" fill="#F5F5F5"/>
<path d="M780.294 135.282C775.52 130.508 766.331 112.421 775.139 103.905C783.947 95.3879 791.792 103.12 792.397 107.266C793.002 111.413 791.388 146.354 780.294 135.282Z" fill="#263238"/>
<path d="M778.277 785.894L758.263 786.074L752.817 739.814L772.808 739.635L778.277 785.894Z" fill="#FF8B7B"/>
<path d="M758.243 783.765L780.072 783.563C780.475 783.569 780.865 783.703 781.188 783.944C781.51 784.186 781.747 784.523 781.865 784.908L787.155 802.636C787.295 803.049 787.334 803.489 787.269 803.92C787.203 804.351 787.034 804.76 786.777 805.112C786.52 805.464 786.181 805.748 785.791 805.942C785.4 806.135 784.968 806.231 784.533 806.222C776.666 806.222 765.235 805.797 755.396 805.886C743.831 805.886 738.677 806.693 725.095 806.827C716.892 806.827 713.888 798.625 717.362 797.862C732.76 794.299 740.716 793.828 753.603 785.379C754.96 784.4 756.572 783.84 758.243 783.765V783.765Z" fill="#263238"/>
<path opacity="0.2" d="M752.817 739.837L755.64 763.683L775.632 763.504L772.831 739.657L752.817 739.837Z" fill="black"/>
<path d="M749.972 787.329C752.13 787.29 754.278 787.027 756.382 786.544C756.481 786.529 756.573 786.482 756.642 786.408C756.711 786.335 756.754 786.241 756.763 786.141C756.772 786.044 756.751 785.947 756.703 785.863C756.654 785.779 756.581 785.711 756.494 785.67C755.552 785.199 747.148 781.188 744.839 782.6C744.626 782.736 744.451 782.925 744.334 783.149C744.216 783.373 744.158 783.624 744.167 783.877C744.161 784.308 744.256 784.735 744.442 785.124C744.629 785.512 744.903 785.853 745.243 786.118C746.644 787.028 748.305 787.453 749.972 787.329V787.329ZM754.768 785.894C750.442 786.656 747.148 786.499 745.803 785.424C745.57 785.242 745.385 785.006 745.264 784.736C745.143 784.467 745.089 784.172 745.108 783.877C745.095 783.785 745.109 783.692 745.149 783.608C745.189 783.524 745.253 783.454 745.332 783.406C746.587 782.644 751.339 784.437 754.768 785.894V785.894Z" fill="#137EE0"/>
<path d="M756.292 786.679C756.398 786.671 756.499 786.632 756.583 786.567C756.651 786.516 756.702 786.446 756.73 786.366C756.758 786.287 756.761 786.2 756.74 786.118C756.74 785.76 755.171 777.153 750.42 777.691C749.165 777.826 748.806 778.476 748.739 778.969C748.403 781.21 753.535 785.558 756.09 786.634L756.292 786.679ZM750.823 778.61C753.692 778.61 755.126 783.295 755.62 785.334C752.975 783.855 749.478 780.448 749.68 779.103C749.68 779.103 749.68 778.722 750.532 778.633L750.823 778.61Z" fill="#137EE0"/>
<path d="M764.136 236.295L762.074 238.536L760.146 240.441C758.869 241.696 757.546 242.884 756.224 244.05C753.594 246.411 750.905 248.652 748.155 250.773C742.607 255.183 736.767 259.212 730.674 262.831C727.603 264.647 724.443 266.373 721.238 268.009C718.033 269.645 714.649 271.057 711.242 272.491C704.256 275.278 696.978 277.27 689.547 278.43L687.888 278.677C686.811 278.816 685.725 278.883 684.638 278.879C682.143 278.855 679.673 278.369 677.354 277.444C675.055 276.521 672.95 275.176 671.146 273.477C669.71 272.108 668.459 270.555 667.426 268.86C665.995 266.401 664.916 263.753 664.221 260.994C663.677 258.857 663.28 256.685 663.033 254.494C662.625 250.706 662.513 246.892 662.697 243.086C662.853 239.455 663.145 235.959 663.548 232.53C664.4 225.649 665.61 219.082 667.09 212.358C668.569 205.635 670.25 199.426 672.424 192.927L687.149 195.84C686.611 208.436 686.006 221.346 686.409 233.538C686.482 239.2 687.083 244.842 688.202 250.392C688.423 251.418 688.731 252.422 689.121 253.396C689.435 254.158 689.816 254.628 689.793 254.427C689.663 254.085 689.456 253.779 689.188 253.53C688.578 252.94 687.864 252.469 687.081 252.141C686.276 251.802 685.42 251.598 684.549 251.535C684.145 251.535 683.966 251.535 683.72 251.535H683.966L684.437 251.401C689.746 250.037 694.91 248.161 699.857 245.798C705.032 243.3 710.041 240.471 714.851 237.326C719.714 234.099 724.51 230.602 729.127 226.904C731.369 225.066 733.722 223.139 735.851 221.189L739.123 218.231L740.692 216.774L742.059 215.474L764.136 236.295Z" fill="#FF8B7B"/>
<path d="M775.993 228.383C775.231 207.248 757.884 199.897 736.143 214.308C726.559 220.385 717.333 227.008 708.509 234.143L722.561 279.282C722.561 279.282 749.456 270.743 765.011 253.979C775.477 242.593 776.262 235.578 775.993 228.383Z" fill="#263238"/>
<path opacity="0.2" d="M749.523 237.393C749.523 237.393 736.546 255.951 731.952 275.674C738.332 272.953 744.478 269.715 750.33 265.991L749.523 237.393Z" fill="black"/>
<path d="M686.409 202.542L693.94 185.531L672.625 179.3C672.625 179.3 668.972 187.436 671.056 201.399L686.409 202.542Z" fill="#FF8B7B"/>
<path d="M696.202 165.584L677.667 167.802L672.624 179.3L693.939 185.531L696.202 165.584Z" fill="#FF8B7B"/>
<path d="M749.657 381.595C749.657 381.595 735.895 496.93 734.371 558.654C732.802 622.776 745.376 752.119 745.376 752.119L781.482 751.357C781.482 751.357 785.83 612.892 791.075 549.442C796.768 480.277 811.112 380.34 811.112 380.34L749.657 381.595Z" fill="#E1BC14"/>
<path opacity="0.6" d="M749.657 381.595C749.657 381.595 735.895 496.93 734.371 558.654C732.802 622.776 745.376 752.119 745.376 752.119L781.482 751.357C781.482 751.357 785.83 612.892 791.075 549.442C796.768 480.277 811.112 380.34 811.112 380.34L749.657 381.595Z" fill="white"/>
<path opacity="0.2" d="M792.667 414.25C776.53 449.819 780.856 529.271 790.023 563.338C790.359 558.385 790.717 553.701 791.076 549.375C794.819 503.788 802.282 444.866 807.011 409.97C802.618 403.604 797.71 403.111 792.667 414.25Z" fill="black"/>
<path d="M785.919 752.903L743.47 753.755L740.332 739.657L785.404 739.545L785.919 752.903Z" fill="#137EE0"/>
<path d="M867.459 785.894L847.467 786.074L842.021 739.814L862.013 739.635L867.459 785.894Z" fill="#FF8B7B"/>
<path d="M847.42 783.765L869.272 783.563C869.674 783.573 870.063 783.707 870.384 783.948C870.706 784.189 870.944 784.525 871.065 784.908L876.355 802.636C876.49 803.049 876.525 803.488 876.457 803.916C876.389 804.345 876.22 804.752 875.964 805.102C875.707 805.453 875.371 805.737 874.983 805.932C874.595 806.127 874.167 806.226 873.732 806.222C865.843 806.222 854.435 805.797 844.596 805.886C833.031 805.886 827.854 806.693 814.295 806.827C806.092 806.827 803.088 798.625 806.562 797.862C821.937 794.299 829.894 793.828 842.803 785.379C844.151 784.401 845.757 783.84 847.42 783.765V783.765Z" fill="#263238"/>
<path opacity="0.2" d="M842.021 739.837L844.822 763.683L864.837 763.504L862.035 739.657L842.021 739.837Z" fill="black"/>
<path d="M839.174 787.329C841.331 787.287 843.479 787.024 845.583 786.544C845.681 786.529 845.769 786.48 845.835 786.407C845.9 786.333 845.938 786.239 845.942 786.141C845.957 786.046 845.94 785.95 845.896 785.865C845.852 785.78 845.781 785.712 845.695 785.67C844.732 785.199 836.327 781.188 834.041 782.6C833.824 782.732 833.648 782.921 833.529 783.146C833.411 783.371 833.355 783.623 833.369 783.877C833.364 784.306 833.456 784.73 833.639 785.118C833.821 785.506 834.089 785.848 834.422 786.118C835.833 787.025 837.5 787.45 839.174 787.329ZM843.97 785.894C839.644 786.656 836.35 786.499 835.005 785.424C834.773 785.239 834.588 785.003 834.464 784.735C834.339 784.467 834.279 784.173 834.288 783.877C834.274 783.785 834.289 783.692 834.329 783.608C834.368 783.524 834.432 783.454 834.512 783.406C835.767 782.644 840.473 784.437 843.97 785.894V785.894Z" fill="#137EE0"/>
<path d="M845.47 786.679C845.539 786.676 845.606 786.659 845.668 786.629C845.73 786.599 845.785 786.556 845.83 786.503C845.874 786.45 845.907 786.389 845.926 786.323C845.945 786.256 845.95 786.187 845.941 786.118C845.941 785.76 844.372 777.153 839.62 777.691C838.365 777.826 838.006 778.476 837.917 778.969C837.603 781.21 842.736 785.558 845.291 786.634L845.47 786.679ZM840.024 778.61C842.87 778.61 844.327 783.295 844.82 785.334C842.175 783.855 838.656 780.448 838.858 779.103C838.858 779.103 838.858 778.722 839.71 778.633L840.024 778.61Z" fill="#137EE0"/>
<path d="M784.891 380.833C784.891 380.833 794.864 504.931 802.148 566.162C809.701 629.858 834.579 752.051 834.579 752.051L870.686 751.289C870.686 751.289 860.78 612.556 856.947 548.994C852.756 479.628 851.68 379.309 851.68 379.309L784.891 380.833Z" fill="#E1BC14"/>
<path opacity="0.6" d="M784.891 380.833C784.891 380.833 794.864 504.931 802.148 566.162C809.701 629.858 834.579 752.051 834.579 752.051L870.686 751.289C870.686 751.289 860.78 612.556 856.947 548.994C852.756 479.628 851.68 379.309 851.68 379.309L784.891 380.833Z" fill="white"/>
<path d="M875.122 752.903L832.65 753.755L829.535 739.657L874.606 739.545L875.122 752.903Z" fill="#137EE0"/>
<path d="M747.169 208.772C747.169 208.772 732.399 263.593 749.657 381.595C781.886 380.9 836.012 379.645 851.679 379.354C852.082 362.926 839.957 282.375 854.144 204.716C843.937 202.953 833.614 201.95 823.259 201.712C808.102 201.159 792.926 201.488 777.807 202.699C767.452 203.924 757.208 205.954 747.169 208.772V208.772Z" fill="#263238"/>
<path opacity="0.2" d="M847.957 259.985L831.26 246.157C832.358 256.959 842.13 283.429 847.284 296.831C847.195 285.087 847.307 272.693 847.957 259.985Z" fill="black"/>
<path d="M788.229 240.553L770.008 276.615C769.623 277.372 769.488 278.232 769.623 279.071C769.758 279.909 770.156 280.683 770.759 281.282C771.362 281.88 772.14 282.271 772.979 282.399C773.819 282.527 774.678 282.385 775.432 281.994L787.333 275.45C787.98 275.102 788.711 274.942 789.444 274.99C790.178 275.038 790.882 275.29 791.479 275.719L803.201 284.168C803.874 284.658 804.687 284.918 805.519 284.91C806.352 284.902 807.16 284.626 807.823 284.123C808.487 283.621 808.971 282.918 809.204 282.119C809.437 281.319 809.407 280.466 809.118 279.686L795.424 241.181C795.186 240.449 794.737 239.802 794.135 239.323C793.532 238.844 792.801 238.552 792.034 238.485C791.267 238.419 790.497 238.579 789.82 238.947C789.144 239.314 788.59 239.873 788.229 240.553Z" fill="white"/>
<path d="M817.656 150.522C815.101 165.225 812.815 192.075 823.259 201.6C823.259 201.6 820.211 214.913 792.397 219.53C773.705 213.524 777.806 202.676 777.806 202.676C794.033 198.418 793.338 186.338 790.268 175.042L817.656 150.522Z" fill="#FF8B7B"/>
<path opacity="0.2" d="M806.493 160.496L790.266 174.93C791.022 177.561 791.546 180.253 791.835 182.976C798.066 181.945 806.47 174.907 806.986 168.385C807.304 165.747 807.136 163.074 806.493 160.496V160.496Z" fill="black"/>
<path d="M826.554 132.435C821.152 151.531 818.978 162.984 807.055 170.806C789.125 182.55 767.138 168.564 766.712 148.191C766.309 129.903 775.184 101.73 795.849 98.1443C800.388 97.3391 805.057 97.7062 809.414 99.2107C813.772 100.715 817.673 103.307 820.748 106.742C823.823 110.176 825.97 114.338 826.986 118.835C828.002 123.331 827.853 128.013 826.554 132.435V132.435Z" fill="#FF8B7B"/>
<path d="M815.058 144.135C812.548 138.039 810.732 117.957 821.199 113.026C831.665 108.096 842.536 120.131 839.779 125.824C835.543 134.654 820.885 158.255 815.058 144.135Z" fill="#263238"/>
<path d="M821.31 120.109C818.733 113.385 788.005 109.575 783.702 102.335C778.592 93.7291 799.548 92.6981 813.959 97.0685C826.622 100.923 835.071 104.644 833.592 114.057C832.763 119.391 821.31 120.109 821.31 120.109Z" fill="#263238"/>
<path d="M827.989 113.183C827.989 113.183 834.712 115.021 838.388 110.09C837.223 114.976 831.507 119.907 827.989 113.183Z" fill="#263238"/>
<path d="M797.216 92.4516C787.982 85.2796 775.409 93.7067 776.596 103.053C777.784 112.399 808.915 119.503 808.915 119.503C808.915 119.503 809.476 101.977 797.216 92.4516Z" fill="#263238"/>
<path d="M776.619 103.098C778.031 109.642 782.805 114.775 792.464 118.585C786.874 114.45 782.638 108.748 780.295 102.201L776.619 103.098Z" fill="#263238"/>
<path d="M796.005 131.472C795.668 133.063 794.57 134.161 793.539 133.937C792.508 133.713 791.948 132.234 792.284 130.665C792.62 129.096 793.741 127.998 794.772 128.222C795.803 128.446 796.363 129.992 796.005 131.472Z" fill="#263238"/>
<path d="M778.211 127.617C777.852 129.186 776.754 130.284 775.723 130.06C774.692 129.836 774.132 128.379 774.468 126.81C774.804 125.241 775.925 124.143 776.956 124.344C777.987 124.546 778.547 126.048 778.211 127.617Z" fill="#263238"/>
<path d="M783.702 129.634C780.776 134.043 777.253 138.025 773.235 141.468C775.476 144.673 780.474 144.516 780.474 144.516L783.702 129.634Z" fill="#FF5652"/>
<path d="M784.106 149.872C786.21 150.395 788.41 150.401 790.518 149.89C792.625 149.379 794.577 148.365 796.209 146.936C796.253 146.893 796.289 146.84 796.313 146.782C796.337 146.725 796.35 146.663 796.35 146.6C796.35 146.538 796.337 146.476 796.313 146.418C796.289 146.36 796.253 146.308 796.209 146.264C796.117 146.179 795.997 146.132 795.872 146.132C795.748 146.132 795.628 146.179 795.536 146.264C794.006 147.552 792.195 148.464 790.25 148.927C788.304 149.39 786.276 149.392 784.33 148.931C784.205 148.904 784.075 148.928 783.968 148.998C783.86 149.067 783.785 149.176 783.758 149.301C783.732 149.426 783.756 149.556 783.825 149.663C783.894 149.77 784.003 149.846 784.128 149.872H784.106Z" fill="#263238"/>
<path d="M802.618 126.9C802.79 126.934 802.968 126.921 803.133 126.861C803.298 126.802 803.444 126.699 803.555 126.563C803.665 126.427 803.737 126.263 803.761 126.089C803.786 125.916 803.763 125.739 803.694 125.577C803.089 124.197 802.163 122.981 800.994 122.03C799.824 121.079 798.445 120.42 796.97 120.109C796.721 120.076 796.469 120.143 796.268 120.293C796.067 120.444 795.933 120.667 795.894 120.915C795.875 121.038 795.88 121.162 795.909 121.282C795.939 121.403 795.991 121.516 796.064 121.616C796.137 121.716 796.228 121.8 796.334 121.865C796.44 121.929 796.557 121.972 796.679 121.991V121.991C797.842 122.247 798.927 122.777 799.843 123.537C800.759 124.297 801.48 125.266 801.946 126.362C802.009 126.497 802.102 126.617 802.219 126.71C802.335 126.803 802.472 126.868 802.618 126.9V126.9Z" fill="#263238"/>
<path d="M771.712 119.795C771.887 119.844 772.074 119.837 772.246 119.777C772.418 119.717 772.568 119.606 772.675 119.459C773.385 118.507 774.308 117.735 775.371 117.205C776.434 116.676 777.607 116.404 778.794 116.411C779.044 116.434 779.293 116.358 779.486 116.198C779.679 116.039 779.801 115.809 779.825 115.559C779.849 115.309 779.772 115.06 779.613 114.867C779.453 114.674 779.223 114.552 778.973 114.528C777.47 114.483 775.977 114.802 774.623 115.458C773.27 116.113 772.094 117.086 771.196 118.293C771.117 118.389 771.057 118.5 771.022 118.62C770.987 118.739 770.976 118.864 770.991 118.988C771.006 119.112 771.045 119.231 771.108 119.339C771.17 119.447 771.253 119.541 771.353 119.616C771.455 119.706 771.579 119.767 771.712 119.795V119.795Z" fill="#263238"/>
<path d="M859.029 220.001C863.108 227.128 866.515 234.031 870.056 241.136C873.598 248.241 876.78 255.391 879.806 262.697C882.831 270.003 885.767 277.422 888.323 285.109C890.979 292.776 893.224 300.579 895.046 308.486L896.413 314.604C897.011 317.478 897.267 320.412 897.175 323.345C896.985 328.796 895.777 334.163 893.612 339.168C889.806 347.603 884.394 355.216 877.677 361.581C871.685 367.366 865.156 372.567 858.178 377.113C854.793 379.354 851.297 381.416 847.778 383.388C844.26 385.361 840.763 387.176 836.841 388.902L829.4 375.88C832.112 373.639 835.093 371.398 837.872 368.977C840.651 366.556 843.363 364.091 846.052 361.626C851.246 356.808 856.064 351.601 860.464 346.049C864.377 341.288 867.412 335.87 869.429 330.047C870.122 327.877 870.396 325.595 870.236 323.323C870.17 322.409 869.997 321.506 869.72 320.633L868.196 315.613C863.667 301.688 858.278 288.057 852.059 274.8C848.989 268.076 845.716 261.352 842.444 254.628C839.172 247.905 835.72 241.181 832.381 234.793L859.029 220.001Z" fill="#FF8B7B"/>
<path d="M854.906 204.828C873.598 208.862 886.597 257.632 886.597 257.632L853.18 287.956C842.555 276.136 834.198 262.46 828.526 247.613C819.673 223.206 834.914 200.48 854.906 204.828Z" fill="#263238"/>
<path d="M833.456 373.572L811.962 373.796L825.41 395.469C825.41 395.469 840.718 391.681 842.085 383.993L833.456 373.572Z" fill="#FF8B7B"/>
<path d="M798.583 386.593L810.44 403.985L825.299 395.469L811.964 373.796L798.583 386.593Z" fill="#FF8B7B"/>
<path d="M832.426 149.917C830.038 154.311 826.01 157.582 821.219 159.017C814.854 160.877 811.604 155.207 813.308 149.178C814.854 143.754 820.032 136.246 826.397 137.03C832.762 137.815 835.272 144.516 832.426 149.917Z" fill="#FF8B7B"/>
<path d="M641.925 520.747L618.029 522.48L618.191 524.716L642.087 522.982L641.925 520.747Z" fill="#137EE0"/>
<path d="M663.396 519.198L651.66 520.049L651.822 522.285L663.558 521.433L663.396 519.198Z" fill="#137EE0"/>
<path d="M766.509 256.108L370.793 284.639C362.558 285.281 354.907 289.146 349.503 295.394C344.099 301.642 341.376 309.769 341.926 318.011L355.374 504.528C356.01 512.776 359.879 520.439 366.137 525.85C372.395 531.26 380.537 533.98 388.791 533.418L411.203 531.804C412.832 531.687 414.44 532.22 415.675 533.288C416.911 534.355 417.672 535.869 417.792 537.497L420.303 572.057C420.344 572.726 420.584 573.368 420.992 573.9C421.401 574.431 421.959 574.829 422.595 575.041C423.231 575.253 423.916 575.27 424.562 575.09C425.208 574.909 425.785 574.54 426.22 574.029L463.738 530.661C465.316 528.844 467.547 527.725 469.946 527.546L784.439 504.887C792.678 504.25 800.334 500.388 805.743 494.139C811.153 487.891 813.878 479.761 813.328 471.514L799.881 284.998C799.244 276.758 795.382 269.102 789.133 263.693C782.885 258.283 774.755 255.558 766.509 256.108V256.108Z" fill="#137EE0"/>
<path d="M428.596 370.255L449.977 368.708L451.725 392.914L475.079 391.233L473.331 367.027L494.802 365.458L499.8 434.623L478.329 436.17L476.312 408.199L452.958 409.902L454.975 437.873L433.616 439.42L428.596 370.255Z" fill="white"/>
<path opacity="0.2" d="M370.793 284.639C362.557 285.281 354.906 289.146 349.502 295.394C344.098 301.641 341.375 309.768 341.925 318.011L355.373 504.528C356.009 512.776 359.878 520.439 366.136 525.849C372.394 531.26 380.536 533.98 388.79 533.417L392.084 533.171C397.558 532.775 402.749 530.584 406.85 526.936C410.951 523.289 413.734 518.39 414.766 513L459.837 278.206L370.793 284.639Z" fill="black"/>
<path d="M566.879 409.387L528.375 412.166C528.67 414.66 529.717 417.005 531.378 418.89C532.33 419.892 533.502 420.66 534.8 421.134C536.099 421.609 537.49 421.776 538.864 421.624C540.751 421.489 542.573 420.872 544.153 419.831C545.39 418.894 546.446 417.74 547.268 416.424L566.319 416.805C564.246 421.502 560.88 425.513 556.614 428.37C552.7 430.85 546.917 432.345 539.267 432.853C533.919 433.475 528.498 432.901 523.399 431.172C519.311 429.455 515.802 426.6 513.291 422.946C510.412 418.787 508.758 413.902 508.517 408.849C508.117 405.339 508.457 401.785 509.515 398.415C510.572 395.045 512.325 391.934 514.658 389.283C519.32 384.083 526.044 381.162 534.829 380.519C540.646 379.828 546.543 380.519 552.042 382.537C556.253 384.335 559.8 387.398 562.195 391.3C564.937 396.146 566.474 401.581 566.678 407.145L566.879 409.387ZM546.708 401.587C546.435 398.673 545.179 395.938 543.144 393.832C542.12 393.044 540.944 392.474 539.69 392.159C538.437 391.844 537.131 391.79 535.856 392C534.58 392.21 533.361 392.68 532.275 393.381C531.188 394.082 530.258 394.998 529.54 396.074C528.344 398.182 527.74 400.575 527.792 402.999L546.708 401.587Z" fill="white"/>
<path d="M572.818 359.833L592.07 358.443L597.068 427.586L577.816 428.975L572.818 359.833Z" fill="white"/>
<path d="M604.981 357.502L624.233 356.112L629.231 425.255L610.001 426.644L604.981 357.502Z" fill="white"/>
<path d="M637.344 399.637C636.981 396.13 637.359 392.585 638.456 389.233C639.553 385.881 641.343 382.798 643.71 380.183C648.506 374.849 655.297 371.861 664.083 371.218C674.094 370.501 681.878 372.862 687.436 378.301C692.053 383.169 694.72 389.565 694.931 396.271C695.142 402.977 692.881 409.527 688.579 414.676C683.828 419.966 676.94 422.954 667.915 423.641C660.904 424.482 653.822 422.815 647.923 418.935C644.786 416.757 642.197 413.881 640.361 410.532C638.525 407.183 637.493 403.453 637.344 399.637V399.637ZM656.597 398.203C656.561 401.741 657.775 405.178 660.026 407.908C660.934 408.837 662.033 409.558 663.247 410.021C664.461 410.483 665.761 410.676 667.057 410.587C668.353 410.497 669.614 410.127 670.753 409.502C671.892 408.877 672.881 408.012 673.653 406.966C675.464 403.846 676.145 400.197 675.58 396.634C675.602 393.167 674.404 389.804 672.196 387.131C671.333 386.184 670.263 385.449 669.07 384.983C667.876 384.516 666.592 384.331 665.315 384.442C663.984 384.504 662.685 384.871 661.519 385.517C660.353 386.162 659.351 387.067 658.592 388.162C656.786 391.177 656.11 394.736 656.686 398.203H656.597Z" fill="white"/>
<path d="M700.995 350.554L721.503 349.075L722.646 364.764L720.965 396.701L708.279 397.62L702.116 366.243L700.995 350.554ZM705.478 402.73L724.618 401.341L725.851 418.285L706.688 419.652L705.478 402.73Z" fill="white"/>
<path d="M365.322 223.229C365.222 226.51 365.394 229.793 365.838 233.045C345.529 239.827 323.87 241.543 302.747 238.043C303.761 234.21 304.376 230.282 304.584 226.322C303.878 230.309 302.491 234.145 300.483 237.662C296.494 236.9 294.252 236.25 294.252 236.25C294.252 236.25 298.331 214.196 290.98 198.149C283.629 182.102 287.304 173.137 292.863 170.604C303.172 138.913 341.924 143.911 355.035 156.776C371.665 173.092 371.755 219.06 374.713 229.571C372.27 230.625 369.872 231.589 367.474 232.44C366.273 229.503 365.547 226.394 365.322 223.229V223.229Z" fill="#263238"/>
<path d="M381.349 272.559L383.366 278.946C384.105 281.187 384.845 283.429 385.607 285.558C387.109 290.04 388.678 294.523 390.359 298.826C392.04 303.129 393.653 307.657 395.401 312.049L398.001 318.773L398.651 320.432L398.808 320.813C398.531 320.57 398.212 320.38 397.867 320.252C397.374 320.073 397.172 320.252 397.486 320.252C398.026 320.25 398.562 320.167 399.077 320.006C400.83 319.45 402.514 318.699 404.097 317.765C407.92 315.538 411.575 313.036 415.035 310.279C418.666 307.455 422.229 304.429 425.725 301.314C429.222 298.199 432.741 294.949 436.125 291.766L443.006 297.593C440.137 301.717 437.111 305.483 434.041 309.315C430.97 313.148 427.518 316.734 423.977 320.297C420.332 324.018 416.365 327.408 412.121 330.428C409.693 332.129 407.085 333.557 404.344 334.686C402.604 335.384 400.781 335.851 398.92 336.076C396.394 336.39 393.83 336.043 391.479 335.067C388.916 333.975 386.733 332.151 385.204 329.823C384.867 329.307 384.554 328.792 384.307 328.321L383.702 327.111L382.895 325.475C381.842 323.233 380.654 320.992 379.735 318.885C377.695 314.403 375.656 309.92 373.796 305.438C371.935 300.955 370.12 296.338 368.394 291.721C367.587 289.48 366.781 287.037 366.019 284.684C365.257 282.331 364.517 280.022 363.777 277.265L381.349 272.559Z" fill="#FFC3BD"/>
<path d="M376.036 252.656C383.769 254.629 389.17 286.409 389.17 286.409L367.878 300.888C367.878 300.888 347.483 268.816 353.422 260.321C359.608 251.491 364.763 249.787 376.036 252.656Z" fill="#137EE0"/>
<path d="M376.036 252.656C383.769 254.629 389.17 286.409 389.17 286.409L367.878 300.888C367.878 300.888 347.483 268.816 353.422 260.321C359.608 251.491 364.763 249.787 376.036 252.656Z" fill="#137EE0"/>
<path opacity="0.4" d="M376.036 252.656C383.769 254.629 389.17 286.409 389.17 286.409L367.878 300.888C367.878 300.888 347.483 268.816 353.422 260.321C359.608 251.491 364.763 249.787 376.036 252.656Z" fill="white"/>
<path opacity="0.3" d="M375.341 259.761L381.281 291.789L369.312 299.902L375.341 259.761Z" fill="black"/>
<path d="M435.766 292.528L442.871 275.405L451.634 292.528C451.634 292.528 445.942 301.045 438.433 298.961L435.766 292.528Z" fill="#FFC3BD"/>
<path d="M450.692 273.634L461.943 278.162L451.633 292.528L442.847 275.405L450.692 273.634Z" fill="#FFC3BD"/>
<path d="M334.238 787.687H352.997L354.252 744.274H335.493L334.238 787.687Z" fill="#FFC3BD"/>
<path d="M208.458 731.768L225.693 739.119L248.263 701.556L231.005 694.205L208.458 731.768Z" fill="#FFC3BD"/>
<path d="M229.011 736.564L211.081 725.537C210.774 725.34 210.406 725.263 210.046 725.321C209.686 725.379 209.36 725.568 209.131 725.851L198.35 738.783C198.082 739.122 197.89 739.514 197.785 739.933C197.681 740.352 197.668 740.788 197.747 741.213C197.825 741.638 197.994 742.04 198.241 742.394C198.488 742.749 198.808 743.046 199.18 743.266C205.5 747.009 208.727 748.488 216.617 753.329C221.48 756.332 228.249 761.173 234.95 765.297C241.651 769.421 246.156 763.056 243.668 760.703C232.798 750.326 233.112 745.395 231.073 739.254C230.734 738.137 230.001 737.182 229.011 736.564V736.564Z" fill="#263238"/>
<path d="M353.625 785.514H332.579C332.217 785.51 331.865 785.637 331.589 785.871C331.313 786.106 331.132 786.433 331.078 786.791L328.679 803.466C328.621 803.894 328.656 804.329 328.782 804.742C328.908 805.155 329.123 805.535 329.411 805.857C329.698 806.179 330.052 806.434 330.449 806.606C330.845 806.777 331.274 806.861 331.705 806.85C339.056 806.738 342.598 806.29 351.876 806.29C357.569 806.29 369.358 806.895 377.225 806.895C385.092 806.895 385.495 799.118 382.223 798.401C367.543 795.241 361.76 790.893 356.807 786.746C355.93 785.964 354.799 785.527 353.625 785.514V785.514Z" fill="#263238"/>
<path opacity="0.2" d="M354.229 744.297L353.601 766.664H334.842L335.492 744.297H354.229Z" fill="black"/>
<path opacity="0.2" d="M231.005 694.227L248.24 701.556L236.608 720.921L219.373 713.569L231.005 694.227Z" fill="black"/>
<path d="M376.038 252.656C376.038 252.656 385.003 255.794 367.073 365.772H290.87C292.148 334.798 292.192 315.703 277.423 252.118C288.078 249.916 298.879 248.493 309.741 247.86C321.254 247.03 332.811 247.03 344.324 247.86C359.206 249.205 376.038 252.656 376.038 252.656Z" fill="#E13214"/>
<path opacity="0.4" d="M376.038 252.656C376.038 252.656 385.003 255.794 367.073 365.772H290.87C292.148 334.798 292.192 315.703 277.423 252.118C288.078 249.916 298.879 248.493 309.741 247.86C321.254 247.03 332.811 247.03 344.324 247.86C359.206 249.205 376.038 252.656 376.038 252.656Z" fill="white"/>
<path d="M309.785 247.838C321.298 247.029 332.854 247.029 344.367 247.838C346.228 248.017 348.133 248.219 350.015 248.443C350.799 249.62 351.301 250.963 351.484 252.365C351.667 253.768 351.525 255.194 351.069 256.534C348.626 262.563 339.862 263.257 333.497 263.257C309.942 263.257 305.952 249.496 305.795 248.913L305.571 248.084L309.785 247.838Z" fill="white"/>
<path d="M313.213 208.929C315.454 220.136 317.583 240.441 309.784 247.86C309.784 247.86 312.832 259.066 333.496 259.066C356.222 259.066 344.366 247.86 344.366 247.86C331.95 244.901 332.286 235.69 334.437 227.061L313.213 208.929Z" fill="#FFC3BD"/>
<path d="M315.476 201.018C312.809 209.826 316.507 230.67 321.998 238.738C311.173 232.53 307.519 213.614 307.519 213.614L315.476 201.018Z" fill="#263238"/>
<path opacity="0.2" d="M321.865 216.326L334.439 227.039C333.887 229.047 333.527 231.103 333.363 233.18C328.634 232.485 322.157 227.285 321.619 222.332C321.34 220.331 321.424 218.297 321.865 216.326V216.326Z" fill="black"/>
<path d="M302.951 189.072C307.299 207.159 308.733 214.914 319.626 222.691C336.009 234.368 357.279 225.089 358.422 206.061C359.453 188.938 352.191 162.244 333.029 158.12C328.806 157.188 324.416 157.35 320.274 158.592C316.133 159.833 312.377 162.113 309.363 165.213C306.35 168.314 304.179 172.134 303.057 176.31C301.935 180.485 301.898 184.878 302.951 189.072V189.072Z" fill="#FFC3BD"/>
<path d="M367.094 365.772C367.094 365.772 381.864 510.153 380.541 567.305C379.264 626.743 357.479 762.294 357.479 762.294H332.153C332.153 762.294 336.165 630.172 333.923 571.788C331.48 508.136 311.264 365.727 311.264 365.727L367.094 365.772Z" fill="#7714E1"/>
<path opacity="0.4" d="M367.094 365.772C367.094 365.772 381.864 510.153 380.541 567.305C379.264 626.743 357.479 762.294 357.479 762.294H332.153C332.153 762.294 336.165 630.172 333.923 571.788C331.48 508.136 311.264 365.727 311.264 365.727L367.094 365.772Z" fill="black"/>
<path d="M330.047 763.235H359.766L361.962 753.755L328.657 752.589L330.047 763.235Z" fill="#137EE0"/>
<path opacity="0.2" d="M334.259 401.699C352.951 439.308 338.002 507.912 331.39 533.44C328.006 495.115 322.291 448.273 317.831 413.825C320.655 394.46 325.63 384.352 334.259 401.699Z" fill="black"/>
<path d="M346.989 365.772C346.989 365.772 329.732 515.936 316.71 564.056C301.268 621.275 242.48 718.702 242.48 718.702L218.969 708.706C218.969 708.706 255.345 598.078 267.179 567.933C292.393 503.609 270.809 407.751 290.958 365.772H346.989Z" fill="#7714E1"/>
<path opacity="0.4" d="M346.989 365.772C346.989 365.772 329.732 515.936 316.71 564.056C301.268 621.275 242.48 718.702 242.48 718.702L218.969 708.706C218.969 708.706 255.345 598.078 267.179 567.933C292.393 503.609 270.809 407.751 290.958 365.772H346.989Z" fill="black"/>
<path d="M215.719 708.773L244.9 721.19L251.915 713.345L218.252 697.186L215.719 708.773Z" fill="#137EE0"/>
<path d="M331.704 189.319C331.973 190.798 332.959 191.874 333.945 191.694C334.931 191.515 335.491 190.17 335.222 188.691C334.953 187.212 333.967 186.136 332.981 186.293C331.995 186.45 331.323 187.817 331.704 189.319Z" fill="#263238"/>
<path d="M348.424 186.36C348.67 187.839 349.679 188.915 350.665 188.736C351.651 188.557 352.234 187.212 351.965 185.733C351.696 184.253 350.71 183.178 349.724 183.334C348.737 183.491 348.155 184.858 348.424 186.36Z" fill="#263238"/>
<path d="M349.301 183.514L352.685 181.833C352.685 181.833 351.34 184.948 349.301 183.514Z" fill="#263238"/>
<path d="M344.412 189.699C346.337 192.863 348.69 195.744 351.405 198.261C350.74 198.934 349.936 199.455 349.05 199.788C348.164 200.121 347.217 200.258 346.273 200.189L344.412 189.699Z" fill="#ED847E"/>
<path d="M339.526 207.204C340.375 207.202 341.223 207.127 342.059 206.98C342.123 206.977 342.185 206.961 342.243 206.932C342.3 206.903 342.35 206.862 342.39 206.812C342.43 206.762 342.459 206.704 342.475 206.642C342.491 206.58 342.493 206.516 342.482 206.453C342.471 206.389 342.446 206.33 342.41 206.277C342.373 206.224 342.326 206.18 342.271 206.147C342.216 206.114 342.155 206.093 342.091 206.086C342.027 206.079 341.963 206.086 341.902 206.106C340.056 206.473 338.15 206.399 336.339 205.889C334.527 205.378 332.862 204.447 331.48 203.169C331.396 203.087 331.284 203.041 331.166 203.041C331.049 203.041 330.936 203.087 330.853 203.169C330.809 203.209 330.774 203.258 330.751 203.312C330.727 203.366 330.715 203.424 330.715 203.483C330.715 203.542 330.727 203.601 330.751 203.655C330.774 203.709 330.809 203.757 330.853 203.797C333.192 206.016 336.302 207.237 339.526 207.204Z" fill="#263238"/>
<path d="M309.291 178.471C309.781 183.237 310.529 187.973 311.532 192.658C311.532 192.658 322.739 178.471 324.599 170.873C324.154 173.864 323.286 176.777 322.021 179.524C322.021 179.524 337.105 176.23 338.584 166.279C338.559 170.734 338.063 175.173 337.105 179.524C337.105 179.524 351.494 173.876 350.171 164.329C348.849 154.781 326.75 151.083 316.553 154.31C306.355 157.538 296.381 168.004 299.385 182.393C302.388 196.782 308.148 202.183 308.148 202.183C308.148 202.183 304.002 187.683 309.291 178.471Z" fill="#263238"/>
<path d="M302.165 202.699C303.549 206.019 306.192 208.655 309.517 210.028C313.999 211.821 316.666 207.988 315.882 203.551C315.187 199.539 312.027 193.801 307.387 193.891C306.372 193.936 305.384 194.233 304.513 194.755C303.641 195.278 302.913 196.009 302.395 196.883C301.877 197.757 301.584 198.747 301.544 199.762C301.504 200.777 301.718 201.787 302.165 202.699V202.699Z" fill="#FFC3BD"/>
<path d="M312.003 171.568C309.762 180.533 314.424 201.152 320.296 208.93C309.09 203.259 304.607 184.522 304.607 184.522L312.003 171.568Z" fill="#263238"/>
<path d="M325.563 184.209C325.678 184.174 325.785 184.116 325.877 184.039C325.97 183.962 326.046 183.867 326.101 183.76C326.573 182.749 327.279 181.865 328.159 181.179C329.04 180.493 330.07 180.026 331.166 179.816C331.398 179.782 331.608 179.661 331.754 179.478C331.9 179.295 331.97 179.063 331.95 178.829C331.939 178.712 331.905 178.599 331.849 178.495C331.793 178.392 331.716 178.301 331.624 178.227C331.532 178.154 331.426 178.1 331.313 178.069C331.199 178.038 331.081 178.029 330.964 178.045C329.574 178.286 328.262 178.858 327.138 179.712C326.015 180.566 325.113 181.678 324.509 182.953C324.433 183.109 324.404 183.284 324.425 183.456C324.446 183.628 324.517 183.79 324.628 183.923C324.74 184.056 324.887 184.154 325.053 184.204C325.219 184.255 325.396 184.256 325.563 184.209V184.209Z" fill="#263238"/>
<path d="M354.542 177.261C354.655 177.265 354.767 177.246 354.872 177.203C354.976 177.161 355.07 177.096 355.147 177.014C355.312 176.847 355.404 176.621 355.404 176.387C355.404 176.152 355.312 175.927 355.147 175.759C354.192 174.725 353.006 173.93 351.686 173.439C350.366 172.949 348.949 172.776 347.549 172.935C347.433 172.957 347.322 173.001 347.223 173.066C347.123 173.13 347.038 173.214 346.971 173.312C346.904 173.41 346.858 173.52 346.834 173.636C346.81 173.752 346.81 173.872 346.832 173.988C346.881 174.215 347.016 174.414 347.208 174.544C347.4 174.673 347.635 174.723 347.863 174.683C348.967 174.56 350.084 174.699 351.123 175.088C352.163 175.477 353.096 176.107 353.847 176.924C353.931 177.029 354.037 177.113 354.157 177.171C354.277 177.229 354.409 177.26 354.542 177.261V177.261Z" fill="#263238"/>
<path d="M286.722 278.722C283.607 288.561 280.626 298.893 278.093 309.069C275.544 319.113 273.679 329.32 272.512 339.617L272.333 341.5C272.333 342.105 272.333 342.239 272.333 342.777C272.358 343.834 272.44 344.889 272.58 345.937C272.865 348.392 273.277 350.831 273.812 353.244C274.866 358.242 276.054 363.397 277.578 368.507C279.102 373.617 280.402 378.816 281.926 383.971L286.408 399.436L278.093 402.865C272.983 393.093 268.545 383.142 264.399 372.877C262.404 367.722 260.455 362.522 258.841 357.031C258.034 354.297 257.272 351.495 256.6 348.447C256.28 346.833 256.056 345.202 255.927 343.561C255.927 342.732 255.927 341.5 255.927 340.76V338.519C256.117 332.808 256.641 327.113 257.496 321.463C258.236 315.86 259.334 310.391 260.522 304.945C262.854 294.037 265.848 283.282 269.487 272.738L286.722 278.722Z" fill="#FFC3BD"/>
<path d="M277.468 252.118C269.848 254.36 260.681 280.694 260.681 280.694L290.265 301.852C290.265 301.852 301.068 279.932 297.863 270.071C294.524 259.806 286.186 249.474 277.468 252.118Z" fill="#E13214"/>
<path opacity="0.4" d="M277.468 252.118C269.848 254.36 260.681 280.694 260.681 280.694L290.265 301.852C290.265 301.852 301.068 279.932 297.863 270.071C294.524 259.806 286.186 249.474 277.468 252.118Z" fill="white"/>
<path d="M236.587 743.692C236.951 743.563 237.283 743.356 237.558 743.085C237.833 742.814 238.045 742.485 238.178 742.123C238.308 741.89 238.376 741.627 238.376 741.361C238.376 741.094 238.308 740.832 238.178 740.599C236.833 738.626 230.042 738.783 229.213 738.806C229.127 738.807 229.043 738.833 228.972 738.881C228.9 738.929 228.844 738.996 228.81 739.075C228.766 739.145 228.743 739.227 228.743 739.31C228.743 739.393 228.766 739.475 228.81 739.545C230.58 741.316 233.897 744.207 236.228 743.759L236.587 743.692ZM230.289 739.613C233.001 739.613 236.632 739.994 237.349 741.047C237.41 741.148 237.443 741.265 237.443 741.383C237.443 741.502 237.41 741.618 237.349 741.719C237.25 741.99 237.085 742.232 236.87 742.423C236.655 742.615 236.396 742.75 236.116 742.817C234.883 743.131 232.732 741.854 230.289 739.613Z" fill="#137EE0"/>
<path d="M232.281 739.142C234.343 738.492 236.54 737.349 237.01 736.072C237.127 735.739 237.129 735.377 237.015 735.044C236.901 734.71 236.679 734.425 236.383 734.234C236.122 734.016 235.815 733.86 235.485 733.779C235.155 733.697 234.81 733.692 234.478 733.763C231.811 734.234 228.942 738.806 228.83 739.008C228.79 739.076 228.77 739.153 228.77 739.232C228.77 739.31 228.79 739.388 228.83 739.456C228.87 739.521 228.926 739.576 228.992 739.615C229.059 739.654 229.134 739.677 229.211 739.68C230.255 739.65 231.289 739.469 232.281 739.142ZM234.343 734.66H234.635C234.845 734.616 235.063 734.619 235.272 734.669C235.482 734.72 235.677 734.816 235.845 734.951C236.293 735.31 236.248 735.578 236.181 735.78C235.733 737.013 232.326 738.492 230.063 738.783C231.092 737.06 232.572 735.65 234.343 734.704V734.66Z" fill="#137EE0"/>
<path d="M360.66 788.786C362.24 788.915 363.818 788.513 365.143 787.643C365.451 787.364 365.685 787.014 365.826 786.623C365.967 786.232 366.009 785.812 365.95 785.401C365.932 785.158 365.853 784.924 365.72 784.72C365.586 784.516 365.403 784.349 365.188 784.236C362.946 782.981 355.438 786.791 354.587 787.217C354.504 787.25 354.434 787.308 354.384 787.382C354.335 787.456 354.309 787.542 354.309 787.631C354.309 787.72 354.335 787.807 354.384 787.881C354.434 787.955 354.504 788.012 354.587 788.046C356.581 788.497 358.616 788.745 360.66 788.786V788.786ZM364 784.908C364.285 784.89 364.57 784.944 364.829 785.065C364.917 785.114 364.991 785.185 365.042 785.272C365.094 785.358 365.121 785.457 365.12 785.558C365.162 785.816 365.139 786.08 365.053 786.327C364.967 786.573 364.821 786.795 364.627 786.97C363.484 788.001 360.391 788.18 356.245 787.486C358.665 786.194 361.288 785.322 364 784.908V784.908Z" fill="#137EE0"/>
<path d="M354.856 788.136H355.035C357.277 787.127 361.759 783.093 361.356 780.964C361.356 780.448 360.907 779.843 359.675 779.709C359.233 779.659 358.787 779.701 358.363 779.833C357.938 779.964 357.546 780.181 357.209 780.471C354.968 782.443 354.43 787.486 354.408 787.688C354.405 787.766 354.422 787.844 354.457 787.915C354.492 787.985 354.545 788.046 354.609 788.091C354.683 788.137 354.771 788.153 354.856 788.136V788.136ZM359.339 780.538H359.607C360.414 780.538 360.482 780.964 360.482 781.053C360.706 782.331 357.702 785.536 355.416 786.903C355.596 784.773 356.434 782.752 357.814 781.121C358.225 780.747 358.761 780.539 359.316 780.538H359.339Z" fill="#137EE0"/>
<path d="M289.815 361.312L287.887 368.036C287.618 368.551 288.246 369.089 289.12 369.089H367.564C368.258 369.089 368.819 368.753 368.864 368.327L369.558 361.604C369.558 361.133 368.998 360.729 368.258 360.729H291.07C290.828 360.711 290.586 360.754 290.366 360.857C290.146 360.959 289.956 361.115 289.815 361.312V361.312Z" fill="#263238"/>
<path d="M300.169 369.918H298.085C297.681 369.918 297.367 369.717 297.39 369.448L298.354 360.483C298.354 360.236 298.757 360.012 299.16 360.012H301.222C301.648 360.012 301.94 360.236 301.917 360.483L300.953 369.448C300.953 369.806 300.595 369.918 300.169 369.918Z" fill="#137EE0"/>
<path opacity="0.4" d="M300.169 369.918H298.085C297.681 369.918 297.367 369.717 297.39 369.448L298.354 360.483C298.354 360.236 298.757 360.012 299.16 360.012H301.222C301.648 360.012 301.94 360.236 301.917 360.483L300.953 369.448C300.953 369.806 300.595 369.918 300.169 369.918Z" fill="black"/>
<path d="M361.649 369.918H359.587C359.183 369.918 358.87 369.717 358.892 369.448L359.878 360.483C359.878 360.236 360.259 360.012 360.663 360.012H362.725C363.15 360.012 363.464 360.236 363.419 360.483L362.456 369.448C362.433 369.806 362.075 369.918 361.649 369.918Z" fill="#137EE0"/>
<path opacity="0.4" d="M361.649 369.918H359.587C359.183 369.918 358.87 369.717 358.892 369.448L359.878 360.483C359.878 360.236 360.259 360.012 360.663 360.012H362.725C363.15 360.012 363.464 360.236 363.419 360.483L362.456 369.448C362.433 369.806 362.075 369.918 361.649 369.918Z" fill="black"/>
<path d="M330.92 369.918H328.858C328.432 369.918 328.118 369.717 328.163 369.448L329.127 360.483C329.127 360.236 329.508 360.012 329.934 360.012H331.996C332.399 360.012 332.713 360.236 332.69 360.483L331.727 369.448C331.704 369.806 331.323 369.918 330.92 369.918Z" fill="#137EE0"/>
<path opacity="0.4" d="M330.92 369.918H328.858C328.432 369.918 328.118 369.717 328.163 369.448L329.127 360.483C329.127 360.236 329.508 360.012 329.934 360.012H331.996C332.399 360.012 332.713 360.236 332.69 360.483L331.727 369.448C331.704 369.806 331.323 369.918 330.92 369.918Z" fill="black"/>
<path d="M332.465 186.45L335.849 184.791C335.849 184.791 334.504 187.907 332.465 186.45Z" fill="#263238"/>
<path d="M285.782 396.903L301.852 409.23L283.227 413.332C283.227 413.332 275.315 404.366 278.049 396.97L285.782 396.903Z" fill="#FFC3BD"/>
<path d="M305.794 424.493L290.016 427.07L281.409 410.888L301.849 409.23L305.794 424.493Z" fill="#FFC3BD"/>
</svg>
