<svg width="864" height="864" viewBox="0 0 864 864" fill="none" xmlns="http://www.w3.org/2000/svg">
<g filter="url(#filter0_d)">
<path d="M612.514 570.857H251.486C247.803 570.857 244.271 572.32 241.667 574.924C239.063 577.528 237.6 581.06 237.6 584.743V612.514C237.6 616.197 239.063 619.729 241.667 622.333C244.271 624.937 247.803 626.4 251.486 626.4H612.514C616.197 626.4 619.729 624.937 622.333 622.333C624.937 619.729 626.4 616.197 626.4 612.514V584.743C626.4 581.06 624.937 577.528 622.333 574.924C619.729 572.32 616.197 570.857 612.514 570.857ZM612.514 459.771H251.486C247.803 459.771 244.271 461.234 241.667 463.838C239.063 466.443 237.6 469.974 237.6 473.657V501.429C237.6 505.111 239.063 508.643 241.667 511.247C244.271 513.851 247.803 515.314 251.486 515.314H612.514C616.197 515.314 619.729 513.851 622.333 511.247C624.937 508.643 626.4 505.111 626.4 501.429V473.657C626.4 469.974 624.937 466.443 622.333 463.838C619.729 461.234 616.197 459.771 612.514 459.771ZM612.514 348.686H251.486C247.803 348.686 244.271 350.149 241.667 352.753C239.063 355.357 237.6 358.889 237.6 362.571V390.343C237.6 394.026 239.063 397.557 241.667 400.162C244.271 402.766 247.803 404.229 251.486 404.229H612.514C616.197 404.229 619.729 402.766 622.333 400.162C624.937 397.557 626.4 394.026 626.4 390.343V362.571C626.4 358.889 624.937 355.357 622.333 352.753C619.729 350.149 616.197 348.686 612.514 348.686ZM612.514 237.6H251.486C247.803 237.6 244.271 239.063 241.667 241.667C239.063 244.271 237.6 247.803 237.6 251.486V279.257C237.6 282.94 239.063 286.472 241.667 289.076C244.271 291.68 247.803 293.143 251.486 293.143H612.514C616.197 293.143 619.729 291.68 622.333 289.076C624.937 286.472 626.4 282.94 626.4 279.257V251.486C626.4 247.803 624.937 244.271 622.333 241.667C619.729 239.063 616.197 237.6 612.514 237.6V237.6Z" fill="#3A3A3A"/>
</g>
<defs>
<filter id="filter0_d" x="-4" y="0" width="872" height="872" filterUnits="userSpaceOnUse" color-interpolation-filters="sRGB">
<feFlood flood-opacity="0" result="BackgroundImageFix"/>
<feColorMatrix in="SourceAlpha" type="matrix" values="0 0 0 0 0 0 0 0 0 0 0 0 0 0 0 0 0 0 127 0"/>
<feOffset dy="4"/>
<feGaussianBlur stdDeviation="2"/>
<feColorMatrix type="matrix" values="0 0 0 0 0 0 0 0 0 0 0 0 0 0 0 0 0 0 0.25 0"/>
<feBlend mode="normal" in2="BackgroundImageFix" result="effect1_dropShadow"/>
<feBlend mode="normal" in="SourceGraphic" in2="effect1_dropShadow" result="shape"/>
</filter>
</defs>
</svg>
