<svg width="315" height="236" viewBox="0 0 315 236" fill="none" xmlns="http://www.w3.org/2000/svg">
<path d="M315 207.145H0V207.303H315V207.145Z" fill="#EBEBEB"/>
<path d="M273.287 213.849H252.422V214.006H273.287V213.849Z" fill="#EBEBEB"/>
<path d="M197.234 213.773H191.759V213.931H197.234V213.773Z" fill="#EBEBEB"/>
<path d="M283.437 217.282H271.348V217.44H283.437V217.282Z" fill="#EBEBEB"/>
<path d="M72.1985 219.374H44.9888V219.531H72.1985V219.374Z" fill="#EBEBEB"/>
<path d="M69.8605 212.494H65.8726V212.652H69.8605V212.494Z" fill="#EBEBEB"/>
<path d="M156.524 213.168H118.157V213.326H156.524V213.168Z" fill="#EBEBEB"/>
<path d="M149.31 179.047H27.6633C26.7103 179.046 25.7969 178.666 25.1237 177.992C24.4504 177.317 24.0723 176.403 24.0723 175.45V4.44922C24.0806 3.50172 24.4624 2.59575 25.1347 1.9281C25.8071 1.26045 26.7157 0.885046 27.6633 0.883423H149.31C150.264 0.883423 151.179 1.26242 151.854 1.93705C152.528 2.61167 152.907 3.52666 152.907 4.48072V175.45C152.907 176.404 152.528 177.319 151.854 177.994C151.179 178.668 150.264 179.047 149.31 179.047ZM27.6633 1.00942C26.7521 1.01109 25.8788 1.37423 25.235 2.01914C24.5913 2.66405 24.2298 3.53802 24.2298 4.44922V175.45C24.2298 176.361 24.5913 177.235 25.235 177.88C25.8788 178.525 26.7521 178.888 27.6633 178.89H149.31C150.222 178.888 151.096 178.525 151.74 177.881C152.385 177.236 152.748 176.362 152.75 175.45V4.44922C152.748 3.53744 152.385 2.66348 151.74 2.01876C151.096 1.37403 150.222 1.01109 149.31 1.00942H27.6633Z" fill="#EBEBEB"/>
<path d="M285.585 179.047H163.932C162.979 179.046 162.065 178.666 161.39 177.992C160.716 177.318 160.337 176.404 160.335 175.45V4.44922C160.345 3.50114 160.728 2.59518 161.401 1.92771C162.075 1.26023 162.984 0.885028 163.932 0.883423H285.585C286.532 0.886702 287.439 1.26284 288.11 1.93031C288.781 2.59778 289.162 3.50281 289.17 4.44922V175.45C289.17 176.402 288.793 177.315 288.121 177.989C287.449 178.664 286.537 179.044 285.585 179.047ZM163.932 1.00942C163.02 1.01109 162.147 1.37403 161.502 2.01876C160.857 2.66348 160.494 3.53744 160.492 4.44922V175.45C160.494 176.362 160.857 177.236 161.502 177.881C162.147 178.525 163.02 178.888 163.932 178.89H285.585C286.497 178.888 287.371 178.525 288.016 177.881C288.66 177.236 289.023 176.362 289.025 175.45V4.44922C289.023 3.53744 288.66 2.66348 288.016 2.01876C287.371 1.37403 286.497 1.01109 285.585 1.00942H163.932Z" fill="#EBEBEB"/>
<path d="M270.201 26.9214H44.7993V120.722H270.201V26.9214Z" fill="#F0F0F0"/>
<path d="M265.791 116.318V31.3376L49.2096 31.3376V116.318L265.791 116.318Z" fill="#FAFAFA"/>
<path d="M77.7227 116.312L99.9365 31.3314H116.316L94.1027 116.312H77.7227Z" fill="white"/>
<path d="M97.8838 116.312L120.098 31.3314H127.424L105.211 116.312H97.8838Z" fill="white"/>
<path d="M133.73 116.312L155.951 31.3314H172.331L150.11 116.312H133.73Z" fill="white"/>
<path d="M175.033 116.312L197.247 31.3314H204.58L182.36 116.312H175.033Z" fill="white"/>
<path d="M107.232 116.318V31.3376H106.111V116.318H107.232Z" fill="#E0E0E0"/>
<path d="M50.3306 116.318L50.3306 31.3376H49.2092L49.2092 116.318H50.3306Z" fill="#E0E0E0"/>
<path d="M106.11 116.318V31.3376H101.7V116.318H106.11Z" fill="#F0F0F0"/>
<path d="M161.91 116.318V31.3376H160.789V116.318H161.91Z" fill="#E0E0E0"/>
<path d="M160.788 116.318V31.3376H156.378V116.318H160.788Z" fill="#F0F0F0"/>
<path d="M216.613 116.312V31.3314H215.491V116.312H216.613Z" fill="#E0E0E0"/>
<path d="M215.492 116.312V31.3313H211.082V116.312H215.492Z" fill="#F0F0F0"/>
<path d="M271.322 120.722V26.9213H270.2V120.722H271.322Z" fill="#E0E0E0"/>
<path d="M273.842 20.4827H41.1577C40.8992 20.4811 40.6518 20.3777 40.469 20.1949C40.2862 20.0121 40.1828 19.7647 40.1812 19.5062C40.1811 19.2467 40.2838 18.9976 40.4668 18.8135C40.6497 18.6294 40.8981 18.5251 41.1577 18.5234H273.842C274.101 18.5251 274.35 18.6294 274.533 18.8135C274.716 18.9976 274.818 19.2467 274.818 19.5062C274.817 19.7647 274.713 20.0121 274.531 20.1949C274.348 20.3777 274.1 20.4811 273.842 20.4827Z" fill="#E0E0E0"/>
<g opacity="0.6">
<path opacity="0.6" d="M89.6741 16.6335H42.0713V187.786H89.6741V16.6335Z" fill="#F5F5F5"/>
<path opacity="0.6" d="M67.8639 189.184H63.876L64.9974 18.0321H66.7803L67.8639 189.184Z" fill="#E6E6E6"/>
<path opacity="0.6" d="M54.6524 189.184H52.7246L53.2664 18.0321H54.1295L54.6524 189.184Z" fill="#E6E6E6"/>
<path opacity="0.6" d="M81.1124 189.184H79.1846L79.7264 18.0321H80.5895L81.1124 189.184Z" fill="#E6E6E6"/>
</g>
<g opacity="0.6">
<path opacity="0.6" d="M272.362 16.6335H224.759V187.786H272.362V16.6335Z" fill="#F5F5F5"/>
<path opacity="0.6" d="M243.413 189.184H239.425L240.547 18.0321H242.33L243.413 189.184Z" fill="#E6E6E6"/>
<path opacity="0.6" d="M234.612 189.184H232.691L233.226 18.0321H234.09L234.612 189.184Z" fill="#E6E6E6"/>
<path opacity="0.6" d="M254.98 189.184H253.058L253.6 18.0321H254.457L254.98 189.184Z" fill="#E6E6E6"/>
<path opacity="0.6" d="M264.782 189.184H262.861L263.396 18.0321H264.259L264.782 189.184Z" fill="#E6E6E6"/>
</g>
<path d="M204.882 206.074H213.828V154.805H204.882V206.074Z" fill="#E6E6E6"/>
<path d="M101.171 206.074H208.328V154.805H101.171V206.074Z" fill="#F0F0F0"/>
<path d="M205.922 206.074H202.696H105.796V207.145H202.696H205.922H209.204V206.074H205.922Z" fill="#E0E0E0"/>
<path opacity="0.5" d="M104.227 178.701H205.273V158.012H104.227V178.701Z" fill="#FAFAFA"/>
<path opacity="0.5" d="M104.227 202.729H205.273V182.04H104.227V202.729Z" fill="#FAFAFA"/>
<path d="M119.543 168.356C119.543 168.806 119.409 169.246 119.159 169.62C118.91 169.994 118.554 170.285 118.139 170.457C117.723 170.63 117.266 170.675 116.825 170.587C116.384 170.499 115.978 170.283 115.66 169.964C115.342 169.646 115.126 169.241 115.038 168.8C114.95 168.359 114.995 167.902 115.167 167.486C115.339 167.07 115.631 166.715 116.005 166.465C116.379 166.215 116.819 166.082 117.268 166.082C117.567 166.082 117.863 166.141 118.139 166.255C118.415 166.369 118.665 166.537 118.877 166.748C119.088 166.959 119.255 167.21 119.37 167.486C119.484 167.762 119.543 168.058 119.543 168.356Z" fill="#E0E0E0"/>
<path d="M194.5 168.356C194.5 168.806 194.367 169.246 194.117 169.62C193.867 169.994 193.512 170.285 193.096 170.457C192.681 170.63 192.223 170.675 191.782 170.587C191.341 170.499 190.936 170.283 190.618 169.964C190.3 169.646 190.083 169.241 189.995 168.8C189.908 168.359 189.953 167.902 190.125 167.486C190.297 167.07 190.588 166.715 190.962 166.465C191.336 166.215 191.776 166.082 192.226 166.082C192.525 166.082 192.82 166.141 193.096 166.255C193.372 166.369 193.623 166.537 193.834 166.748C194.045 166.959 194.213 167.21 194.327 167.486C194.441 167.762 194.5 168.058 194.5 168.356Z" fill="#E0E0E0"/>
<path d="M117.268 194.659C118.525 194.659 119.543 193.641 119.543 192.385C119.543 191.128 118.525 190.11 117.268 190.11C116.012 190.11 114.994 191.128 114.994 192.385C114.994 193.641 116.012 194.659 117.268 194.659Z" fill="#E0E0E0"/>
<path d="M194.5 192.403C194.5 192.853 194.367 193.293 194.117 193.667C193.867 194.041 193.512 194.332 193.096 194.505C192.681 194.677 192.223 194.722 191.782 194.634C191.341 194.546 190.936 194.33 190.618 194.012C190.3 193.694 190.083 193.288 189.995 192.847C189.908 192.406 189.953 191.949 190.125 191.533C190.297 191.118 190.588 190.762 190.962 190.512C191.336 190.263 191.776 190.129 192.226 190.129C192.829 190.129 193.408 190.369 193.834 190.795C194.261 191.222 194.5 191.8 194.5 192.403Z" fill="#E0E0E0"/>
<path d="M157.022 168.356C157.022 168.806 156.888 169.246 156.638 169.62C156.389 169.994 156.033 170.285 155.618 170.457C155.202 170.63 154.745 170.675 154.304 170.587C153.863 170.499 153.457 170.283 153.139 169.964C152.821 169.646 152.605 169.241 152.517 168.8C152.429 168.359 152.474 167.902 152.646 167.486C152.818 167.07 153.11 166.715 153.484 166.465C153.858 166.215 154.298 166.082 154.747 166.082C155.046 166.082 155.342 166.141 155.618 166.255C155.894 166.369 156.144 166.537 156.356 166.748C156.567 166.959 156.734 167.21 156.849 167.486C156.963 167.762 157.022 168.058 157.022 168.356Z" fill="#E0E0E0"/>
<path d="M154.747 194.659C156.004 194.659 157.022 193.641 157.022 192.385C157.022 191.128 156.004 190.11 154.747 190.11C153.491 190.11 152.473 191.128 152.473 192.385C152.473 193.641 153.491 194.659 154.747 194.659Z" fill="#E0E0E0"/>
<path d="M201.701 146.098C201.701 148.408 200.784 150.622 199.151 152.255C197.518 153.888 195.303 154.805 192.994 154.805C190.685 154.805 188.471 153.888 186.838 152.255C185.205 150.622 184.288 148.408 184.288 146.098H201.701Z" fill="#F0F0F0"/>
<path d="M132.861 144.523C132.861 147.245 131.78 149.856 129.855 151.78C127.93 153.705 125.32 154.786 122.598 154.786C119.876 154.786 117.266 153.705 115.341 151.78C113.417 149.856 112.335 147.245 112.335 144.523H132.861Z" fill="#F0F0F0"/>
<path d="M176.98 148.763C176.98 150.366 176.343 151.902 175.21 153.035C174.077 154.169 172.541 154.805 170.938 154.805C169.336 154.805 167.799 154.169 166.666 153.035C165.533 151.902 164.896 150.366 164.896 148.763H176.98Z" fill="#F0F0F0"/>
<path d="M157.5 235.596C224.962 235.596 279.651 232.403 279.651 228.465C279.651 224.526 224.962 221.333 157.5 221.333C90.0379 221.333 35.3491 224.526 35.3491 228.465C35.3491 232.403 90.0379 235.596 157.5 235.596Z" fill="#F5F5F5"/>
<path d="M219.336 38.9103C217.994 37.5684 215.411 32.4843 217.887 30.0903C220.362 27.6963 222.567 29.8698 222.738 31.0353C222.908 32.2008 222.454 42.0225 219.336 38.9103Z" fill="#263238"/>
<path d="M218.769 221.793L213.143 221.843L211.612 208.84L217.231 208.79L218.769 221.793Z" fill="#FF8B7B"/>
<path d="M213.137 221.194L219.273 221.138C219.386 221.139 219.496 221.177 219.586 221.245C219.677 221.313 219.744 221.408 219.777 221.516L221.264 226.499C221.303 226.615 221.314 226.739 221.296 226.86C221.277 226.981 221.23 227.096 221.158 227.195C221.085 227.294 220.99 227.374 220.88 227.428C220.771 227.482 220.649 227.51 220.527 227.507C218.315 227.507 215.102 227.387 212.337 227.413C209.086 227.413 207.637 227.639 203.819 227.677C201.513 227.677 200.669 225.371 201.646 225.157C205.974 224.155 208.21 224.023 211.833 221.648C212.214 221.373 212.667 221.215 213.137 221.194Z" fill="#263238"/>
<path opacity="0.2" d="M211.612 208.846L212.406 215.55L218.025 215.499L217.238 208.796L211.612 208.846Z" fill="black"/>
<path d="M210.812 222.196C211.418 222.185 212.022 222.111 212.613 221.976C212.641 221.972 212.667 221.958 212.687 221.938C212.706 221.917 212.718 221.89 212.721 221.862C212.723 221.835 212.717 221.808 212.704 221.784C212.69 221.76 212.67 221.742 212.645 221.73C212.38 221.598 210.018 220.47 209.369 220.867C209.309 220.905 209.26 220.958 209.227 221.021C209.194 221.084 209.178 221.155 209.18 221.226C209.178 221.347 209.205 221.467 209.257 221.576C209.31 221.686 209.387 221.781 209.482 221.856C209.876 222.112 210.343 222.231 210.812 222.196ZM212.16 221.793C210.944 222.007 210.018 221.963 209.64 221.661C209.574 221.61 209.522 221.543 209.488 221.468C209.454 221.392 209.439 221.309 209.445 221.226C209.441 221.2 209.445 221.174 209.456 221.15C209.467 221.127 209.485 221.107 209.508 221.094C209.86 220.879 211.196 221.383 212.16 221.793Z" fill="#137EE0"/>
<path d="M212.588 222.013C212.618 222.011 212.647 222 212.67 221.982C212.689 221.968 212.704 221.948 212.712 221.926C212.719 221.903 212.72 221.879 212.714 221.856C212.714 221.755 212.273 219.336 210.938 219.487C210.585 219.525 210.484 219.708 210.465 219.846C210.371 220.476 211.814 221.698 212.532 222.001L212.588 222.013ZM211.051 219.745C211.858 219.745 212.261 221.062 212.399 221.635C211.656 221.22 210.673 220.262 210.73 219.884C210.73 219.884 210.73 219.777 210.969 219.752L211.051 219.745Z" fill="#137EE0"/>
<path d="M214.793 67.3044L214.214 67.9344L213.672 68.4699C213.313 68.8227 212.941 69.1566 212.569 69.4842C211.83 70.1478 211.074 70.7778 210.301 71.3742C208.742 72.6137 207.1 73.746 205.387 74.7636C204.524 75.2739 203.636 75.759 202.735 76.2189C201.834 76.6788 200.883 77.0757 199.925 77.4789C197.962 78.2623 195.916 78.8223 193.827 79.1484L193.361 79.2177C193.058 79.2567 192.753 79.2756 192.447 79.2744C191.746 79.2678 191.051 79.1311 190.4 78.8712C189.753 78.6117 189.162 78.2335 188.655 77.7561C188.251 77.371 187.899 76.9347 187.609 76.4583C187.207 75.7669 186.903 75.0226 186.708 74.247C186.555 73.6463 186.444 73.0359 186.374 72.42C186.259 71.3551 186.228 70.283 186.279 69.2133C186.324 68.1927 186.405 67.2099 186.519 66.246C186.758 64.3119 187.098 62.466 187.514 60.576C187.93 58.686 188.403 56.9409 189.014 55.1139L193.153 55.9329C193.002 59.4735 192.831 63.1023 192.945 66.5295C192.966 68.1209 193.134 69.7069 193.449 71.2671C193.511 71.5552 193.597 71.8376 193.707 72.1113C193.795 72.3255 193.902 72.4578 193.896 72.4011C193.86 72.3051 193.801 72.2189 193.726 72.1491C193.555 71.9832 193.354 71.8508 193.134 71.7585C192.907 71.6633 192.667 71.6058 192.422 71.5884C192.309 71.5884 192.258 71.5884 192.189 71.5884H192.258L192.39 71.5506C193.883 71.1672 195.335 70.6397 196.725 69.9756C198.18 69.2735 199.588 68.4781 200.94 67.5942C202.307 66.687 203.655 65.7042 204.953 64.6647C205.583 64.1481 206.244 63.6063 206.843 63.0582L207.762 62.2266L208.203 61.8171L208.588 61.4517L214.793 67.3044Z" fill="#FF8B7B"/>
<path d="M218.126 65.0804C217.912 59.1395 213.036 57.0731 206.925 61.124C204.231 62.8321 201.637 64.6937 199.157 66.6995L203.107 79.3877C203.107 79.3877 210.667 76.9874 215.039 72.275C217.981 69.0746 218.202 67.1027 218.126 65.0804Z" fill="#263238"/>
<path opacity="0.2" d="M210.686 67.613C210.686 67.613 207.038 72.8294 205.747 78.3734C207.54 77.6087 209.268 76.6985 210.913 75.6518L210.686 67.613Z" fill="black"/>
<path d="M192.945 57.8166L195.062 53.0349L189.07 51.2835C189.07 51.2835 188.043 53.5704 188.629 57.4953L192.945 57.8166Z" fill="#FF8B7B"/>
<path d="M195.698 47.4279L190.488 48.0516L189.07 51.2835L195.062 53.0349L195.698 47.4279Z" fill="#FF8B7B"/>
<path d="M210.723 108.147C210.723 108.147 206.855 140.567 206.427 157.917C205.986 175.942 209.52 212.299 209.52 212.299L219.669 212.085C219.669 212.085 220.892 173.163 222.366 155.328C223.966 135.886 227.998 107.794 227.998 107.794L210.723 108.147Z" fill="#E1BC14"/>
<path opacity="0.6" d="M210.723 108.147C210.723 108.147 206.855 140.567 206.427 157.917C205.986 175.942 209.52 212.299 209.52 212.299L219.669 212.085C219.669 212.085 220.892 173.163 222.366 155.328C223.966 135.886 227.998 107.794 227.998 107.794L210.723 108.147Z" fill="white"/>
<path opacity="0.2" d="M222.813 117.326C218.277 127.324 219.493 149.658 222.07 159.234C222.164 157.842 222.265 156.525 222.366 155.309C223.418 142.495 225.516 125.932 226.845 116.123C225.611 114.334 224.231 114.195 222.813 117.326Z" fill="black"/>
<path d="M220.917 212.519L208.985 212.759L208.103 208.796L220.772 208.765L220.917 212.519Z" fill="#137EE0"/>
<path d="M243.837 221.793L238.217 221.843L236.686 208.84L242.306 208.79L243.837 221.793Z" fill="#FF8B7B"/>
<path d="M238.204 221.194L244.347 221.138C244.46 221.14 244.569 221.178 244.659 221.246C244.75 221.314 244.817 221.408 244.851 221.516L246.338 226.499C246.376 226.615 246.385 226.738 246.366 226.859C246.347 226.979 246.3 227.094 246.228 227.192C246.156 227.291 246.061 227.371 245.952 227.425C245.843 227.48 245.722 227.508 245.6 227.507C243.383 227.507 240.176 227.387 237.41 227.413C234.16 227.413 232.704 227.639 228.893 227.677C226.587 227.677 225.743 225.371 226.719 225.157C231.041 224.155 233.278 224.023 236.906 221.648C237.285 221.373 237.737 221.216 238.204 221.194Z" fill="#263238"/>
<path opacity="0.2" d="M236.686 208.846L237.474 215.55L243.099 215.499L242.312 208.796L236.686 208.846Z" fill="black"/>
<path d="M235.886 222.196C236.492 222.185 237.096 222.111 237.687 221.976C237.715 221.971 237.74 221.958 237.758 221.937C237.776 221.916 237.787 221.89 237.788 221.862C237.792 221.836 237.788 221.809 237.775 221.785C237.763 221.761 237.743 221.742 237.719 221.73C237.448 221.598 235.086 220.47 234.443 220.867C234.382 220.904 234.332 220.957 234.299 221.02C234.266 221.084 234.25 221.155 234.254 221.226C234.253 221.346 234.279 221.466 234.33 221.575C234.381 221.684 234.456 221.78 234.55 221.856C234.947 222.111 235.415 222.23 235.886 222.196ZM237.234 221.793C236.018 222.007 235.092 221.963 234.714 221.661C234.649 221.609 234.597 221.543 234.562 221.467C234.527 221.392 234.51 221.309 234.512 221.226C234.509 221.2 234.513 221.174 234.524 221.15C234.535 221.127 234.553 221.107 234.575 221.094C234.928 220.879 236.251 221.383 237.234 221.793Z" fill="#137EE0"/>
<path d="M237.656 222.013C237.675 222.013 237.694 222.008 237.712 221.999C237.729 221.991 237.744 221.979 237.757 221.964C237.769 221.949 237.779 221.932 237.784 221.913C237.789 221.895 237.791 221.875 237.788 221.856C237.788 221.755 237.347 219.336 236.011 219.487C235.659 219.525 235.558 219.708 235.533 219.846C235.444 220.476 236.887 221.698 237.605 222.001L237.656 222.013ZM236.125 219.745C236.925 219.745 237.334 221.062 237.473 221.635C236.73 221.22 235.741 220.262 235.797 219.884C235.797 219.884 235.797 219.777 236.037 219.752L236.125 219.745Z" fill="#137EE0"/>
<path d="M220.627 107.933C220.627 107.933 223.431 142.816 225.478 160.028C227.602 177.932 234.595 212.28 234.595 212.28L244.744 212.066C244.744 212.066 241.959 173.069 240.882 155.202C239.704 135.703 239.401 107.505 239.401 107.505L220.627 107.933Z" fill="#E1BC14"/>
<path opacity="0.6" d="M220.627 107.933C220.627 107.933 223.431 142.816 225.478 160.028C227.602 177.932 234.595 212.28 234.595 212.28L244.744 212.066C244.744 212.066 241.959 173.069 240.882 155.202C239.704 135.703 239.401 107.505 239.401 107.505L220.627 107.933Z" fill="white"/>
<path d="M245.99 212.519L234.052 212.759L233.176 208.796L245.846 208.765L245.99 212.519Z" fill="#137EE0"/>
<path d="M210.024 59.5679C210.024 59.5679 205.872 74.9777 210.723 108.147C219.783 107.952 234.997 107.599 239.401 107.517C239.514 102.899 236.106 80.2571 240.094 58.4276C237.225 57.9322 234.323 57.6501 231.412 57.5834C227.152 57.4279 222.886 57.5204 218.636 57.8606C215.725 58.205 212.846 58.7758 210.024 59.5679Z" fill="#263238"/>
<path opacity="0.2" d="M238.355 73.9635L233.662 70.0764C233.97 73.113 236.717 80.5533 238.166 84.3207C238.141 81.0195 238.172 77.5356 238.355 73.9635Z" fill="black"/>
<path d="M221.566 68.5014L216.444 78.6381C216.336 78.8509 216.298 79.0926 216.336 79.3283C216.374 79.564 216.486 79.7816 216.655 79.9498C216.825 80.1179 217.043 80.2279 217.279 80.2639C217.515 80.2999 217.757 80.26 217.969 80.1501L221.314 78.3104C221.496 78.2126 221.702 78.1679 221.908 78.1812C222.114 78.1946 222.312 78.2656 222.48 78.3861L225.774 80.7611C225.964 80.8988 226.192 80.9719 226.426 80.9697C226.66 80.9674 226.887 80.8899 227.074 80.7486C227.26 80.6073 227.396 80.4097 227.462 80.185C227.528 79.9604 227.519 79.7206 227.438 79.5011L223.588 68.6778C223.522 68.4719 223.395 68.2902 223.226 68.1555C223.057 68.0208 222.851 67.9389 222.636 67.9201C222.42 67.9013 222.204 67.9463 222.013 68.0497C221.823 68.1531 221.668 68.3102 221.566 68.5014Z" fill="white"/>
<path d="M229.837 43.1943C229.119 47.3271 228.477 54.8745 231.412 57.552C231.412 57.552 230.556 61.2942 222.737 62.592C217.483 60.9036 218.636 57.8544 218.636 57.8544C223.197 56.6574 223.002 53.2617 222.139 50.0865L229.837 43.1943Z" fill="#FF8B7B"/>
<path opacity="0.2" d="M226.7 45.9978L222.139 50.055C222.351 50.7947 222.499 51.5514 222.58 52.3167C224.331 52.0269 226.694 50.0487 226.838 48.2154C226.928 47.4739 226.881 46.7224 226.7 45.9978Z" fill="black"/>
<path d="M232.338 38.1102C230.82 43.4777 230.209 46.6971 226.857 48.8958C221.817 52.197 215.637 48.2658 215.517 42.5391C215.404 37.3983 217.899 29.4792 223.707 28.4712C224.983 28.2448 226.296 28.348 227.521 28.7709C228.745 29.1938 229.842 29.9225 230.706 30.8878C231.571 31.8532 232.174 33.0232 232.46 34.2871C232.746 35.551 232.704 36.8669 232.338 38.1102Z" fill="#FF8B7B"/>
<path d="M229.107 41.3988C228.401 39.6852 227.891 34.0404 230.833 32.6544C233.775 31.2684 236.831 34.6515 236.056 36.2517C234.865 38.7339 230.745 45.3678 229.107 41.3988Z" fill="#263238"/>
<path d="M230.864 34.6452C230.14 32.7552 221.503 31.6842 220.293 29.6493C218.857 27.2301 224.747 26.9403 228.798 28.1688C232.358 29.2524 234.733 30.2982 234.317 32.9442C234.084 34.4436 230.864 34.6452 230.864 34.6452Z" fill="#263238"/>
<path d="M232.742 32.6985C232.742 32.6985 234.632 33.2151 235.665 31.8291C235.337 33.2025 233.731 34.5885 232.742 32.6985Z" fill="#263238"/>
<path d="M224.092 26.871C221.496 24.855 217.962 27.2238 218.296 29.8509C218.63 32.478 227.381 34.4751 227.381 34.4751C227.381 34.4751 227.538 29.5485 224.092 26.871Z" fill="#263238"/>
<path d="M218.302 29.8635C218.699 31.7031 220.041 33.1458 222.756 34.2168C221.185 33.0547 219.994 31.4517 219.335 29.6115L218.302 29.8635Z" fill="#263238"/>
<path d="M223.751 37.8393C223.657 38.2866 223.348 38.5953 223.058 38.5323C222.769 38.4693 222.611 38.0535 222.706 37.6125C222.8 37.1715 223.115 36.8628 223.405 36.9258C223.695 36.9888 223.852 37.4235 223.751 37.8393Z" fill="#263238"/>
<path d="M218.749 36.7556C218.649 37.1966 218.34 37.5053 218.05 37.4423C217.76 37.3793 217.603 36.9698 217.697 36.5288C217.792 36.0878 218.107 35.7791 218.397 35.8358C218.686 35.8925 218.844 36.3146 218.749 36.7556Z" fill="#263238"/>
<path d="M220.293 37.3226C219.471 38.5619 218.481 39.6814 217.351 40.649C217.981 41.5499 219.386 41.5058 219.386 41.5058L220.293 37.3226Z" fill="#FF5652"/>
<path d="M220.407 43.0116C220.998 43.1585 221.617 43.1602 222.209 43.0165C222.801 42.8728 223.35 42.588 223.809 42.1863C223.821 42.174 223.831 42.1593 223.838 42.143C223.845 42.1268 223.849 42.1094 223.849 42.0918C223.849 42.0742 223.845 42.0568 223.838 42.0405C223.831 42.0243 223.821 42.0096 223.809 41.9973C223.783 41.9734 223.749 41.9601 223.714 41.9601C223.679 41.9601 223.645 41.9734 223.62 41.9973C223.19 42.3593 222.681 42.6157 222.134 42.7459C221.587 42.876 221.017 42.8764 220.47 42.747C220.435 42.7395 220.398 42.7462 220.368 42.7657C220.338 42.7852 220.317 42.8159 220.309 42.8509C220.302 42.886 220.308 42.9227 220.328 42.9528C220.347 42.9829 220.378 43.0041 220.413 43.0116H220.407Z" fill="#263238"/>
<path d="M225.61 36.5541C225.659 36.5638 225.709 36.56 225.755 36.5434C225.802 36.5267 225.843 36.4977 225.874 36.4594C225.905 36.4212 225.925 36.3752 225.932 36.3263C225.939 36.2775 225.932 36.2278 225.913 36.1824C225.743 35.7944 225.483 35.4525 225.154 35.1852C224.825 34.9178 224.437 34.7327 224.023 34.6452C223.953 34.6361 223.882 34.6548 223.826 34.6971C223.769 34.7395 223.731 34.8022 223.72 34.872C223.715 34.9063 223.717 34.9414 223.725 34.9752C223.733 35.0089 223.748 35.0408 223.768 35.0689C223.789 35.0969 223.814 35.1207 223.844 35.1388C223.874 35.1569 223.907 35.169 223.941 35.1744C224.268 35.2462 224.573 35.3952 224.83 35.6089C225.088 35.8226 225.291 36.0949 225.421 36.4029C225.439 36.441 225.465 36.4745 225.498 36.5008C225.531 36.527 225.569 36.5453 225.61 36.5541Z" fill="#263238"/>
<path d="M216.923 34.557C216.972 34.5707 217.024 34.569 217.073 34.5521C217.121 34.5352 217.163 34.5039 217.194 34.4625C217.393 34.1949 217.653 33.9779 217.951 33.8291C218.25 33.6802 218.58 33.6037 218.913 33.6057C218.984 33.6124 219.054 33.5909 219.108 33.546C219.162 33.5011 219.197 33.4365 219.203 33.3663C219.21 33.2961 219.188 33.2262 219.144 33.1718C219.099 33.1175 219.034 33.0832 218.964 33.0765C218.541 33.064 218.122 33.1536 217.741 33.3379C217.361 33.5222 217.03 33.7956 216.778 34.1349C216.755 34.1619 216.739 34.1931 216.729 34.2266C216.719 34.2602 216.716 34.2954 216.72 34.3302C216.724 34.365 216.735 34.3985 216.753 34.4289C216.77 34.4592 216.794 34.4856 216.822 34.5066C216.85 34.5319 216.885 34.5492 216.923 34.557Z" fill="#263238"/>
<path d="M241.467 62.7242C242.614 64.7276 243.571 66.668 244.567 68.6651C245.562 70.6622 246.457 72.6719 247.307 74.7257C248.158 76.7795 248.983 78.8648 249.701 81.0257C250.448 83.1808 251.079 85.3742 251.591 87.5966L251.976 89.3165C252.144 90.1242 252.216 90.949 252.19 91.7735C252.136 93.3057 251.797 94.8142 251.188 96.2213C250.118 98.5924 248.597 100.732 246.709 102.521C245.025 104.147 243.189 105.609 241.228 106.887C240.277 107.517 239.294 108.097 238.305 108.651C237.316 109.206 236.333 109.716 235.23 110.201L233.139 106.541C233.901 105.911 234.739 105.281 235.52 104.6C236.301 103.92 237.064 103.227 237.82 102.534C239.279 101.18 240.634 99.7159 241.87 98.1554C242.97 96.8172 243.824 95.2941 244.39 93.6572C244.585 93.0474 244.662 92.4059 244.617 91.7672C244.599 91.5104 244.55 91.2567 244.472 91.0112L244.044 89.6C242.771 85.6857 241.256 81.8542 239.508 78.1277C238.645 76.2377 237.725 74.3477 236.805 72.4577C235.885 70.5677 234.915 68.6777 233.977 66.8822L241.467 62.7242Z" fill="#FF8B7B"/>
<path d="M240.308 58.4592C245.562 59.5932 249.216 73.302 249.216 73.302L239.823 81.8259C236.836 78.5033 234.487 74.6592 232.893 70.4859C230.404 63.6252 234.688 57.237 240.308 58.4592Z" fill="#263238"/>
<path d="M234.279 105.892L228.237 105.955L232.017 112.047C232.017 112.047 236.32 110.982 236.705 108.821L234.279 105.892Z" fill="#FF8B7B"/>
<path d="M224.477 109.552L227.809 114.441L231.986 112.047L228.238 105.955L224.477 109.552Z" fill="#FF8B7B"/>
<path d="M233.989 43.0242C233.318 44.2592 232.186 45.1787 230.839 45.582C229.05 46.1049 228.137 44.511 228.616 42.8163C229.05 41.2917 230.506 39.1812 232.295 39.4017C234.084 39.6222 234.79 41.5059 233.989 43.0242Z" fill="#FF8B7B"/>
<path d="M180.441 147.262L173.724 147.749L173.769 148.377L180.486 147.89L180.441 147.262Z" fill="#137EE0"/>
<path d="M186.476 146.826L183.177 147.066L183.223 147.694L186.522 147.455L186.476 146.826Z" fill="#137EE0"/>
<path d="M215.461 72.8736L104.228 80.8935C101.913 81.0741 99.7623 82.1604 98.2431 83.9166C96.724 85.6728 95.9587 87.9572 96.1133 90.2742L99.8933 142.703C100.072 145.021 101.16 147.175 102.919 148.696C104.678 150.217 106.967 150.982 109.287 150.823L115.587 150.37C116.044 150.337 116.496 150.487 116.844 150.787C117.191 151.087 117.405 151.512 117.439 151.97L118.144 161.685C118.156 161.873 118.223 162.053 118.338 162.203C118.453 162.352 118.61 162.464 118.789 162.523C118.968 162.583 119.16 162.588 119.342 162.537C119.523 162.486 119.686 162.383 119.808 162.239L130.354 150.049C130.797 149.538 131.425 149.223 132.099 149.173L220.501 142.804C222.817 142.625 224.969 141.539 226.489 139.783C228.01 138.026 228.776 135.741 228.621 133.423L224.841 80.9943C224.662 78.6781 223.577 76.5261 221.82 75.0056C220.064 73.4851 217.778 72.719 215.461 72.8736Z" fill="#137EE0"/>
<path d="M120.475 104.959L126.485 104.525L126.977 111.329L133.541 110.856L133.05 104.052L139.085 103.611L140.49 123.053L134.455 123.488L133.888 115.625L127.323 116.104L127.89 123.967L121.886 124.401L120.475 104.959Z" fill="white"/>
<path opacity="0.2" d="M104.227 80.8935C101.912 81.0741 99.7618 82.1603 98.2426 83.9166C96.7235 85.6728 95.9582 87.9572 96.1129 90.2742L99.8929 142.703C100.072 145.021 101.159 147.175 102.918 148.696C104.678 150.217 106.966 150.982 109.286 150.823L110.212 150.754C111.751 150.643 113.21 150.027 114.363 149.002C115.516 147.976 116.298 146.599 116.588 145.084L129.257 79.0854L104.227 80.8935Z" fill="black"/>
<path d="M159.346 115.959L148.523 116.74C148.606 117.442 148.9 118.101 149.367 118.63C149.634 118.912 149.964 119.128 150.329 119.261C150.694 119.395 151.085 119.442 151.471 119.399C152.002 119.361 152.513 119.188 152.958 118.895C153.305 118.632 153.602 118.307 153.833 117.937L159.188 118.045C158.606 119.365 157.66 120.492 156.461 121.295C155.36 121.993 153.735 122.413 151.584 122.555C150.081 122.73 148.557 122.569 147.124 122.083C145.975 121.6 144.989 120.798 144.283 119.771C143.473 118.601 143.008 117.228 142.941 115.808C142.828 114.822 142.924 113.822 143.221 112.875C143.518 111.928 144.011 111.053 144.667 110.308C145.977 108.847 147.867 108.025 150.337 107.845C151.972 107.651 153.63 107.845 155.175 108.412C156.359 108.917 157.356 109.778 158.029 110.875C158.8 112.237 159.232 113.765 159.289 115.329L159.346 115.959ZM153.676 113.767C153.599 112.948 153.246 112.179 152.674 111.587C152.386 111.365 152.056 111.205 151.703 111.117C151.351 111.028 150.984 111.013 150.625 111.072C150.267 111.131 149.924 111.263 149.619 111.46C149.313 111.657 149.052 111.915 148.85 112.217C148.514 112.81 148.344 113.482 148.359 114.164L153.676 113.767Z" fill="white"/>
<path d="M161.015 102.03L166.427 101.639L167.832 121.075L162.42 121.465L161.015 102.03Z" fill="white"/>
<path d="M170.056 101.375L175.467 100.984L176.872 120.42L171.467 120.81L170.056 101.375Z" fill="white"/>
<path d="M179.153 113.219C179.051 112.233 179.157 111.236 179.465 110.294C179.774 109.352 180.277 108.485 180.942 107.75C182.29 106.251 184.199 105.411 186.669 105.23C189.483 105.029 191.671 105.692 193.233 107.221C194.531 108.59 195.281 110.387 195.34 112.272C195.399 114.158 194.764 115.999 193.555 117.446C192.219 118.933 190.283 119.773 187.746 119.966C185.775 120.202 183.785 119.734 182.127 118.643C181.245 118.031 180.517 117.222 180.001 116.281C179.485 115.34 179.195 114.291 179.153 113.219ZM184.565 112.816C184.555 113.81 184.896 114.776 185.529 115.543C185.784 115.805 186.093 116.007 186.434 116.137C186.775 116.267 187.141 116.322 187.505 116.297C187.869 116.271 188.224 116.167 188.544 115.992C188.864 115.816 189.142 115.573 189.359 115.279C189.868 114.402 190.059 113.376 189.901 112.375C189.907 111.4 189.57 110.455 188.949 109.703C188.707 109.437 188.406 109.231 188.071 109.099C187.735 108.968 187.374 108.916 187.015 108.947C186.641 108.965 186.276 109.068 185.948 109.25C185.62 109.431 185.339 109.685 185.125 109.993C184.618 110.841 184.428 111.841 184.59 112.816H184.565Z" fill="white"/>
<path d="M197.045 99.4218L202.809 99.006L203.131 103.416L202.658 112.393L199.092 112.652L197.36 103.832L197.045 99.4218ZM198.305 114.088L203.685 113.698L204.032 118.46L198.645 118.845L198.305 114.088Z" fill="white"/>
<path d="M102.689 63.6315C102.661 64.5537 102.709 65.4767 102.834 66.3909C97.1254 68.2973 91.0373 68.7796 85.0996 67.7958C85.3847 66.7181 85.5578 65.614 85.6162 64.5009C85.4176 65.6217 85.0276 66.7001 84.4633 67.6887C83.3419 67.4745 82.7119 67.2918 82.7119 67.2918C82.7119 67.2918 83.8585 61.0926 81.7921 56.5818C79.7257 52.071 80.7589 49.551 82.3213 48.8391C85.2193 39.9309 96.112 41.3358 99.7975 44.952C104.472 49.5384 104.497 62.4597 105.329 65.4144C104.642 65.7105 103.968 65.9814 103.294 66.2208C102.956 65.3952 102.752 64.5212 102.689 63.6315Z" fill="#263238"/>
<path d="M107.194 77.4977L107.761 79.2932C107.969 79.9232 108.177 80.5532 108.391 81.1517C108.813 82.4117 109.254 83.6717 109.727 84.8813C110.199 86.0909 110.653 87.3635 111.144 88.5983L111.875 90.4883L112.058 90.9545L112.102 91.0616C112.024 90.9935 111.934 90.9401 111.837 90.9041C111.699 90.8537 111.642 90.9041 111.73 90.9041C111.882 90.9035 112.033 90.8802 112.177 90.8348C112.67 90.6787 113.143 90.4674 113.589 90.2048C114.663 89.5788 115.69 88.8756 116.663 88.1006C117.684 87.3068 118.685 86.4563 119.668 85.5806C120.651 84.7049 121.64 83.7914 122.591 82.8968L124.525 84.5348C123.719 85.694 122.868 86.7524 122.005 87.8297C121.142 88.907 120.172 89.915 119.177 90.9167C118.152 91.9625 117.037 92.9154 115.844 93.7643C115.161 94.2424 114.428 94.6439 113.658 94.9613C113.169 95.1575 112.656 95.2888 112.133 95.3519C111.423 95.4404 110.703 95.3427 110.042 95.0684C109.321 94.7615 108.708 94.2486 108.278 93.5942C108.183 93.4493 108.095 93.3044 108.026 93.1721L107.856 92.8319L107.629 92.372C107.333 91.742 106.999 91.112 106.74 90.5198C106.167 89.2598 105.594 87.9998 105.071 86.7398C104.548 85.4798 104.038 84.182 103.553 82.8842C103.326 82.2542 103.099 81.5675 102.885 80.906C102.671 80.2445 102.463 79.5956 102.255 78.8207L107.194 77.4977Z" fill="#FFC3BD"/>
<path d="M105.701 71.9034C107.875 72.4578 109.393 81.3912 109.393 81.3912L103.408 85.461C103.408 85.461 97.6749 76.4457 99.3444 74.058C101.083 71.5758 102.532 71.097 105.701 71.9034Z" fill="#137EE0"/>
<path d="M105.701 71.9034C107.875 72.4578 109.393 81.3912 109.393 81.3912L103.408 85.461C103.408 85.461 97.6749 76.4457 99.3444 74.058C101.083 71.5758 102.532 71.097 105.701 71.9034Z" fill="#137EE0"/>
<path opacity="0.4" d="M105.701 71.9034C107.875 72.4578 109.393 81.3912 109.393 81.3912L103.408 85.461C103.408 85.461 97.6749 76.4457 99.3444 74.058C101.083 71.5758 102.532 71.097 105.701 71.9034Z" fill="white"/>
<path opacity="0.3" d="M105.506 73.9005L107.175 82.9032L103.811 85.1838L105.506 73.9005Z" fill="black"/>
<path d="M122.491 83.1111L124.488 78.2979L126.951 83.1111C126.951 83.1111 125.351 85.5051 123.24 84.9192L122.491 83.1111Z" fill="#FFC3BD"/>
<path d="M126.686 77.8001L129.849 79.0727L126.951 83.111L124.481 78.2978L126.686 77.8001Z" fill="#FFC3BD"/>
<path d="M93.9517 222.297H99.2248L99.5776 210.094H94.3045L93.9517 222.297Z" fill="#FFC3BD"/>
<path d="M58.5962 206.578L63.4409 208.645L69.785 198.086L64.934 196.02L58.5962 206.578Z" fill="#FFC3BD"/>
<path d="M64.3731 207.927L59.3331 204.827C59.247 204.772 59.1434 204.75 59.0422 204.766C58.9411 204.783 58.8495 204.836 58.785 204.915L55.7547 208.55C55.6793 208.645 55.6252 208.756 55.5959 208.873C55.5666 208.991 55.5629 209.114 55.585 209.233C55.6071 209.353 55.6544 209.466 55.7239 209.565C55.7934 209.665 55.8834 209.748 55.9878 209.81C57.7644 210.862 58.6716 211.278 60.8892 212.639C62.2563 213.483 64.1589 214.844 66.0426 216.003C67.9263 217.162 69.1926 215.373 68.4933 214.712C65.4378 211.795 65.526 210.409 64.9527 208.683C64.8575 208.369 64.6515 208.1 64.3731 207.927Z" fill="#263238"/>
<path d="M99.401 221.686H93.4853C93.3835 221.685 93.2846 221.72 93.2071 221.786C93.1295 221.852 93.0784 221.944 93.0632 222.045L92.3891 226.732C92.3726 226.852 92.3825 226.975 92.418 227.091C92.4534 227.207 92.5137 227.314 92.5946 227.404C92.6755 227.495 92.775 227.567 92.8864 227.615C92.9978 227.663 93.1183 227.686 93.2396 227.683C95.306 227.652 96.3014 227.526 98.9096 227.526C100.51 227.526 103.824 227.696 106.035 227.696C108.246 227.696 108.36 225.51 107.44 225.308C103.313 224.42 101.688 223.198 100.296 222.032C100.049 221.813 99.7313 221.69 99.401 221.686Z" fill="#263238"/>
<path opacity="0.2" d="M99.5711 210.1L99.3947 216.388H94.1216L94.3043 210.1H99.5711Z" fill="black"/>
<path opacity="0.2" d="M64.9338 196.026L69.7785 198.086L66.5088 203.529L61.6641 201.463L64.9338 196.026Z" fill="black"/>
<path d="M105.701 71.9034C105.701 71.9034 108.221 72.7854 103.181 103.699H81.7614C82.1205 94.9929 82.1331 89.6253 77.9814 71.7522C80.9766 71.1332 84.0128 70.7331 87.066 70.5552C90.3021 70.3218 93.5509 70.3218 96.787 70.5552C100.97 70.9332 105.701 71.9034 105.701 71.9034Z" fill="#E13214"/>
<path opacity="0.4" d="M105.701 71.9034C105.701 71.9034 108.221 72.7854 103.181 103.699H81.7614C82.1205 94.9929 82.1331 89.6253 77.9814 71.7522C80.9766 71.1332 84.0128 70.7331 87.066 70.5552C90.3021 70.3218 93.5509 70.3218 96.787 70.5552C100.97 70.9332 105.701 71.9034 105.701 71.9034Z" fill="white"/>
<path d="M87.078 70.5488C90.3143 70.3217 93.5625 70.3217 96.7989 70.5488C97.3218 70.5992 97.8573 70.6559 98.3865 70.7189C98.6067 71.05 98.748 71.4273 98.7993 71.8216C98.8507 72.2159 98.8107 72.6168 98.6826 72.9932C97.9959 74.6879 95.5326 74.8832 93.7434 74.8832C87.1221 74.8832 86.0007 71.015 85.9566 70.8512L85.8936 70.6181L87.078 70.5488Z" fill="white"/>
<path d="M88.042 59.6121C88.672 62.7621 89.2705 68.4699 87.0781 70.5552C87.0781 70.5552 87.9349 73.7052 93.7435 73.7052C100.132 73.7052 96.799 70.5552 96.799 70.5552C93.3088 69.7236 93.4033 67.1343 94.0081 64.7088L88.042 59.6121Z" fill="#FFC3BD"/>
<path d="M88.6779 57.3882C87.9282 59.8641 88.9677 65.7231 90.5112 67.9911C87.4683 66.246 86.4414 60.9288 86.4414 60.9288L88.6779 57.3882Z" fill="#263238"/>
<path opacity="0.2" d="M90.4739 61.6911L94.0082 64.7025C93.8531 65.2671 93.7519 65.845 93.7058 66.4287C92.3765 66.2334 90.5558 64.7718 90.4046 63.3795C90.3263 62.8171 90.3498 62.2452 90.4739 61.6911Z" fill="black"/>
<path d="M85.157 54.0303C86.3792 59.1144 86.7824 61.2942 89.8442 63.4803C94.4495 66.7626 100.428 64.1544 100.75 58.8057C101.039 53.9925 98.9981 46.4892 93.6116 45.33C92.4248 45.0679 91.1907 45.1135 90.0265 45.4625C88.8622 45.8114 87.8065 46.4521 86.9595 47.3238C86.1125 48.1954 85.5023 49.269 85.1868 50.4428C84.8713 51.6165 84.8611 52.8514 85.157 54.0303Z" fill="#FFC3BD"/>
<path d="M103.187 103.699C103.187 103.699 107.339 144.284 106.967 160.349C106.608 177.057 100.485 215.159 100.485 215.159H93.3657C93.3657 215.159 94.4934 178.021 93.8634 161.609C93.1767 143.717 87.4941 103.687 87.4941 103.687L103.187 103.699Z" fill="#7714E1"/>
<path opacity="0.4" d="M103.187 103.699C103.187 103.699 107.339 144.284 106.967 160.349C106.608 177.057 100.485 215.159 100.485 215.159H93.3657C93.3657 215.159 94.4934 178.021 93.8634 161.609C93.1767 143.717 87.4941 103.687 87.4941 103.687L103.187 103.699Z" fill="black"/>
<path d="M92.7734 215.424H101.127L101.745 212.759L92.3828 212.431L92.7734 215.424Z" fill="#137EE0"/>
<path opacity="0.2" d="M93.9577 113.798C99.2119 124.37 95.0098 143.654 93.1513 150.83C92.2 140.057 90.5935 126.89 89.3398 117.207C90.1336 111.763 91.5322 108.922 93.9577 113.798Z" fill="black"/>
<path d="M97.5359 103.699C97.5359 103.699 92.6849 145.909 89.0246 159.436C84.6839 175.519 68.159 202.906 68.159 202.906L61.5503 200.096C61.5503 200.096 71.7752 168.999 75.1016 160.525C82.1891 142.444 76.1222 115.499 81.7859 103.699H97.5359Z" fill="#7714E1"/>
<path opacity="0.4" d="M97.5359 103.699C97.5359 103.699 92.6849 145.909 89.0246 159.436C84.6839 175.519 68.159 202.906 68.159 202.906L61.5503 200.096C61.5503 200.096 71.7752 168.999 75.1016 160.525C82.1891 142.444 76.1222 115.499 81.7859 103.699H97.5359Z" fill="black"/>
<path d="M60.6372 200.115L68.8398 203.605L70.8117 201.4L61.3491 196.858L60.6372 200.115Z" fill="#137EE0"/>
<path d="M93.2394 54.0996C93.315 54.5154 93.5922 54.8178 93.8694 54.7674C94.1466 54.717 94.3041 54.339 94.2285 53.9232C94.1529 53.5074 93.8757 53.205 93.5985 53.2491C93.3213 53.2932 93.1323 53.6775 93.2394 54.0996Z" fill="#263238"/>
<path d="M97.9393 53.268C98.0086 53.6838 98.2921 53.9862 98.5693 53.9358C98.8465 53.8854 99.0103 53.5074 98.9347 53.0916C98.8591 52.6758 98.5819 52.3734 98.3047 52.4175C98.0275 52.4616 97.8637 52.8459 97.9393 53.268Z" fill="#263238"/>
<path d="M98.1855 52.4679L99.1368 51.9954C99.1368 51.9954 98.7588 52.8711 98.1855 52.4679Z" fill="#263238"/>
<path d="M96.812 54.2067C97.3529 55.0958 98.0144 55.9057 98.7776 56.6133C98.5906 56.8025 98.3648 56.949 98.1157 57.0425C97.8667 57.1361 97.6003 57.1745 97.3349 57.1551L96.812 54.2067Z" fill="#ED847E"/>
<path d="M95.4383 59.127C95.677 59.1265 95.9152 59.1054 96.1502 59.064C96.1682 59.0632 96.1858 59.0587 96.2019 59.0505C96.218 59.0424 96.2321 59.031 96.2434 59.0169C96.2547 59.0029 96.2628 58.9866 96.2672 58.9692C96.2717 58.9517 96.2723 58.9335 96.2691 58.9158C96.266 58.8981 96.259 58.8812 96.2488 58.8664C96.2386 58.8516 96.2253 58.8392 96.2098 58.8299C96.1944 58.8207 96.1771 58.8149 96.1592 58.8128C96.1413 58.8108 96.1232 58.8127 96.1061 58.8183C95.5873 58.9216 95.0514 58.9007 94.5423 58.7573C94.0331 58.6139 93.5651 58.3519 93.1766 57.993C93.153 57.9699 93.1214 57.9569 93.0884 57.9569C93.0554 57.9569 93.0237 57.9699 93.0002 57.993C92.988 58.0042 92.9782 58.0178 92.9715 58.033C92.9649 58.0482 92.9614 58.0646 92.9614 58.0811C92.9614 58.0977 92.9649 58.1141 92.9715 58.1293C92.9782 58.1445 92.988 58.1581 93.0002 58.1693C93.6578 58.793 94.5321 59.1364 95.4383 59.127Z" fill="#263238"/>
<path d="M86.9397 51.0503C87.0774 52.3901 87.2877 53.7213 87.5697 55.0382C87.5697 55.0382 90.7197 51.0503 91.2426 48.9146C91.1176 49.7555 90.8736 50.5743 90.5181 51.3464C90.5181 51.3464 94.758 50.4203 95.1738 47.6231C95.1666 48.8754 95.0272 50.1234 94.758 51.3464C94.758 51.3464 98.8026 49.7588 98.4309 47.075C98.0592 44.3912 91.8474 43.3517 88.9809 44.2589C86.1144 45.1661 83.3109 48.1082 84.1551 52.1528C84.9993 56.1974 86.6184 57.7157 86.6184 57.7157C86.6184 57.7157 85.4529 53.6396 86.9397 51.0503Z" fill="#263238"/>
<path d="M84.9361 57.8607C85.325 58.7939 86.0681 59.5347 87.0025 59.9208C88.2625 60.4248 89.0122 59.3475 88.7917 58.1001C88.5964 56.9724 87.7081 55.3596 86.404 55.3848C86.1187 55.3974 85.841 55.4809 85.596 55.6278C85.351 55.7746 85.1464 55.9802 85.0007 56.2259C84.855 56.4716 84.7729 56.7497 84.7616 57.0351C84.7503 57.3205 84.8103 57.6042 84.9361 57.8607Z" fill="#FFC3BD"/>
<path d="M87.702 49.11C87.072 51.63 88.3824 57.426 90.033 59.6121C86.883 58.0182 85.623 52.7514 85.623 52.7514L87.702 49.11Z" fill="#263238"/>
<path d="M91.5131 52.6632C91.5454 52.6534 91.5755 52.6372 91.6015 52.6155C91.6275 52.5939 91.6488 52.5672 91.6643 52.5372C91.7971 52.253 91.9954 52.0043 92.2429 51.8116C92.4904 51.6188 92.78 51.4875 93.0881 51.4284C93.1532 51.419 93.2123 51.385 93.2533 51.3335C93.2943 51.282 93.3141 51.2168 93.3086 51.1512C93.3055 51.1182 93.2958 51.0863 93.28 51.0572C93.2643 51.0281 93.2428 51.0025 93.2169 50.9819C93.191 50.9613 93.1613 50.9462 93.1294 50.9374C93.0975 50.9286 93.0642 50.9263 93.0314 50.9307C92.6405 50.9985 92.2717 51.1592 91.956 51.3993C91.6402 51.6394 91.3868 51.9519 91.217 52.3104C91.1956 52.3542 91.1873 52.4032 91.1933 52.4516C91.1992 52.5 91.219 52.5457 91.2504 52.583C91.2817 52.6203 91.3232 52.6478 91.3698 52.662C91.4165 52.6762 91.4662 52.6766 91.5131 52.6632Z" fill="#263238"/>
<path d="M99.6592 50.7102C99.6908 50.7115 99.7224 50.706 99.7518 50.6941C99.7811 50.6821 99.8076 50.664 99.8293 50.6409C99.8755 50.5938 99.9013 50.5304 99.9013 50.4645C99.9013 50.3985 99.8755 50.3352 99.8293 50.2881C99.5607 49.9973 99.2273 49.7739 98.8563 49.636C98.4852 49.4981 98.0869 49.4496 97.6936 49.4943C97.6608 49.5003 97.6296 49.5128 97.6017 49.531C97.5738 49.5492 97.5497 49.5727 97.531 49.6003C97.5123 49.6278 97.4992 49.6588 97.4925 49.6914C97.4858 49.7241 97.4856 49.7577 97.492 49.7904C97.5057 49.8541 97.5435 49.91 97.5975 49.9464C97.6516 49.9828 97.7176 49.9969 97.7818 49.9857C98.0919 49.951 98.4059 49.99 98.6982 50.0995C98.9904 50.2089 99.2528 50.3858 99.4639 50.6157C99.4873 50.645 99.517 50.6687 99.5508 50.685C99.5846 50.7014 99.6216 50.71 99.6592 50.7102Z" fill="#263238"/>
<path d="M80.5952 79.2303C79.7195 81.996 78.8816 84.9003 78.1697 87.7605C77.4531 90.584 76.929 93.4529 76.601 96.3474L76.5506 96.8766C76.5506 97.0467 76.5506 97.0845 76.5506 97.2357C76.5575 97.5328 76.5807 97.8293 76.6199 98.124C76.7001 98.814 76.8157 99.4995 76.9664 100.178C77.2625 101.583 77.5964 103.032 78.0248 104.468C78.4532 105.904 78.8186 107.366 79.247 108.815L80.507 113.162L78.1697 114.126C76.7333 111.379 75.4859 108.582 74.3204 105.697C73.7597 104.248 73.2116 102.786 72.758 101.242C72.5312 100.474 72.317 99.6864 72.128 98.8296C72.0382 98.3758 71.9751 97.9172 71.939 97.4562C71.939 97.2231 71.939 96.8766 71.939 96.6687V96.0387C71.9924 94.4333 72.1396 92.8325 72.38 91.2444C72.5879 89.6694 72.8966 88.1322 73.2305 86.6013C73.886 83.5352 74.7275 80.5119 75.7505 77.5482L80.5952 79.2303Z" fill="#FFC3BD"/>
<path d="M77.9941 71.7522C75.8521 72.3822 73.2754 79.7847 73.2754 79.7847L81.5914 85.7319C81.5914 85.7319 84.628 79.5705 83.7271 76.7985C82.7884 73.9131 80.4448 71.0088 77.9941 71.7522Z" fill="#E13214"/>
<path opacity="0.4" d="M77.9941 71.7522C75.8521 72.3822 73.2754 79.7847 73.2754 79.7847L81.5914 85.7319C81.5914 85.7319 84.628 79.5705 83.7271 76.7985C82.7884 73.9131 80.4448 71.0088 77.9941 71.7522Z" fill="white"/>
<path d="M66.5027 209.93C66.6052 209.894 66.6984 209.836 66.7757 209.76C66.853 209.683 66.9125 209.591 66.95 209.489C66.9864 209.424 67.0055 209.35 67.0055 209.275C67.0055 209.2 66.9864 209.126 66.95 209.061C66.572 208.506 64.6631 208.55 64.43 208.557C64.4059 208.557 64.3823 208.564 64.3622 208.578C64.3421 208.591 64.3263 208.61 64.3166 208.632C64.3043 208.652 64.2979 208.675 64.2979 208.698C64.2979 208.722 64.3043 208.745 64.3166 208.765C64.8143 209.262 65.7467 210.075 66.4019 209.949L66.5027 209.93ZM64.7324 208.783C65.4947 208.783 66.5153 208.891 66.7169 209.187C66.7341 209.215 66.7432 209.248 66.7432 209.281C66.7432 209.314 66.7341 209.347 66.7169 209.376C66.6891 209.452 66.6428 209.52 66.5824 209.573C66.5219 209.627 66.4491 209.665 66.3704 209.684C66.0239 209.773 65.4191 209.413 64.7324 208.783Z" fill="#137EE0"/>
<path d="M65.2923 208.651C65.8719 208.468 66.4893 208.147 66.6216 207.788C66.6544 207.695 66.6549 207.593 66.6229 207.499C66.5909 207.405 66.5283 207.325 66.4452 207.271C66.3718 207.21 66.2854 207.167 66.1927 207.144C66.0999 207.121 66.0031 207.119 65.9097 207.139C65.16 207.271 64.3536 208.557 64.3221 208.613C64.311 208.633 64.3052 208.654 64.3052 208.676C64.3052 208.698 64.311 208.72 64.3221 208.739C64.3334 208.758 64.3491 208.773 64.3678 208.784C64.3864 208.795 64.4075 208.801 64.4292 208.802C64.7227 208.794 65.0134 208.743 65.2923 208.651ZM65.8719 207.391H65.9538C66.013 207.379 66.0742 207.38 66.133 207.394C66.1919 207.408 66.2468 207.435 66.294 207.473C66.42 207.574 66.4074 207.649 66.3885 207.706C66.2625 208.053 65.3049 208.468 64.6686 208.55C64.958 208.066 65.374 207.67 65.8719 207.404V207.391Z" fill="#137EE0"/>
<path d="M101.379 222.606C101.823 222.642 102.267 222.529 102.639 222.284C102.726 222.206 102.792 222.108 102.831 221.998C102.871 221.888 102.883 221.77 102.866 221.654C102.861 221.586 102.839 221.52 102.801 221.463C102.764 221.405 102.712 221.359 102.652 221.327C102.022 220.974 99.9113 222.045 99.6719 222.165C99.6488 222.174 99.629 222.19 99.6151 222.211C99.6012 222.232 99.5937 222.256 99.5938 222.281C99.5938 222.306 99.6012 222.331 99.6151 222.351C99.629 222.372 99.6488 222.388 99.6719 222.398C100.232 222.525 100.805 222.594 101.379 222.606ZM102.318 221.516C102.398 221.511 102.478 221.526 102.551 221.56C102.576 221.573 102.597 221.593 102.611 221.618C102.625 221.642 102.633 221.67 102.633 221.698C102.645 221.771 102.638 221.845 102.614 221.914C102.59 221.984 102.549 222.046 102.494 222.095C102.173 222.385 101.304 222.436 100.138 222.24C100.818 221.877 101.555 221.632 102.318 221.516Z" fill="#137EE0"/>
<path d="M99.7477 222.423H99.7981C100.428 222.139 101.688 221.005 101.575 220.407C101.575 220.262 101.449 220.092 101.102 220.054C100.978 220.04 100.853 220.052 100.733 220.089C100.614 220.126 100.504 220.187 100.409 220.268C99.7792 220.823 99.628 222.24 99.6217 222.297C99.6209 222.319 99.6256 222.341 99.6355 222.361C99.6455 222.381 99.6602 222.398 99.6784 222.41C99.699 222.423 99.7238 222.428 99.7477 222.423ZM101.008 220.287H101.083C101.31 220.287 101.329 220.407 101.329 220.432C101.392 220.791 100.548 221.692 99.9052 222.076C99.9556 221.478 100.191 220.91 100.579 220.451C100.695 220.346 100.845 220.288 101.001 220.287H101.008Z" fill="#137EE0"/>
<path d="M81.4648 102.446L80.923 104.336C80.8474 104.481 81.0238 104.632 81.2695 104.632H103.319C103.515 104.632 103.672 104.537 103.685 104.418L103.88 102.528C103.88 102.395 103.723 102.282 103.515 102.282H81.8176C81.7496 102.277 81.6815 102.289 81.6197 102.318C81.5579 102.346 81.5046 102.39 81.4648 102.446Z" fill="#263238"/>
<path d="M84.3753 104.865H83.7894C83.676 104.865 83.5878 104.808 83.5941 104.733L83.865 102.213C83.865 102.143 83.9784 102.08 84.0918 102.08H84.6714C84.7911 102.08 84.873 102.143 84.8667 102.213L84.5958 104.733C84.5958 104.833 84.495 104.865 84.3753 104.865Z" fill="#137EE0"/>
<path opacity="0.4" d="M84.3753 104.865H83.7894C83.676 104.865 83.5878 104.808 83.5941 104.733L83.865 102.213C83.865 102.143 83.9784 102.08 84.0918 102.08H84.6714C84.7911 102.08 84.873 102.143 84.8667 102.213L84.5958 104.733C84.5958 104.833 84.495 104.865 84.3753 104.865Z" fill="black"/>
<path d="M101.657 104.865H101.077C100.964 104.865 100.875 104.808 100.882 104.733L101.159 102.213C101.159 102.143 101.266 102.08 101.379 102.08H101.959C102.079 102.08 102.167 102.143 102.154 102.213L101.883 104.733C101.877 104.833 101.776 104.865 101.657 104.865Z" fill="#137EE0"/>
<path opacity="0.4" d="M101.657 104.865H101.077C100.964 104.865 100.875 104.808 100.882 104.733L101.159 102.213C101.159 102.143 101.266 102.08 101.379 102.08H101.959C102.079 102.08 102.167 102.143 102.154 102.213L101.883 104.733C101.877 104.833 101.776 104.865 101.657 104.865Z" fill="black"/>
<path d="M93.0188 104.865H92.4392C92.3195 104.865 92.2313 104.808 92.2439 104.733L92.5148 102.213C92.5148 102.143 92.6219 102.08 92.7416 102.08H93.3212C93.4346 102.08 93.5228 102.143 93.5165 102.213L93.2456 104.733C93.2393 104.833 93.1322 104.865 93.0188 104.865Z" fill="#137EE0"/>
<path opacity="0.4" d="M93.0188 104.865H92.4392C92.3195 104.865 92.2313 104.808 92.2439 104.733L92.5148 102.213C92.5148 102.143 92.6219 102.08 92.7416 102.08H93.3212C93.4346 102.08 93.5228 102.143 93.5165 102.213L93.2456 104.733C93.2393 104.833 93.1322 104.865 93.0188 104.865Z" fill="black"/>
<path d="M93.4536 53.2932L94.4049 52.827C94.4049 52.827 94.0269 53.7027 93.4536 53.2932Z" fill="#263238"/>
<path d="M80.3311 112.45L84.8482 115.915L79.6129 117.068C79.6129 117.068 77.389 114.548 78.1576 112.469L80.3311 112.45Z" fill="#FFC3BD"/>
<path d="M85.9565 120.205L81.5212 120.93L79.1021 116.381L84.8476 115.915L85.9565 120.205Z" fill="#FFC3BD"/>
</svg>
