<svg width="265" height="183" viewBox="0 0 265 183" fill="none" xmlns="http://www.w3.org/2000/svg">
<g clip-path="url(#clip0)">
<g opacity="0.5">
<path opacity="0.5" d="M162.119 0.00230348L22.4951 45.4229L110.494 183.004L250.117 137.583L162.119 0.00230348Z" fill="url(#paint0_linear)"/>
</g>
<path d="M160.989 1.59401L24.918 45.8589L110.972 180.399L247.043 136.134L160.989 1.59401Z" fill="white"/>
<path d="M124.612 9.13408L57.1089 31.0933L64.5675 42.7544L132.07 20.7952L124.612 9.13408Z" fill="url(#paint1_linear)"/>
<path d="M83.5692 8.71688C78.3591 10.4124 76.1073 14.8713 78.5417 18.6766C80.9761 22.482 87.1744 24.1925 92.3846 22.497C97.5948 20.8014 99.8465 16.3426 97.4121 12.5372C94.9777 8.73183 88.7794 7.02133 83.5692 8.71688ZM90.5191 19.5821C89.4228 19.9614 88.1928 20.0991 86.9863 19.9775C85.7798 19.856 84.6514 19.4807 83.7453 18.8997C82.8393 18.3186 82.1966 17.5582 81.8994 16.7154C81.6021 15.8727 81.6639 14.9859 82.0767 14.1682C82.4895 13.3506 83.2347 12.6393 84.2171 12.1252C85.1994 11.611 86.3743 11.3173 87.5918 11.2816C88.8093 11.2459 90.0141 11.4698 91.0523 11.9247C92.0905 12.3796 92.9151 13.0449 93.4206 13.8356C93.7594 14.3489 93.9531 14.9048 93.9907 15.4715C94.0282 16.0382 93.9089 16.6047 93.6394 17.1385C93.37 17.6723 92.9558 18.163 92.4204 18.5827C91.885 19.0023 91.2389 19.3426 90.5191 19.5842V19.5821Z" fill="url(#paint2_linear)"/>
<path d="M123.904 9.37404L57.8232 30.8706L64.9538 42.0188L131.035 20.5222L123.904 9.37404Z" fill="white"/>
<path d="M83.8926 9.22512C82.0653 9.81934 80.5261 10.7867 79.4697 12.0047C78.4133 13.2228 77.8871 14.637 77.9577 16.0684C78.0283 17.4997 78.6925 18.884 79.8663 20.0462C81.0401 21.2083 82.6707 22.0961 84.5521 22.5973C86.4334 23.0985 88.4809 23.1906 90.4356 22.8619C92.3903 22.5332 94.1644 21.7985 95.5336 20.7506C96.9028 19.7028 97.8055 18.389 98.1276 16.9753C98.4498 15.5616 98.1768 14.1115 97.3433 12.8084C96.2257 11.0613 94.1808 9.70233 91.6584 9.03035C89.136 8.35837 86.3426 8.42843 83.8926 9.22512ZM90.5371 19.6141C89.4832 19.9568 88.3105 20.0689 87.1672 19.9363C86.024 19.8036 84.9615 19.4323 84.1142 18.8691C83.2669 18.3059 82.6728 17.5761 82.4069 16.7721C82.1411 15.9681 82.2155 15.126 82.6207 14.3522C83.0259 13.5783 83.7438 12.9076 84.6835 12.4246C85.6233 11.9417 86.7427 11.6684 87.9002 11.6392C89.0578 11.6099 90.2015 11.8261 91.1868 12.2604C92.1721 12.6947 92.9547 13.3276 93.4356 14.079C94.0799 15.0869 94.1365 16.2359 93.5929 17.2735C93.0494 18.3111 91.9502 19.1523 90.5371 19.612V19.6141Z" fill="white"/>
<path d="M74.3852 56.0912L45.2515 65.5686L58.5408 86.3457L87.6745 76.8683L74.3852 56.0912Z" fill="url(#paint3_linear)"/>
<path d="M100.82 97.2328L71.6858 106.71L84.9751 127.487L114.109 118.01L100.82 97.2328Z" fill="url(#paint4_linear)"/>
<path d="M73.8031 57.1982L46.8025 65.9817L59.1188 85.2375L86.1194 76.454L73.8031 57.1982Z" fill="#69F0AE"/>
<path d="M99.8949 97.9894L72.8943 106.773L85.2106 126.029L112.211 117.245L99.8949 97.9894Z" fill="white"/>
<path d="M132.379 45.3247L95.3691 57.3643L96.5472 59.2061L133.557 47.1666L132.379 45.3247Z" fill="#E0E0E0"/>
<path d="M158.247 40.2475L97.1382 60.1267L98.3163 61.9686L159.425 42.0894L158.247 40.2475Z" fill="#E0E0E0"/>
<path d="M155.707 44.41L98.9023 62.8889L100.08 64.7308L156.885 46.2518L155.707 44.41Z" fill="#E0E0E0"/>
<path d="M158.472 86.1182L121.462 98.1577L122.64 99.9996L159.65 87.96L158.472 86.1182Z" fill="#E0E0E0"/>
<path d="M184.339 81.0388L123.23 100.918L124.408 102.76L185.517 82.8806L184.339 81.0388Z" fill="#E0E0E0"/>
<path d="M181.8 85.2032L124.995 103.682L126.173 105.524L182.978 87.045L181.8 85.2032Z" fill="#E0E0E0"/>
<path d="M59.5995 72.0631L66.5524 73.6732L68.8401 64.1299L72.2237 64.7897L68.4179 76.5881L57.9316 73.3102L59.5995 72.0631Z" fill="url(#paint5_linear)"/>
<path d="M60.486 71.937L66.5315 73.3357L68.5198 65.0374L71.4602 65.6118L68.1515 75.8705L59.0337 73.0218L60.486 71.937Z" fill="white"/>
<path d="M86.7403 112.983L92.7859 114.381L94.7742 106.083L97.7146 106.657L94.4059 116.916L85.2881 114.067L86.7403 112.983Z" fill="white"/>
<path d="M202.81 113.945L116.476 142.03L129.603 162.553L215.936 134.468L202.81 113.945Z" fill="#E0E0E0"/>
<path d="M190.294 130.301C186.976 129.626 183.581 129.755 182.524 132.46C182.167 133.372 182.125 134.788 180.754 135.258C178.736 135.95 176.301 134.566 174.55 134.002C171.286 132.951 167.935 133.667 166.046 135.875C165.087 136.994 164.677 138.281 164.351 139.556C164.21 140.109 164.192 140.793 163.866 141.314C163.24 142.311 161.282 142.221 159.997 142.183C159.716 142.183 159.428 142.159 159.141 142.138C160.156 141.14 160.663 139.925 160.578 138.694C160.494 136.671 158.653 134.459 155.434 134.707C152.55 134.92 150.52 136.906 150.843 138.916C151.119 140.624 152.679 141.948 154.679 142.759C153.697 143.069 152.649 143.31 151.721 143.631C151.287 143.78 150.866 143.948 150.46 144.133C147.654 143.167 143.968 142.986 141.444 143.97C140.222 144.446 141.115 145.862 142.342 145.382C144.265 144.632 146.385 144.82 148.394 145.296L148.562 145.339C148.363 145.52 148.188 145.714 148.038 145.918C146.903 147.489 148.038 149.975 150.798 150.146C154.691 150.383 154.874 146.714 152.76 145.254C152.67 145.192 152.58 145.132 152.484 145.074C153.359 144.773 154.305 144.547 155.14 144.293C155.868 144.073 156.561 143.798 157.206 143.473L157.356 143.5C160.329 143.981 164.971 144.13 166.04 141.561C166.956 139.332 167.043 134.598 171.983 135.036C173.999 135.213 175.652 136.317 177.568 136.716C179.284 137.081 181.269 137.096 182.676 136.195C183.838 135.452 184.099 134.354 184.455 133.329C184.638 132.8 184.817 132.168 185.422 131.79C186.515 131.108 188.321 131.51 189.539 131.758C190.872 132.027 191.644 130.575 190.294 130.301ZM151.667 148.365C151.011 148.828 150.316 148.461 149.966 147.976C149.541 147.387 149.723 146.806 150.265 146.287C150.354 146.202 150.449 146.121 150.55 146.044C151.846 146.642 152.906 147.498 151.679 148.365H151.667ZM153.966 136.834C155.314 135.941 157.191 136.137 157.994 137.363C158.796 138.589 158.443 140.319 157.317 141.399C157.168 141.541 157.003 141.674 156.823 141.796C156.038 141.609 155.313 141.314 154.688 140.927C153.095 139.902 152.194 138.008 153.978 136.827L153.966 136.834Z" fill="white"/>
<path d="M208.251 47.3451L184.081 54.0654C179.535 53.8241 169.971 52.9443 160.479 49.7518C149.912 46.1984 137.806 46.2069 127.541 49.929C103.886 50.3326 90.8666 48.1716 83.9197 46.1258L85.7522 43.4437L61.2524 36.6316L0 17.0537V97.2956L21.4366 104.108L32.9349 84.4359L58.1862 92.7642L63.0341 83.9789L79.6138 92.7535L80.7427 93.4304L79.1886 94.5814C77.7637 95.6546 76.9696 97.0765 76.9696 98.5544C76.9696 100.032 77.7637 101.454 79.1886 102.527C79.8781 103.047 80.7091 103.461 81.6307 103.744C82.5523 104.027 83.5451 104.173 84.5485 104.173C85.5519 104.173 86.5447 104.027 87.4663 103.744C88.3879 103.461 89.2188 103.047 89.9084 102.527L89.058 103.168C87.6331 104.241 86.839 105.663 86.839 107.141C86.839 108.619 87.6331 110.041 89.058 111.114C89.7475 111.634 90.5785 112.048 91.5 112.331C92.4216 112.614 93.4145 112.76 94.4179 112.76C95.4212 112.76 96.4141 112.614 97.3357 112.331C98.2572 112.048 99.0882 111.634 99.7777 111.114L104.688 107.473L101.317 109.972C99.8919 111.045 99.0978 112.467 99.0978 113.945C99.0978 115.423 99.8919 116.844 101.317 117.918C102.006 118.438 102.837 118.852 103.759 119.135C104.68 119.418 105.673 119.564 106.677 119.564C107.68 119.564 108.673 119.418 109.595 119.135C110.516 118.852 111.347 118.438 112.037 117.918L116.884 114.324L114.845 115.836C113.849 116.585 113.294 117.579 113.294 118.612C113.294 119.645 113.849 120.638 114.845 121.388C115.327 121.751 115.907 122.04 116.551 122.237C117.194 122.435 117.888 122.537 118.588 122.537C119.289 122.537 119.982 122.435 120.626 122.237C121.269 122.04 121.85 121.751 122.331 121.388L125.565 118.992C131.12 121.885 135.614 123.997 137.815 124.544C146.987 126.812 146.987 122.27 146.987 122.27C159.237 126.81 165.363 117.73 165.363 117.73C180.676 122.27 180.676 110.918 180.676 110.918C184.503 112.81 187.264 111.943 189.192 110.277C191.818 108.018 192.138 104.829 190.336 102.271L204.972 92.6254L211.302 101.855L236.554 93.5265L248.052 111.706L264.985 106.314V26.911L208.251 47.3451Z" fill="url(#paint6_linear)"/>
<path d="M204.185 89.3646L177.529 106.26L156.799 78.8026L204.185 70.3547V89.3646Z" fill="#BE7C5E"/>
<path d="M76.8351 45.009C76.8351 45.009 85.39 53.4569 136.066 51.3449L165.683 83.0266L185.53 98.9506C188.647 101.453 188.824 105.248 185.764 107.785C183.904 109.325 181.23 110.134 177.529 108.372C177.529 108.372 177.529 118.932 162.722 114.708C162.722 114.708 156.799 123.156 144.954 118.932C144.954 118.932 144.954 123.156 136.069 121.044C127.185 118.932 79.7965 91.4765 79.7965 91.4765L59.0667 80.9167L76.8351 45.009Z" fill="#FDA57D"/>
<path d="M183.452 55.571C183.452 55.571 170.654 55.571 158 51.4731C146.493 47.751 133.093 48.225 122.475 53.111C113.821 57.0936 106.323 63.6879 106.464 74.5787C106.464 74.5787 117.98 83.0266 130.155 66.1308H139.04C139.04 66.1308 147.595 87.2526 171.618 85.1364C195.642 83.0201 201.235 80.9125 201.235 80.9125L183.452 55.571Z" fill="#BE7C5E"/>
<path d="M105.7 97.2756L104.739 96.59C102.142 94.7378 97.931 94.7378 95.3338 96.59L88.4504 101.499C85.8532 103.351 85.8532 106.354 88.4504 108.206L89.4116 108.892C92.0088 110.744 96.2196 110.744 98.8168 108.892L105.7 103.983C108.297 102.131 108.297 99.1278 105.7 97.2756Z" fill="#BE7C5E"/>
<path d="M96.1551 89.2968L95.1938 88.6113C92.5966 86.7591 88.3858 86.7591 85.7886 88.6113L78.9052 93.5203C76.3081 95.3725 76.3081 98.3755 78.9052 100.228L79.8665 100.913C82.4636 102.765 86.6745 102.765 89.2716 100.913L96.1551 96.0042C98.7522 94.152 98.7522 91.149 96.1551 89.2968Z" fill="#BE7C5E"/>
<path d="M119.026 102.554L118.064 101.869C115.467 100.016 111.256 100.016 108.659 101.869L100.296 107.833C97.6986 109.685 97.6986 112.688 100.296 114.54L101.257 115.226C103.854 117.078 108.065 117.078 110.662 115.226L119.026 109.262C121.623 107.409 121.623 104.406 119.026 102.554Z" fill="#BE7C5E"/>
<path d="M126.039 109.902L125.368 109.424C123.554 108.13 120.614 108.13 118.8 109.424L113.522 113.188C111.708 114.482 111.708 116.579 113.522 117.872L114.193 118.351C116.006 119.644 118.947 119.644 120.761 118.351L126.039 114.586C127.853 113.293 127.853 111.196 126.039 109.902Z" fill="#BE7C5E"/>
<path d="M233.799 93.5885L207.146 102.036L180.49 55.571L204.185 49.2351L233.799 93.5885Z" fill="white"/>
<path d="M32.4138 83.0286L59.0665 91.4765L85.7222 45.0111L62.0279 38.6731L32.4138 83.0286Z" fill="white"/>
<path d="M2.79663 19.6653L62.0279 38.673L23.5295 102.036L2.79663 95.7003V19.6653Z" fill="#E1BC14"/>
<path d="M263.416 30.2251L204.185 49.2349L242.686 112.596L263.416 106.26V30.2251Z" fill="#4D8AF0"/>
</g>
<defs>
<linearGradient id="paint0_linear" x1="180.307" y1="160.293" x2="131.413" y2="9.99123" gradientUnits="userSpaceOnUse">
<stop stop-color="#808080" stop-opacity="0.25"/>
<stop offset="0.54" stop-color="#808080" stop-opacity="0.12"/>
<stop offset="1" stop-color="#808080" stop-opacity="0.1"/>
</linearGradient>
<linearGradient id="paint1_linear" x1="42594.8" y1="-11653.4" x2="42346.1" y2="-12418" gradientUnits="userSpaceOnUse">
<stop stop-color="#808080" stop-opacity="0.25"/>
<stop offset="0.54" stop-color="#808080" stop-opacity="0.12"/>
<stop offset="1" stop-color="#808080" stop-opacity="0.1"/>
</linearGradient>
<linearGradient id="paint2_linear" x1="12587.6" y1="-2315.27" x2="12241.5" y2="-3379.25" gradientUnits="userSpaceOnUse">
<stop stop-color="#808080" stop-opacity="0.25"/>
<stop offset="0.54" stop-color="#808080" stop-opacity="0.12"/>
<stop offset="1" stop-color="#808080" stop-opacity="0.1"/>
</linearGradient>
<linearGradient id="paint3_linear" x1="17252.5" y1="2766.04" x2="16462.9" y2="338.924" gradientUnits="userSpaceOnUse">
<stop stop-color="#808080" stop-opacity="0.25"/>
<stop offset="0.54" stop-color="#808080" stop-opacity="0.12"/>
<stop offset="1" stop-color="#808080" stop-opacity="0.1"/>
</linearGradient>
<linearGradient id="paint4_linear" x1="20127.2" y1="7195.3" x2="19337.6" y2="4767.96" gradientUnits="userSpaceOnUse">
<stop stop-color="#808080" stop-opacity="0.25"/>
<stop offset="0.54" stop-color="#808080" stop-opacity="0.12"/>
<stop offset="1" stop-color="#808080" stop-opacity="0.1"/>
</linearGradient>
<linearGradient id="paint5_linear" x1="7918.19" y1="1657.93" x2="7706.75" y2="1007.96" gradientUnits="userSpaceOnUse">
<stop stop-color="#808080" stop-opacity="0.25"/>
<stop offset="0.54" stop-color="#808080" stop-opacity="0.12"/>
<stop offset="1" stop-color="#808080" stop-opacity="0.1"/>
</linearGradient>
<linearGradient id="paint6_linear" x1="158890" y1="65659.5" x2="158890" y2="10913.9" gradientUnits="userSpaceOnUse">
<stop stop-color="#808080" stop-opacity="0.25"/>
<stop offset="0.54" stop-color="#808080" stop-opacity="0.12"/>
<stop offset="1" stop-color="#808080" stop-opacity="0.1"/>
</linearGradient>
<clipPath id="clip0">
<rect width="265" height="183" fill="white"/>
</clipPath>
</defs>
</svg>
