<svg width="16" height="16" viewBox="0 0 16 16" fill="none" xmlns="http://www.w3.org/2000/svg">
<path d="M14.3554 3.98749C14.3655 4.16248 14.3655 4.33751 14.3655 4.5125C14.3655 9.84997 11.066 16 5.03555 16C3.17767 16 1.45179 15.3375 0 14.1875C0.26397 14.225 0.517752 14.2375 0.791878 14.2375C2.32485 14.2375 3.73605 13.6 4.86296 12.5125C3.42133 12.475 2.2132 11.3125 1.79694 9.7125C2.00001 9.74997 2.20304 9.77498 2.41626 9.77498C2.71067 9.77498 3.00511 9.72496 3.2792 9.63751C1.77666 9.26247 0.649721 7.63749 0.649721 5.67499V5.62501C1.08625 5.92501 1.59391 6.11251 2.13195 6.13748C1.24869 5.41247 0.670034 4.17498 0.670034 2.77497C0.670034 2.02499 0.832441 1.33749 1.11672 0.737481C2.73095 3.18748 5.15736 4.78745 7.87816 4.96248C7.82741 4.66248 7.79694 4.35001 7.79694 4.03751C7.79694 1.81248 9.25888 0 11.0761 0C12.0203 0 12.8731 0.487499 13.4721 1.275C14.2132 1.10001 14.9238 0.762491 15.5533 0.300002C15.3096 1.23752 14.7919 2.02502 14.1117 2.52499C14.7716 2.43753 15.4112 2.21248 16 1.90001C15.5534 2.69998 14.995 3.41245 14.3554 3.98749Z" fill="#137EE0"/>
</svg>
